Hack-Regular-PS.ufo
<glyph name="at" format="1">
  <advance width="1233"/>
  <unicode hex="0040"/>
  <outline>
    <contour>
      <point x="796" y="-319" type="curve" smooth="yes" name="dv01"/>
      <point x="577" y="-319"/>
      <point x="379" y="-244" name="dh01"/>
      <point x="236" y="-87" type="curve" smooth="yes"/>
      <point x="101" y="62" name="dv04"/>
      <point x="27" y="275"/>
      <point x="27" y="547" type="curve" smooth="yes"/>
      <point x="27" y="798" name="dh06"/>
      <point x="89" y="1011" name="dh05"/>
      <point x="214" y="1164" type="curve" smooth="yes" name="iv01"/>
      <point x="342" y="1321"/>
      <point x="518" y="1395" name="dv05"/>
      <point x="709" y="1395" type="curve" smooth="yes"/>
      <point x="861" y="1395" name="dh03"/>
      <point x="974" y="1348"/>
      <point x="1054" y="1263" type="curve" smooth="yes" name="dv08"/>
      <point x="1134" y="1178"/>
      <point x="1178" y="1053" name="sh01"/>
      <point x="1178" y="905" type="curve" smooth="yes"/>
      <point x="1178" y="135" type="line"/>
      <point x="1034" y="135" type="line" name="dv03"/>
      <point x="1034" y="246" type="line"/>
      <point x="1009" y="205" name="dh02"/>
      <point x="975" y="172"/>
      <point x="932" y="149" type="curve" smooth="yes" name="dv02"/>
      <point x="889" y="126"/>
      <point x="840" y="115"/>
      <point x="785" y="115" type="curve" smooth="yes"/>
      <point x="678" y="115"/>
      <point x="585" y="158"/>
      <point x="517" y="235" type="curve" smooth="yes" name="dv06"/>
      <point x="453" y="307"/>
      <point x="412" y="414" name="sh02"/>
      <point x="412" y="546" type="curve" smooth="yes"/>
      <point x="412" y="667" name="dv07"/>
      <point x="446" y="773"/>
      <point x="517" y="854" type="curve" smooth="yes" name="dh04"/>
      <point x="590" y="938"/>
      <point x="685" y="975"/>
      <point x="782" y="975" type="curve" smooth="yes"/>
      <point x="838" y="975" name="sh03"/>
      <point x="886" y="963"/>
      <point x="931" y="940" type="curve" smooth="yes"/>
      <point x="976" y="917"/>
      <point x="1010" y="885"/>
      <point x="1034" y="844" type="curve"/>
      <point x="1034" y="907" type="line" smooth="yes"/>
      <point x="1034" y="1011"/>
      <point x="1003" y="1099"/>
      <point x="947" y="1159" type="curve" smooth="yes"/>
      <point x="891" y="1220"/>
      <point x="809" y="1253"/>
      <point x="702" y="1253" type="curve" smooth="yes"/>
      <point x="553" y="1253"/>
      <point x="419" y="1190"/>
      <point x="322" y="1062" type="curve" smooth="yes"/>
      <point x="227" y="938"/>
      <point x="176" y="764"/>
      <point x="176" y="549" type="curve" smooth="yes"/>
      <point x="176" y="322"/>
      <point x="233" y="143"/>
      <point x="340" y="18" type="curve"/>
      <point x="444" y="-106"/>
      <point x="595" y="-176"/>
      <point x="778" y="-176" type="curve" smooth="yes"/>
      <point x="817" y="-176"/>
      <point x="852" y="-173"/>
      <point x="888" y="-166" type="curve" smooth="yes"/>
      <point x="924" y="-159"/>
      <point x="960" y="-150"/>
      <point x="999" y="-135" type="curve"/>
      <point x="1047" y="-270" type="line"/>
      <point x="1002" y="-289"/>
      <point x="963" y="-299"/>
      <point x="923" y="-307" type="curve" smooth="yes"/>
      <point x="882" y="-315"/>
      <point x="847" y="-319"/>
    </contour>
    <contour>
      <point x="803" y="260" type="curve" smooth="yes"/>
      <point x="872" y="260"/>
      <point x="932" y="287"/>
      <point x="975" y="338" type="curve" smooth="yes"/>
      <point x="1018" y="389"/>
      <point x="1038" y="461"/>
      <point x="1038" y="545" type="curve" smooth="yes"/>
      <point x="1038" y="629"/>
      <point x="1017" y="702"/>
      <point x="974" y="753" type="curve" smooth="yes"/>
      <point x="933" y="802"/>
      <point x="873" y="829"/>
      <point x="802" y="829" type="curve" smooth="yes"/>
      <point x="732" y="829"/>
      <point x="675" y="803"/>
      <point x="632" y="752" type="curve" smooth="yes"/>
      <point x="589" y="701"/>
      <point x="567" y="633"/>
      <point x="567" y="546" type="curve" smooth="yes"/>
      <point x="567" y="458"/>
      <point x="589" y="388"/>
      <point x="632" y="337" type="curve" smooth="yes"/>
      <point x="675" y="286"/>
      <point x="732" y="260"/>
    </contour>
  </outline>
</glyph>
<glyph name="D" format="1">
  <advance width="1233"/>
  <unicode hex="0044"/>
  <outline>
    <contour>
      <point x="137" y="1493" type="line" name="sh01"/>
      <point x="440" y="1493" type="line" smooth="yes"/>
      <point x="668" y="1493"/>
      <point x="836" y="1432" name="sh02"/>
      <point x="944" y="1311" type="curve" smooth="yes"/>
      <point x="1052" y="1190" name="ab01"/>
      <point x="1106" y="1001"/>
      <point x="1106" y="745" type="curve" smooth="yes" name="sv01"/>
      <point x="1106" y="490"/>
      <point x="1052" y="303" name="ah02"/>
      <point x="944" y="182" type="curve" smooth="yes"/>
      <point x="836" y="61" name="sv02"/>
      <point x="668" y="0" name="sh03"/>
      <point x="440" y="0" type="curve" smooth="yes"/>
      <point x="137" y="0" type="line" name="ah01"/>
    </contour>
    <contour>
      <point x="436" y="166" type="line" smooth="yes" name="sh04"/>
      <point x="606" y="166"/>
      <point x="725" y="208"/>
      <point x="792" y="292" type="curve" smooth="yes"/>
      <point x="860" y="376"/>
      <point x="893" y="523"/>
      <point x="893" y="747" type="curve" smooth="yes"/>
      <point x="893" y="967"/>
      <point x="861" y="1118"/>
      <point x="793" y="1202" type="curve" smooth="yes"/>
      <point x="725" y="1287"/>
      <point x="603" y="1327"/>
      <point x="436" y="1327" type="curve" smooth="yes"/>
      <point x="340" y="1327" type="line"/>
      <point x="340" y="166" type="line"/>
    </contour>
  </outline>
</glyph>
<glyph name="N" format="1">
  <advance width="1233"/>
  <unicode hex="004E"/>
  <outline>
    <contour>
      <point x="139" y="1493" type="line" name="sh01"/>
      <point x="395" y="1493" type="line"/>
      <point x="899" y="264" type="line" name="ah01"/>
      <point x="899" y="1493" type="line" name="at01"/>
      <point x="1094" y="1493" type="line"/>
      <point x="1094" y="0" type="line" name="sh02"/>
      <point x="838" y="0" type="line"/>
      <point x="334" y="1229" type="line" name="sh03"/>
      <point x="334" y="0" type="line" name="ab01"/>
      <point x="139" y="0" type="line"/>
    </contour>
  </outline>
</glyph>
<glyph name="Q" format="1">
  <advance width="1233"/>
  <unicode hex="0051"/>
  <outline>
    <contour>
      <point x="655" y="-27" type="line" name="ab01"/>
      <point x="650" y="-27" name="ab02"/>
      <point x="644" y="-27" name="ab03"/>
      <point x="635" y="-28" type="curve" smooth="yes"/>
      <point x="626" y="-29" name="sh01"/>
      <point x="620" y="-29"/>
      <point x="617" y="-29" type="curve" smooth="yes" name="at01"/>
      <point x="450" y="-29"/>
      <point x="326" y="30" name="sh02"/>
      <point x="241" y="163" type="curve" smooth="yes"/>
      <point x="156" y="296" name="iv01"/>
      <point x="117" y="489" name="sh03"/>
      <point x="117" y="745" type="curve" smooth="yes"/>
      <point x="117" y="1006" name="sv01"/>
      <point x="158" y="1201"/>
      <point x="241" y="1328" type="curve" smooth="yes" name="ah02"/>
      <point x="324" y="1456"/>
      <point x="445" y="1520" name="sv02"/>
      <point x="616" y="1520" type="curve" smooth="yes"/>
      <point x="780" y="1520" name="sh04"/>
      <point x="908" y="1461"/>
      <point x="993" y="1328" type="curve" smooth="yes"/>
      <point x="1075" y="1200" name="ah01"/>
      <point x="1116" y="1006" name="sh05"/>
      <point x="1116" y="745" type="curve" smooth="yes"/>
      <point x="1116" y="550"/>
      <point x="1093" y="392"/>
      <point x="1048" y="272" type="curve" smooth="yes"/>
      <point x="1004" y="155"/>
      <point x="935" y="68"/>
      <point x="840" y="20" type="curve"/>
      <point x="1125" y="-270" type="line"/>
      <point x="889" y="-270" type="line"/>
    </contour>
    <contour>
      <point x="616" y="135" type="curve" smooth="yes"/>
      <point x="719" y="135"/>
      <point x="793" y="182"/>
      <point x="838" y="276" type="curve" smooth="yes"/>
      <point x="883" y="368"/>
      <point x="905" y="524"/>
      <point x="905" y="745" type="curve" smooth="yes"/>
      <point x="905" y="965"/>
      <point x="883" y="1122"/>
      <point x="838" y="1215" type="curve" smooth="yes"/>
      <point x="793" y="1309"/>
      <point x="719" y="1356"/>
      <point x="616" y="1356" type="curve" smooth="yes"/>
      <point x="514" y="1356"/>
      <point x="441" y="1309"/>
      <point x="396" y="1215" type="curve" smooth="yes"/>
      <point x="351" y="1120"/>
      <point x="328" y="964"/>
      <point x="328" y="745" type="curve" smooth="yes"/>
      <point x="328" y="527"/>
      <point x="351" y="371"/>
      <point x="396" y="276" type="curve" smooth="yes"/>
      <point x="441" y="182"/>
      <point x="514" y="135"/>
    </contour>
  </outline>
</glyph>
<glyph name="g" format="1">
  <advance width="1233"/>
  <unicode hex="0067"/>
  <outline>
    <contour>
      <point x="601" y="-440" type="curve" smooth="yes" name="dv01"/>
      <point x="549" y="-440"/>
      <point x="498" y="-435"/>
      <point x="442" y="-426" type="curve" smooth="yes" name="ih01"/>
      <point x="387" y="-417"/>
      <point x="335" y="-404" name="dv02"/>
      <point x="276" y="-385" type="curve"/>
      <point x="276" y="-203" type="line" name="ah02"/>
      <point x="341" y="-234"/>
      <point x="403" y="-256"/>
      <point x="454" y="-271" type="curve" smooth="yes" name="ab01"/>
      <point x="506" y="-286"/>
      <point x="556" y="-293" name="sh01"/>
      <point x="605" y="-293" type="curve" smooth="yes"/>
      <point x="704" y="-293" name="dv04"/>
      <point x="771" y="-267"/>
      <point x="818" y="-211" type="curve" smooth="yes" name="sh03"/>
      <point x="863" y="-158"/>
      <point x="886" y="-72"/>
      <point x="886" y="45" type="curve" smooth="yes" name="sh04"/>
      <point x="886" y="178" type="line"/>
      <point x="857" y="116"/>
      <point x="817" y="69" name="sv01"/>
      <point x="766" y="38" type="curve" smooth="yes"/>
      <point x="715" y="7" name="sh05"/>
      <point x="654" y="-8"/>
      <point x="582" y="-8" type="curve" smooth="yes" name="dv03"/>
      <point x="451" y="-8"/>
      <point x="346" y="44" name="sh02"/>
      <point x="268" y="149" type="curve" smooth="yes"/>
      <point x="190" y="254"/>
      <point x="151" y="394" name="ah01"/>
      <point x="151" y="569" type="curve" smooth="yes" name="sh06"/>
      <point x="151" y="744"/>
      <point x="190" y="885"/>
      <point x="268" y="990" type="curve" smooth="yes"/>
      <point x="347" y="1095"/>
      <point x="448" y="1147"/>
      <point x="583" y="1147" type="curve" smooth="yes"/>
      <point x="652" y="1147"/>
      <point x="713" y="1133"/>
      <point x="764" y="1104" type="curve" smooth="yes"/>
      <point x="815" y="1075"/>
      <point x="855" y="1030"/>
      <point x="886" y="971" type="curve"/>
      <point x="904" y="1116" type="line"/>
      <point x="1070" y="1116" type="line"/>
      <point x="1070" y="72" type="line" smooth="yes"/>
      <point x="1070" y="-95"/>
      <point x="1030" y="-223"/>
      <point x="951" y="-310" type="curve" smooth="yes"/>
      <point x="872" y="-397"/>
      <point x="756" y="-440"/>
    </contour>
    <contour>
      <point x="622" y="145" type="curve" smooth="yes"/>
      <point x="709" y="145"/>
      <point x="774" y="181"/>
      <point x="819" y="254" type="curve" smooth="yes"/>
      <point x="864" y="327"/>
      <point x="886" y="432"/>
      <point x="886" y="569" type="curve" smooth="yes"/>
      <point x="886" y="708"/>
      <point x="864" y="813"/>
      <point x="819" y="884" type="curve" smooth="yes"/>
      <point x="772" y="960"/>
      <point x="704" y="991"/>
      <point x="621" y="991" type="curve" smooth="yes"/>
      <point x="532" y="991"/>
      <point x="463" y="955"/>
      <point x="416" y="884" type="curve" smooth="yes"/>
      <point x="369" y="813"/>
      <point x="345" y="707"/>
      <point x="345" y="568" type="curve" smooth="yes"/>
      <point x="345" y="431"/>
      <point x="369" y="327"/>
      <point x="417" y="254" type="curve" smooth="yes"/>
      <point x="465" y="181"/>
      <point x="533" y="145"/>
    </contour>
  </outline>
</glyph>
<glyph name="j" format="1">
  <advance width="1233"/>
  <unicode hex="006A"/>
  <outline>
    <contour>
      <point x="652" y="1323" type="line" smooth="yes" name="sv01"/>
      <point x="632" y="1323"/>
      <point x="622" y="1333"/>
      <point x="622" y="1353" type="curve" smooth="yes" name="at01"/>
      <point x="622" y="1526" type="line" smooth="yes"/>
      <point x="622" y="1546" name="sh01"/>
      <point x="632" y="1556"/>
      <point x="652" y="1556" type="curve" smooth="yes"/>
      <point x="796" y="1556" type="line" smooth="yes" name="sv02"/>
      <point x="816" y="1556"/>
      <point x="826" y="1546"/>
      <point x="826" y="1526" type="curve" smooth="yes"/>
      <point x="826" y="1353" type="line" smooth="yes" name="dh01"/>
      <point x="826" y="1333"/>
      <point x="816" y="1323" name="at02"/>
      <point x="796" y="1323" type="curve" smooth="yes" name="dh02"/>
    </contour>
    <contour>
      <point x="238" y="-270" type="line"/>
      <point x="472" y="-270" type="line" smooth="yes"/>
      <point x="532" y="-270" name="ab01"/>
      <point x="577" y="-249"/>
      <point x="607" y="-208" type="curve" smooth="yes"/>
      <point x="637" y="-166"/>
      <point x="652" y="-103"/>
      <point x="652" y="-20" type="curve" smooth="yes"/>
      <point x="652" y="977" type="line"/>
      <point x="335" y="977" type="line"/>
      <point x="335" y="1120" type="line"/>
      <point x="836" y="1120" type="line"/>
      <point x="836" y="-20" type="line" smooth="yes"/>
      <point x="836" y="-147"/>
      <point x="807" y="-249"/>
      <point x="747" y="-321" type="curve" smooth="yes"/>
      <point x="687" y="-393"/>
      <point x="600" y="-426"/>
      <point x="492" y="-426" type="curve" smooth="yes"/>
      <point x="238" y="-426" type="line"/>
    </contour>
  </outline>
</glyph>
<glyph name="o" format="1">
  <advance width="1233"/>
  <unicode hex="006F"/>
  <outline>
    <contour>
      <point x="616" y="-29" type="curve" smooth="yes" name="dv01"/>
      <point x="463" y="-29"/>
      <point x="343" y="21" name="sh01"/>
      <point x="260" y="121" type="curve"/>
      <point x="176" y="225" name="dv04"/>
      <point x="137" y="373"/>
      <point x="137" y="560" type="curve" smooth="yes" name="sh02"/>
      <point x="137" y="749"/>
      <point x="178" y="895"/>
      <point x="260" y="996" type="curve" smooth="yes" name="dv02"/>
      <point x="342" y="1097"/>
      <point x="461" y="1147" name="ah02"/>
      <point x="616" y="1147" type="curve" smooth="yes"/>
      <point x="776" y="1147" name="dv03"/>
      <point x="893" y="1095"/>
      <point x="973" y="996" type="curve" smooth="yes" name="sh03"/>
      <point x="1055" y="895"/>
      <point x="1096" y="750"/>
      <point x="1096" y="561" type="curve" smooth="yes" name="ah01"/>
      <point x="1096" y="370" name="sh04"/>
      <point x="1056" y="221"/>
      <point x="973" y="121" type="curve"/>
      <point x="893" y="22"/>
      <point x="773" y="-29"/>
    </contour>
    <contour>
      <point x="616" y="127" type="curve" smooth="yes"/>
      <point x="710" y="127"/>
      <point x="781" y="164"/>
      <point x="829" y="237" type="curve" smooth="yes"/>
      <point x="877" y="310"/>
      <point x="901" y="417"/>
      <point x="901" y="559" type="curve" smooth="yes"/>
      <point x="901" y="701"/>
      <point x="877" y="809"/>
      <point x="829" y="882" type="curve" smooth="yes"/>
      <point x="781" y="955"/>
      <point x="710" y="991"/>
      <point x="616" y="991" type="curve" smooth="yes"/>
      <point x="523" y="991"/>
      <point x="452" y="955"/>
      <point x="404" y="882" type="curve" smooth="yes"/>
      <point x="356" y="809"/>
      <point x="332" y="701"/>
      <point x="332" y="559" type="curve" smooth="yes"/>
      <point x="332" y="417"/>
      <point x="356" y="310"/>
      <point x="404" y="237" type="curve" smooth="yes"/>
      <point x="452" y="164"/>
      <point x="523" y="127"/>
    </contour>
  </outline>
</glyph>
<glyph name="ordfeminine" format="1">
  <advance width="1233"/>
  <unicode hex="00AA"/>
  <outline>
    <contour>
      <point x="547" y="698" type="curve" smooth="yes" name="hr00"/>
      <point x="463" y="698"/>
      <point x="396" y="721" name="sh01"/>
      <point x="345" y="766" type="curve" smooth="yes"/>
      <point x="295" y="811"/>
      <point x="270" y="872" name="ah02"/>
      <point x="270" y="949" type="curve" smooth="yes"/>
      <point x="270" y="1035"/>
      <point x="301" y="1102" name="sv01"/>
      <point x="363" y="1149" type="curve" smooth="yes"/>
      <point x="426" y="1196" name="ih01"/>
      <point x="514" y="1219"/>
      <point x="629" y="1219" type="curve" smooth="yes" name="at01"/>
      <point x="811" y="1219" type="line" name="at02"/>
      <point x="811" y="1223" type="line" smooth="yes"/>
      <point x="811" y="1282" name="sh03"/>
      <point x="794" y="1327"/>
      <point x="751" y="1359" type="curve" smooth="yes" name="sh04"/>
      <point x="704" y="1394"/>
      <point x="643" y="1405"/>
      <point x="583" y="1405" type="curve" smooth="yes"/>
      <point x="539" y="1405" name="dv02"/>
      <point x="501" y="1399"/>
      <point x="462" y="1388" type="curve" smooth="yes" name="sh05"/>
      <point x="421" y="1376" name="dv03"/>
      <point x="377" y="1359"/>
      <point x="332" y="1337" type="curve"/>
      <point x="332" y="1464" type="line" name="sh02"/>
      <point x="377" y="1483"/>
      <point x="427" y="1498"/>
      <point x="468" y="1506" type="curve" smooth="yes"/>
      <point x="513" y="1515" name="sh06"/>
      <point x="552" y="1520" name="dv01"/>
      <point x="603" y="1520" type="curve" smooth="yes"/>
      <point x="721" y="1520" name="ah01"/>
      <point x="809" y="1491" name="sh07"/>
      <point x="867" y="1434" type="curve" smooth="yes"/>
      <point x="926" y="1377"/>
      <point x="954" y="1290"/>
      <point x="954" y="1165" type="curve" smooth="yes"/>
      <point x="954" y="717" type="line"/>
      <point x="825" y="717" type="line"/>
      <point x="811" y="829" type="line"/>
      <point x="778" y="786"/>
      <point x="740" y="753"/>
      <point x="697" y="731" type="curve" smooth="yes"/>
      <point x="653" y="708"/>
      <point x="606" y="698"/>
    </contour>
    <contour>
      <point x="576" y="817" type="curve" smooth="yes"/>
      <point x="648" y="817"/>
      <point x="703" y="842"/>
      <point x="746" y="889" type="curve" smooth="yes"/>
      <point x="789" y="936"/>
      <point x="811" y="998"/>
      <point x="811" y="1075" type="curve" smooth="yes"/>
      <point x="811" y="1104" type="line"/>
      <point x="684" y="1104" type="line" smooth="yes"/>
      <point x="587" y="1104"/>
      <point x="519" y="1093"/>
      <point x="478" y="1070" type="curve" smooth="yes"/>
      <point x="437" y="1047"/>
      <point x="416" y="1009"/>
      <point x="416" y="958" type="curve" smooth="yes"/>
      <point x="416" y="910"/>
      <point x="433" y="879"/>
      <point x="460" y="856" type="curve" smooth="yes"/>
      <point x="489" y="830"/>
      <point x="527" y="817"/>
    </contour>
    <contour>
      <point x="293" y="592" type="line"/>
      <point x="961" y="592" type="line"/>
      <point x="961" y="469" type="line"/>
      <point x="293" y="469" type="line"/>
    </contour>
  </outline>
</glyph>
<glyph name="questiondown" format="1">
  <advance width="1233"/>
  <unicode hex="00BF"/>
  <outline>
    <contour>
      <point x="656" y="1252" type="curve" smooth="yes" name="sv01"/>
      <point x="615" y="1252"/>
      <point x="580" y="1266" name="dh03"/>
      <point x="552" y="1294" type="curve" smooth="yes"/>
      <point x="523" y="1323" name="at01"/>
      <point x="509" y="1362"/>
      <point x="509" y="1405" type="curve" smooth="yes" name="dh04"/>
      <point x="509" y="1448"/>
      <point x="523" y="1486"/>
      <point x="551" y="1514" type="curve" smooth="yes" name="ab01"/>
      <point x="574" y="1537"/>
      <point x="610" y="1556" name="dh01"/>
      <point x="655" y="1556" type="curve" smooth="yes"/>
      <point x="698" y="1556"/>
      <point x="732" y="1541"/>
      <point x="759" y="1514" type="curve" smooth="yes"/>
      <point x="787" y="1486" name="sh01"/>
      <point x="801" y="1450"/>
      <point x="801" y="1405" type="curve" smooth="yes" name="ih01"/>
      <point x="801" y="1360"/>
      <point x="787" y="1323"/>
      <point x="759" y="1295" type="curve" smooth="yes" name="sh02"/>
      <point x="730" y="1266"/>
      <point x="696" y="1252"/>
    </contour>
    <contour>
      <point x="602" y="-27" type="curve" smooth="yes"/>
      <point x="477" y="-27"/>
      <point x="377" y="5" name="dh02"/>
      <point x="304" y="68" type="curve" smooth="yes"/>
      <point x="232" y="131" name="sv02"/>
      <point x="193" y="219"/>
      <point x="193" y="324" type="curve" smooth="yes" name="iv01"/>
      <point x="193" y="380"/>
      <point x="204" y="424"/>
      <point x="227" y="468" type="curve" smooth="yes"/>
      <point x="250" y="512"/>
      <point x="289" y="561"/>
      <point x="354" y="625" type="curve" smooth="yes"/>
      <point x="442" y="711" type="line" smooth="yes"/>
      <point x="482" y="750"/>
      <point x="513" y="784"/>
      <point x="528" y="817" type="curve" smooth="yes"/>
      <point x="541" y="844"/>
      <point x="547" y="879"/>
      <point x="547" y="922" type="curve" smooth="yes"/>
      <point x="547" y="927" type="line"/>
      <point x="548" y="942"/>
      <point x="549" y="956"/>
      <point x="549" y="969" type="curve" smooth="yes"/>
      <point x="549" y="1092" type="line"/>
      <point x="739" y="1092" type="line"/>
      <point x="739" y="938" type="line" smooth="yes"/>
      <point x="739" y="872"/>
      <point x="729" y="817"/>
      <point x="709" y="772" type="curve" smooth="yes"/>
      <point x="689" y="727"/>
      <point x="651" y="676"/>
      <point x="594" y="621" type="curve" smooth="yes"/>
      <point x="504" y="532" type="line" smooth="yes"/>
      <point x="477" y="505"/>
      <point x="437" y="465"/>
      <point x="418" y="429" type="curve" smooth="yes"/>
      <point x="401" y="397"/>
      <point x="395" y="359"/>
      <point x="395" y="332" type="curve" smooth="yes"/>
      <point x="395" y="275"/>
      <point x="421" y="224"/>
      <point x="460" y="192" type="curve" smooth="yes"/>
      <point x="504" y="155"/>
      <point x="565" y="137"/>
      <point x="633" y="137" type="curve" smooth="yes"/>
      <point x="689" y="137"/>
      <point x="742" y="149"/>
      <point x="802" y="172" type="curve" smooth="yes"/>
      <point x="863" y="195"/>
      <point x="925" y="229"/>
      <point x="989" y="274" type="curve"/>
      <point x="989" y="86" type="line"/>
      <point x="922" y="46"/>
      <point x="857" y="18"/>
      <point x="800" y="1" type="curve" smooth="yes"/>
      <point x="736" y="-18"/>
      <point x="667" y="-27"/>
    </contour>
  </outline>
</glyph>
<glyph name="Eth" format="1">
  <advance width="1233"/>
  <unicode hex="00D0"/>
  <outline>
    <contour>
      <point x="133" y="709" type="line" name="sh01"/>
      <point x="8" y="709" type="line"/>
      <point x="8" y="858" type="line"/>
      <point x="133" y="858" type="line" name="sh02"/>
      <point x="133" y="1493" type="line" name="at01"/>
      <point x="436" y="1493" type="line" smooth="yes"/>
      <point x="664" y="1493"/>
      <point x="832" y="1432" name="sh03"/>
      <point x="940" y="1311" type="curve" smooth="yes"/>
      <point x="1048" y="1190" name="ab01"/>
      <point x="1102" y="1001"/>
      <point x="1102" y="746" type="curve" smooth="yes" name="sv01"/>
      <point x="1102" y="491"/>
      <point x="1048" y="303" name="ah02"/>
      <point x="940" y="182" type="curve" smooth="yes"/>
      <point x="829" y="58" name="sv02"/>
      <point x="660" y="0" name="sh05"/>
      <point x="436" y="0" type="curve" smooth="yes" name="sv03"/>
      <point x="133" y="0" type="line"/>
    </contour>
    <contour>
      <point x="436" y="166" type="line" smooth="yes" name="sv04"/>
      <point x="620" y="166" name="sh04"/>
      <point x="725" y="211"/>
      <point x="791" y="293" type="curve" smooth="yes" name="ah01"/>
      <point x="860" y="380" name="sh06"/>
      <point x="893" y="521"/>
      <point x="893" y="748" type="curve" smooth="yes"/>
      <point x="893" y="982"/>
      <point x="858" y="1115"/>
      <point x="792" y="1200" type="curve"/>
      <point x="721" y="1289"/>
      <point x="609" y="1327"/>
      <point x="436" y="1327" type="curve" smooth="yes"/>
      <point x="340" y="1327" type="line"/>
      <point x="340" y="858" type="line"/>
      <point x="604" y="858" type="line"/>
      <point x="604" y="709" type="line"/>
      <point x="340" y="709" type="line"/>
      <point x="340" y="166" type="line"/>
    </contour>
  </outline>
</glyph>
<glyph name="Ugrave" format="1">
  <advance width="1233"/>
  <unicode hex="00D9"/>
  <outline>
    <contour>
      <point x="377" y="1852" type="line" name="ih01"/>
      <point x="561" y="1852" type="line"/>
      <point x="758" y="1588" type="line" name="ih02"/>
      <point x="604" y="1588" type="line"/>
    </contour>
    <contour>
      <point x="616" y="-29" type="curve" smooth="yes" name="dv01"/>
      <point x="544" y="-29"/>
      <point x="483" y="-19"/>
      <point x="427" y="0" type="curve"/>
      <point x="375" y="19" name="sh01"/>
      <point x="316" y="49" name="at01"/>
      <point x="273" y="88" type="curve" smooth="yes"/>
      <point x="232" y="125" name="sh03"/>
      <point x="200" y="173" name="sh04"/>
      <point x="177" y="249" type="curve" smooth="yes"/>
      <point x="156" y="316"/>
      <point x="147" y="409" name="dv02"/>
      <point x="147" y="573" type="curve" smooth="yes"/>
      <point x="147" y="1493" type="line"/>
      <point x="350" y="1493" type="line" name="sh05"/>
      <point x="350" y="481" type="line" smooth="yes" name="ah02"/>
      <point x="350" y="408" name="at02"/>
      <point x="352" y="357"/>
      <point x="356" y="326" type="curve" smooth="yes" name="sh02"/>
      <point x="360" y="295"/>
      <point x="367" y="271"/>
      <point x="377" y="254" type="curve" smooth="yes"/>
      <point x="398" y="215"/>
      <point x="429" y="185" name="ah01"/>
      <point x="470" y="165" type="curve" smooth="yes" name="sh06"/>
      <point x="510" y="145"/>
      <point x="559" y="135"/>
      <point x="616" y="135" type="curve" smooth="yes"/>
      <point x="674" y="135"/>
      <point x="723" y="145"/>
      <point x="763" y="165" type="curve" smooth="yes"/>
      <point x="804" y="186"/>
      <point x="835" y="215"/>
      <point x="856" y="254" type="curve" smooth="yes"/>
      <point x="867" y="274"/>
      <point x="873" y="293"/>
      <point x="877" y="325" type="curve" smooth="yes"/>
      <point x="881" y="356"/>
      <point x="883" y="407"/>
      <point x="883" y="479" type="curve" smooth="yes"/>
      <point x="883" y="1493" type="line"/>
      <point x="1085" y="1493" type="line"/>
      <point x="1085" y="573" type="line" smooth="yes"/>
      <point x="1085" y="397"/>
      <point x="1073" y="309"/>
      <point x="1057" y="249" type="curve" smooth="yes"/>
      <point x="1038" y="182"/>
      <point x="1004" y="129"/>
      <point x="959" y="88" type="curve" smooth="yes"/>
      <point x="915" y="48"/>
      <point x="858" y="19"/>
      <point x="806" y="0" type="curve" smooth="yes"/>
      <point x="757" y="-17"/>
      <point x="695" y="-29"/>
    </contour>
  </outline>
</glyph>
<glyph name="aring" format="1">
  <advance width="1233"/>
  <unicode hex="00E5"/>
  <outline>
    <contour>
      <point x="619" y="1249" type="curve" smooth="yes" name="dv05"/>
      <point x="543" y="1249"/>
      <point x="478" y="1276" name="dh05"/>
      <point x="425" y="1329" type="curve" smooth="yes"/>
      <point x="372" y="1382" name="dv04"/>
      <point x="345" y="1447"/>
      <point x="345" y="1524" type="curve" smooth="yes" name="ih01"/>
      <point x="345" y="1601"/>
      <point x="372" y="1666"/>
      <point x="425" y="1719" type="curve" smooth="yes" name="dv06"/>
      <point x="478" y="1772"/>
      <point x="542" y="1798" name="sh01"/>
      <point x="619" y="1798" type="curve" smooth="yes"/>
      <point x="697" y="1798" name="dv03"/>
      <point x="762" y="1772"/>
      <point x="815" y="1719" type="curve" smooth="yes" name="dh06"/>
      <point x="868" y="1666"/>
      <point x="894" y="1601"/>
      <point x="894" y="1524" type="curve" smooth="yes" name="dv01"/>
      <point x="894" y="1447"/>
      <point x="868" y="1382" name="dh01"/>
      <point x="815" y="1329" type="curve" smooth="yes"/>
      <point x="762" y="1276"/>
      <point x="696" y="1249" name="dh03"/>
    </contour>
    <contour>
      <point x="619" y="1372" type="curve" smooth="yes"/>
      <point x="662" y="1372"/>
      <point x="698" y="1387" name="dv08"/>
      <point x="727" y="1416" type="curve" smooth="yes"/>
      <point x="756" y="1445" name="ih02"/>
      <point x="771" y="1481"/>
      <point x="771" y="1524" type="curve" smooth="yes"/>
      <point x="771" y="1566" name="dv09"/>
      <point x="756" y="1602"/>
      <point x="727" y="1631" type="curve" smooth="yes"/>
      <point x="698" y="1660"/>
      <point x="661" y="1675" name="dh04"/>
      <point x="618" y="1675" type="curve" smooth="yes"/>
      <point x="576" y="1675" name="sh02"/>
      <point x="541" y="1661"/>
      <point x="512" y="1632" type="curve" smooth="yes" name="ab01"/>
      <point x="483" y="1603"/>
      <point x="468" y="1567"/>
      <point x="468" y="1524" type="curve" smooth="yes" name="sh03"/>
      <point x="468" y="1481"/>
      <point x="483" y="1445"/>
      <point x="512" y="1416" type="curve" smooth="yes" name="dv02"/>
      <point x="541" y="1387"/>
      <point x="577" y="1372" name="sh04"/>
    </contour>
    <contour>
      <point x="513" y="-29" type="curve" smooth="yes" name="dv07"/>
      <point x="397" y="-29"/>
      <point x="305" y="3"/>
      <point x="238" y="68" type="curve" smooth="yes" name="dh02"/>
      <point x="174" y="129"/>
      <point x="136" y="210"/>
      <point x="136" y="327" type="curve" smooth="yes"/>
      <point x="136" y="450" name="sh05"/>
      <point x="178" y="545"/>
      <point x="262" y="610" type="curve" smooth="yes"/>
      <point x="345" y="675"/>
      <point x="467" y="707"/>
      <point x="630" y="707" type="curve" smooth="yes"/>
      <point x="877" y="707" type="line"/>
      <point x="877" y="736" type="line" smooth="yes"/>
      <point x="877" y="821"/>
      <point x="854" y="890"/>
      <point x="809" y="931" type="curve" smooth="yes"/>
      <point x="765" y="971"/>
      <point x="692" y="991"/>
      <point x="596" y="991" type="curve" smooth="yes"/>
      <point x="533" y="991"/>
      <point x="469" y="982"/>
      <point x="405" y="964" type="curve" smooth="yes"/>
      <point x="340" y="946"/>
      <point x="278" y="920"/>
      <point x="218" y="885" type="curve"/>
      <point x="218" y="1069" type="line"/>
      <point x="274" y="1090"/>
      <point x="345" y="1113"/>
      <point x="414" y="1128" type="curve" smooth="yes"/>
      <point x="475" y="1141"/>
      <point x="536" y="1147"/>
      <point x="597" y="1147" type="curve" smooth="yes"/>
      <point x="692" y="1147"/>
      <point x="767" y="1133"/>
      <point x="834" y="1105" type="curve"/>
      <point x="895" y="1078"/>
      <point x="953" y="1037"/>
      <point x="992" y="984" type="curve" smooth="yes"/>
      <point x="1020" y="945"/>
      <point x="1037" y="901"/>
      <point x="1046" y="860" type="curve" smooth="yes"/>
      <point x="1057" y="811"/>
      <point x="1062" y="738"/>
      <point x="1062" y="639" type="curve" smooth="yes"/>
      <point x="1062" y="410" type="line"/>
      <point x="1065" y="333"/>
      <point x="1064" y="277"/>
      <point x="1071" y="226" type="curve" smooth="yes"/>
      <point x="1078" y="170"/>
      <point x="1087" y="116"/>
      <point x="1094" y="91" type="curve"/>
      <point x="1103" y="50"/>
      <point x="1118" y="7"/>
      <point x="1121" y="0" type="curve"/>
      <point x="936" y="0" type="line"/>
      <point x="929" y="16"/>
      <point x="918" y="50"/>
      <point x="909" y="87" type="curve" smooth="yes"/>
      <point x="902" y="116"/>
      <point x="896" y="149"/>
      <point x="893" y="170" type="curve"/>
      <point x="854" y="103"/>
      <point x="788" y="50"/>
      <point x="729" y="19" type="curve" smooth="yes"/>
      <point x="665" y="-14"/>
      <point x="594" y="-29"/>
    </contour>
    <contour>
      <point x="551" y="125" type="curve" smooth="yes"/>
      <point x="652" y="125"/>
      <point x="731" y="160"/>
      <point x="789" y="231" type="curve" smooth="yes"/>
      <point x="848" y="303"/>
      <point x="877" y="400"/>
      <point x="877" y="522" type="curve" smooth="yes"/>
      <point x="877" y="563" type="line"/>
      <point x="644" y="563" type="line" smooth="yes"/>
      <point x="537" y="563"/>
      <point x="457" y="544"/>
      <point x="402" y="507" type="curve" smooth="yes"/>
      <point x="345" y="468"/>
      <point x="320" y="412"/>
      <point x="320" y="337" type="curve" smooth="yes"/>
      <point x="320" y="268"/>
      <point x="342" y="217"/>
      <point x="381" y="181" type="curve" smooth="yes"/>
      <point x="420" y="146"/>
      <point x="474" y="125"/>
    </contour>
  </outline>
</glyph>
<glyph name="egrave" format="1">
  <advance width="1233"/>
  <unicode hex="00E8"/>
  <outline>
    <contour>
      <point x="294" y="1673" type="line" name="ih01"/>
      <point x="492" y="1673" type="line"/>
      <point x="773" y="1297" type="line" name="ih02"/>
      <point x="619" y="1297" type="line"/>
    </contour>
    <contour>
      <point x="677" y="-29" type="curve" smooth="yes" name="dv01"/>
      <point x="505" y="-29"/>
      <point x="367" y="24" name="sh01"/>
      <point x="271" y="127" type="curve" smooth="yes"/>
      <point x="175" y="230" name="dv04"/>
      <point x="124" y="375"/>
      <point x="124" y="558" type="curve" smooth="yes" name="sh03"/>
      <point x="124" y="746"/>
      <point x="178" y="887" name="sh02"/>
      <point x="267" y="987" type="curve" smooth="yes"/>
      <point x="364" y="1095"/>
      <point x="498" y="1147" name="dv02"/>
      <point x="649" y="1147" type="curve" smooth="yes"/>
      <point x="798" y="1147" name="ih03"/>
      <point x="910" y="1096"/>
      <point x="990" y="1003" type="curve" smooth="yes"/>
      <point x="1070" y="910"/>
      <point x="1113" y="777" name="ah02"/>
      <point x="1113" y="606" type="curve" smooth="yes"/>
      <point x="1113" y="516" type="line" name="dv03"/>
      <point x="316" y="516" type="line"/>
      <point x="316" y="510" type="line" smooth="yes" name="sh04"/>
      <point x="316" y="388" name="ah01"/>
      <point x="348" y="294" name="sh05"/>
      <point x="412" y="227" type="curve" smooth="yes"/>
      <point x="473" y="163"/>
      <point x="559" y="127"/>
      <point x="680" y="127" type="curve" smooth="yes"/>
      <point x="741" y="127"/>
      <point x="802" y="136"/>
      <point x="865" y="155" type="curve" smooth="yes"/>
      <point x="930" y="174"/>
      <point x="998" y="203"/>
      <point x="1070" y="240" type="curve"/>
      <point x="1070" y="57" type="line"/>
      <point x="999" y="28"/>
      <point x="923" y="4"/>
      <point x="868" y="-8" type="curve" smooth="yes"/>
      <point x="804" y="-23"/>
      <point x="740" y="-29"/>
    </contour>
    <contour>
      <point x="929" y="660" type="line"/>
      <point x="926" y="775"/>
      <point x="897" y="856"/>
      <point x="853" y="907" type="curve" smooth="yes"/>
      <point x="805" y="963"/>
      <point x="733" y="991"/>
      <point x="645" y="991" type="curve" smooth="yes"/>
      <point x="555" y="991"/>
      <point x="482" y="962"/>
      <point x="425" y="903" type="curve" smooth="yes"/>
      <point x="368" y="844"/>
      <point x="334" y="762"/>
      <point x="323" y="659" type="curve"/>
    </contour>
  </outline>
</glyph>
<glyph name="Cdotaccent" format="1">
  <advance width="1233"/>
  <unicode hex="010A"/>
  <outline>
    <contour>
      <point x="618" y="1647" type="line" smooth="yes" name="dv03"/>
      <point x="598" y="1647" name="ah02"/>
      <point x="588" y="1657"/>
      <point x="588" y="1677" type="curve" smooth="yes" name="dv04"/>
      <point x="588" y="1822" type="line" smooth="yes"/>
      <point x="588" y="1842"/>
      <point x="598" y="1852" name="sh01"/>
      <point x="618" y="1852" type="curve" smooth="yes"/>
      <point x="763" y="1852" type="line" smooth="yes" name="dv01"/>
      <point x="783" y="1852" name="sh02"/>
      <point x="793" y="1842" name="at01"/>
      <point x="793" y="1822" type="curve" smooth="yes"/>
      <point x="793" y="1677" type="line" smooth="yes"/>
      <point x="793" y="1657" name="sv01"/>
      <point x="783" y="1647" name="sh03"/>
      <point x="763" y="1647" type="curve" smooth="yes" name="dv02"/>
    </contour>
    <contour>
      <point x="744" y="-29" type="curve" smooth="yes"/>
      <point x="360" y="-29"/>
      <point x="139" y="255"/>
      <point x="139" y="743" type="curve" smooth="yes" name="ah01"/>
      <point x="139" y="1233"/>
      <point x="361" y="1520"/>
      <point x="745" y="1520" type="curve" smooth="yes"/>
      <point x="864" y="1520"/>
      <point x="969" y="1494"/>
      <point x="1073" y="1438" type="curve"/>
      <point x="1073" y="1231" type="line"/>
      <point x="976" y="1311"/>
      <point x="864" y="1356"/>
      <point x="740" y="1356" type="curve" smooth="yes"/>
      <point x="481" y="1356"/>
      <point x="350" y="1154"/>
      <point x="350" y="745" type="curve" smooth="yes"/>
      <point x="350" y="338"/>
      <point x="480" y="135"/>
      <point x="740" y="135" type="curve" smooth="yes"/>
      <point x="861" y="135"/>
      <point x="976" y="179"/>
      <point x="1073" y="260" type="curve"/>
      <point x="1073" y="53" type="line"/>
      <point x="969" y="-3"/>
      <point x="864" y="-29"/>
    </contour>
  </outline>
</glyph>
<glyph name="edotaccent" format="1">
  <advance width="1233"/>
  <unicode hex="0117"/>
  <outline>
    <contour>
      <point x="558" y="1348" type="line" smooth="yes" name="dv03"/>
      <point x="538" y="1348" name="dh03"/>
      <point x="528" y="1358"/>
      <point x="528" y="1378" type="curve" smooth="yes" name="dv04"/>
      <point x="528" y="1522" type="line" smooth="yes"/>
      <point x="528" y="1542"/>
      <point x="538" y="1552" name="dh04"/>
      <point x="558" y="1552" type="curve" smooth="yes"/>
      <point x="703" y="1552" type="line" smooth="yes" name="dv01"/>
      <point x="723" y="1552" name="dh01"/>
      <point x="733" y="1542" name="dv06"/>
      <point x="733" y="1522" type="curve" smooth="yes" name="dh06"/>
      <point x="733" y="1378" type="line" smooth="yes"/>
      <point x="733" y="1358" name="dh02"/>
      <point x="723" y="1348"/>
      <point x="703" y="1348" type="curve" smooth="yes" name="dv02"/>
    </contour>
    <contour>
      <point x="677" y="-29" type="curve" smooth="yes" name="ih01"/>
      <point x="330" y="-29"/>
      <point x="124" y="195"/>
      <point x="124" y="555" type="curve" smooth="yes" name="dh05"/>
      <point x="124" y="916" name="dv05"/>
      <point x="333" y="1147" name="sh01"/>
      <point x="645" y="1147" type="curve" smooth="yes"/>
      <point x="941" y="1147" name="sh02"/>
      <point x="1113" y="941"/>
      <point x="1113" y="606" type="curve" smooth="yes"/>
      <point x="1113" y="516" type="line"/>
      <point x="316" y="516" type="line"/>
      <point x="316" y="510" type="line" smooth="yes"/>
      <point x="316" y="266"/>
      <point x="450" y="127"/>
      <point x="680" y="127" type="curve" smooth="yes"/>
      <point x="800" y="127"/>
      <point x="925" y="164"/>
      <point x="1070" y="240" type="curve"/>
      <point x="1070" y="57" type="line"/>
      <point x="929" y="0"/>
      <point x="802" y="-29"/>
    </contour>
    <contour>
      <point x="929" y="660" type="line"/>
      <point x="925" y="869"/>
      <point x="828" y="991"/>
      <point x="647" y="991" type="curve" smooth="yes"/>
      <point x="466" y="991"/>
      <point x="346" y="871"/>
      <point x="323" y="659" type="curve"/>
    </contour>
  </outline>
</glyph>
<glyph name="eogonek" format="1">
  <advance width="1233"/>
  <unicode hex="0119"/>
  <outline>
    <contour>
      <point x="316" y="516" type="line" name="dh02"/>
      <point x="316" y="510" type="line" smooth="yes"/>
      <point x="316" y="266" name="dv06"/>
      <point x="450" y="127" name="ih01"/>
      <point x="680" y="127" type="curve" smooth="yes"/>
      <point x="800" y="127"/>
      <point x="925" y="164" name="dh04"/>
      <point x="1070" y="240" type="curve" name="dv02"/>
      <point x="1070" y="57" type="line" name="sh01"/>
      <point x="1009" y="32"/>
      <point x="950" y="14" name="dv01"/>
      <point x="893" y="-1" type="curve" name="dh03"/>
      <point x="830" y="-88" name="ih02"/>
      <point x="806" y="-139" name="dv05"/>
      <point x="806" y="-184" type="curve" smooth="yes" name="dh01"/>
      <point x="806" y="-240" name="dv04"/>
      <point x="844" y="-272" name="dh06"/>
      <point x="916" y="-272" type="curve" smooth="yes"/>
      <point x="957" y="-272" name="dv03"/>
      <point x="999" y="-262" name="sh02"/>
      <point x="1040" y="-242" type="curve" name="dh05"/>
      <point x="1040" y="-375" type="line"/>
      <point x="984" y="-390"/>
      <point x="946" y="-395" name="sh03"/>
      <point x="897" y="-395" type="curve" smooth="yes"/>
      <point x="748" y="-395"/>
      <point x="667" y="-340"/>
      <point x="667" y="-221" type="curve" smooth="yes"/>
      <point x="667" y="-162"/>
      <point x="688" y="-104"/>
      <point x="754" y="-25" type="curve"/>
      <point x="727" y="-28"/>
      <point x="702" y="-29"/>
      <point x="677" y="-29" type="curve" smooth="yes"/>
      <point x="330" y="-29"/>
      <point x="124" y="195"/>
      <point x="124" y="555" type="curve" smooth="yes"/>
      <point x="124" y="916"/>
      <point x="333" y="1147"/>
      <point x="645" y="1147" type="curve" smooth="yes"/>
      <point x="941" y="1147"/>
      <point x="1113" y="941"/>
      <point x="1113" y="606" type="curve" smooth="yes"/>
      <point x="1113" y="516" type="line"/>
    </contour>
    <contour>
      <point x="647" y="991" type="curve" smooth="yes"/>
      <point x="466" y="991"/>
      <point x="346" y="871"/>
      <point x="323" y="659" type="curve"/>
      <point x="929" y="660" type="line"/>
      <point x="925" y="869"/>
      <point x="828" y="991"/>
    </contour>
  </outline>
</glyph>
<glyph name="itilde" format="1">
  <advance width="1233"/>
  <unicode hex="0129"/>
  <outline>
    <contour>
      <point x="268" y="1259" type="line" name="sh01"/>
      <point x="268" y="1433" name="dv02"/>
      <point x="338" y="1541"/>
      <point x="463" y="1541" type="curve" smooth="yes"/>
      <point x="514" y="1541"/>
      <point x="553" y="1524"/>
      <point x="602" y="1480" type="curve" name="sv01"/>
      <point x="659" y="1425" type="line" smooth="yes"/>
      <point x="691" y="1394" name="sv02"/>
      <point x="710" y="1386"/>
      <point x="729" y="1386" type="curve" smooth="yes"/>
      <point x="752" y="1386"/>
      <point x="771" y="1398"/>
      <point x="783" y="1423" type="curve" smooth="yes" name="dv01"/>
      <point x="794" y="1447" name="ab01"/>
      <point x="801" y="1486"/>
      <point x="802" y="1541" type="curve" name="sh02"/>
      <point x="927" y="1541" type="line" name="sv03"/>
      <point x="927" y="1367"/>
      <point x="857" y="1259" name="dh01"/>
      <point x="732" y="1259" type="curve" smooth="yes" name="dh02"/>
      <point x="681" y="1259"/>
      <point x="642" y="1276"/>
      <point x="593" y="1320" type="curve" name="sv04"/>
      <point x="536" y="1375" type="line" smooth="yes"/>
      <point x="508" y="1402"/>
      <point x="489" y="1414"/>
      <point x="466" y="1414" type="curve" smooth="yes"/>
      <point x="443" y="1414"/>
      <point x="424" y="1402"/>
      <point x="412" y="1377" type="curve" smooth="yes"/>
      <point x="399" y="1351"/>
      <point x="393" y="1312"/>
      <point x="392" y="1259" type="curve"/>
    </contour>
    <contour>
      <point x="859" y="-8" type="line" smooth="yes"/>
      <point x="752" y="-8"/>
      <point x="668" y="23"/>
      <point x="604" y="98" type="curve" smooth="yes"/>
      <point x="543" y="169"/>
      <point x="513" y="269"/>
      <point x="513" y="398" type="curve" smooth="yes"/>
      <point x="513" y="976" type="line"/>
      <point x="268" y="976" type="line"/>
      <point x="268" y="1120" type="line"/>
      <point x="697" y="1120" type="line"/>
      <point x="697" y="398" type="line" smooth="yes"/>
      <point x="697" y="315"/>
      <point x="712" y="252"/>
      <point x="743" y="211" type="curve" smooth="yes"/>
      <point x="775" y="167"/>
      <point x="820" y="148"/>
      <point x="877" y="148" type="curve" smooth="yes"/>
      <point x="1092" y="148" type="line"/>
      <point x="1092" y="-8" type="line"/>
    </contour>
  </outline>
</glyph>
<glyph name="IJ" format="1">
  <advance width="1233"/>
  <unicode hex="0132"/>
  <outline>
    <contour>
      <point x="135" y="203" type="line" name="hr00"/>
      <point x="693" y="203" type="line" smooth="yes"/>
      <point x="730" y="203"/>
      <point x="764" y="212"/>
      <point x="795" y="231" type="curve"/>
      <point x="858" y="267"/>
      <point x="896" y="334"/>
      <point x="896" y="406" type="curve"/>
      <point x="895" y="1323" type="line"/>
      <point x="575" y="1323" type="line"/>
      <point x="575" y="1493" type="line"/>
      <point x="1098" y="1494" type="line"/>
      <point x="1099" y="406" type="line"/>
      <point x="1099" y="333"/>
      <point x="1081" y="265"/>
      <point x="1045" y="203" type="curve" smooth="yes"/>
      <point x="1008" y="140"/>
      <point x="959" y="91"/>
      <point x="896" y="54" type="curve" smooth="yes"/>
      <point x="834" y="18"/>
      <point x="766" y="0"/>
      <point x="693" y="0" type="curve" smooth="yes"/>
      <point x="135" y="0" type="line"/>
    </contour>
    <contour>
      <point x="135" y="1493" type="line"/>
      <point x="338" y="1493" type="line"/>
      <point x="338" y="406" type="line"/>
      <point x="135" y="406" type="line"/>
    </contour>
  </outline>
</glyph>
<glyph name="uni0145" format="1">
  <advance width="1233"/>
  <unicode hex="0145"/>
  <outline>
    <contour>
      <point x="139" y="1493" type="line" name="sh01"/>
      <point x="395" y="1493" type="line"/>
      <point x="899" y="264" type="line" name="ah01"/>
      <point x="899" y="1493" type="line" name="at01"/>
      <point x="1094" y="1493" type="line"/>
      <point x="1094" y="0" type="line" name="sh02"/>
      <point x="838" y="0" type="line"/>
      <point x="334" y="1229" type="line" name="sh03"/>
      <point x="334" y="0" type="line" name="ab01"/>
      <point x="139" y="0" type="line"/>
    </contour>
    <contour>
      <point x="544" y="-199" type="line" name="dv02"/>
      <point x="783" y="-199" type="line" name="ih01"/>
      <point x="596" y="-544" type="line" name="dv01"/>
      <point x="450" y="-544" type="line" name="ih02"/>
    </contour>
  </outline>
</glyph>
<glyph name="Omacron" format="1">
  <advance width="1233"/>
  <unicode hex="014C"/>
  <outline>
    <contour>
      <point x="317" y="1800" type="line" name="sh03"/>
      <point x="915" y="1800" type="line" name="sh04"/>
      <point x="915" y="1652" type="line" name="dv03"/>
      <point x="317" y="1652" type="line"/>
    </contour>
    <contour>
      <point x="615" y="-29" type="curve" smooth="yes" name="dv01"/>
      <point x="280" y="-29" name="sh01"/>
      <point x="117" y="221" name="at01"/>
      <point x="117" y="744" type="curve" smooth="yes" name="sh05"/>
      <point x="117" y="1267"/>
      <point x="280" y="1520" name="dv02"/>
      <point x="616" y="1520" type="curve" smooth="yes"/>
      <point x="953" y="1520" name="ah02"/>
      <point x="1116" y="1266"/>
      <point x="1116" y="745" type="curve" smooth="yes" name="sv01"/>
      <point x="1116" y="225"/>
      <point x="952" y="-29" name="sh02"/>
    </contour>
    <contour>
      <point x="616" y="135" type="curve" smooth="yes"/>
      <point x="719" y="135"/>
      <point x="793" y="182" name="ah01"/>
      <point x="838" y="276" type="curve" smooth="yes" name="sh06"/>
      <point x="883" y="368"/>
      <point x="905" y="524"/>
      <point x="905" y="745" type="curve" smooth="yes"/>
      <point x="905" y="965"/>
      <point x="883" y="1122"/>
      <point x="838" y="1215" type="curve" smooth="yes"/>
      <point x="793" y="1309"/>
      <point x="719" y="1356"/>
      <point x="616" y="1356" type="curve" smooth="yes"/>
      <point x="514" y="1356"/>
      <point x="441" y="1309"/>
      <point x="396" y="1215" type="curve" smooth="yes"/>
      <point x="351" y="1120"/>
      <point x="328" y="964"/>
      <point x="328" y="745" type="curve" smooth="yes"/>
      <point x="328" y="527"/>
      <point x="351" y="371"/>
      <point x="396" y="276" type="curve" smooth="yes"/>
      <point x="441" y="182"/>
      <point x="514" y="135"/>
    </contour>
  </outline>
</glyph>
<glyph name="omacron" format="1">
  <advance width="1233"/>
  <unicode hex="014D"/>
  <outline>
    <contour>
      <point x="317" y="1495" type="line" name="at01"/>
      <point x="915" y="1495" type="line" name="sh01"/>
      <point x="915" y="1347" type="line" name="sv01"/>
      <point x="317" y="1347" type="line"/>
    </contour>
    <contour>
      <point x="616" y="-29" type="curve" smooth="yes" name="dv01"/>
      <point x="303" y="-29" name="sh02"/>
      <point x="137" y="174" name="dv04"/>
      <point x="137" y="558" type="curve" smooth="yes" name="sh03"/>
      <point x="137" y="939"/>
      <point x="305" y="1147" name="dv02"/>
      <point x="616" y="1147" type="curve" smooth="yes" name="ah02"/>
      <point x="927" y="1147" name="dv03"/>
      <point x="1096" y="939" name="sh04"/>
      <point x="1096" y="558" type="curve" smooth="yes"/>
      <point x="1096" y="177" name="ah01"/>
      <point x="928" y="-29" name="sh05"/>
    </contour>
    <contour>
      <point x="616" y="127" type="curve" smooth="yes"/>
      <point x="805" y="127"/>
      <point x="901" y="274"/>
      <point x="901" y="559" type="curve" smooth="yes"/>
      <point x="901" y="846"/>
      <point x="805" y="991"/>
      <point x="616" y="991" type="curve" smooth="yes"/>
      <point x="428" y="991"/>
      <point x="332" y="846"/>
      <point x="332" y="559" type="curve" smooth="yes"/>
      <point x="332" y="274"/>
      <point x="428" y="127"/>
    </contour>
  </outline>
</glyph>
<glyph name="uni0156" format="1">
  <advance width="1233"/>
  <unicode hex="0156"/>
  <outline>
    <contour>
      <point x="143" y="1493" type="line" name="sh01"/>
      <point x="559" y="1493" type="line" smooth="yes"/>
      <point x="886" y="1493" name="sh02"/>
      <point x="1067" y="1337" name="ih01"/>
      <point x="1067" y="1069" type="curve" smooth="yes"/>
      <point x="1067" y="856" name="ab01"/>
      <point x="953" y="734"/>
      <point x="760" y="705" type="curve"/>
      <point x="869" y="675" name="dv03"/>
      <point x="920" y="626" name="sh04"/>
      <point x="1030" y="408" type="curve" name="ab02"/>
      <point x="1233" y="0" type="line"/>
      <point x="1016" y="0" type="line" name="dv04"/>
      <point x="838" y="377" type="line" smooth="yes" name="ah02"/>
      <point x="734" y="596" name="sv01"/>
      <point x="667" y="631" name="sh03"/>
      <point x="539" y="631" type="curve" smooth="yes"/>
      <point x="346" y="631" type="line" name="dv02"/>
      <point x="346" y="0" type="line" name="sh05"/>
      <point x="143" y="0" type="line" name="dv01"/>
    </contour>
    <contour>
      <point x="567" y="797" type="line" smooth="yes" name="ih02"/>
      <point x="758" y="797" name="ah01"/>
      <point x="854" y="883" name="sh06"/>
      <point x="854" y="1056" type="curve" smooth="yes"/>
      <point x="854" y="1237"/>
      <point x="751" y="1327"/>
      <point x="559" y="1327" type="curve" smooth="yes"/>
      <point x="346" y="1327" type="line"/>
      <point x="346" y="797" type="line"/>
    </contour>
    <contour>
      <point x="616" y="-199" type="line"/>
      <point x="855" y="-199" type="line"/>
      <point x="668" y="-544" type="line"/>
      <point x="522" y="-544" type="line"/>
    </contour>
  </outline>
</glyph>
<glyph name="Rcaron" format="1">
  <advance width="1233"/>
  <unicode hex="0158"/>
  <outline>
    <contour>
      <point x="257" y="1852" type="line" name="ih01"/>
      <point x="397" y="1852" type="line"/>
      <point x="562" y="1674" type="line"/>
      <point x="728" y="1852" type="line" name="av01"/>
      <point x="868" y="1852" type="line" name="sh03"/>
      <point x="657" y="1586" type="line"/>
      <point x="468" y="1586" type="line"/>
    </contour>
    <contour>
      <point x="143" y="1493" type="line" name="sh01"/>
      <point x="559" y="1493" type="line" smooth="yes"/>
      <point x="886" y="1493" name="sh04"/>
      <point x="1067" y="1337" name="ih02"/>
      <point x="1067" y="1069" type="curve" smooth="yes"/>
      <point x="1067" y="856" name="ab01"/>
      <point x="953" y="734"/>
      <point x="760" y="705" type="curve"/>
      <point x="869" y="675" name="dv01"/>
      <point x="920" y="626" name="sh05"/>
      <point x="1030" y="408" type="curve" name="ab02"/>
      <point x="1233" y="0" type="line"/>
      <point x="1016" y="0" type="line" name="dv02"/>
      <point x="838" y="377" type="line" smooth="yes" name="ah02"/>
      <point x="734" y="596" name="sv01"/>
      <point x="667" y="631" name="sh02"/>
      <point x="539" y="631" type="curve" smooth="yes"/>
      <point x="346" y="631" type="line" name="ah01"/>
      <point x="346" y="0" type="line" name="sh06"/>
      <point x="143" y="0" type="line"/>
    </contour>
    <contour>
      <point x="567" y="797" type="line" smooth="yes"/>
      <point x="758" y="797"/>
      <point x="854" y="883"/>
      <point x="854" y="1056" type="curve" smooth="yes"/>
      <point x="854" y="1237"/>
      <point x="751" y="1327"/>
      <point x="559" y="1327" type="curve" smooth="yes"/>
      <point x="346" y="1327" type="line"/>
      <point x="346" y="797" type="line"/>
    </contour>
  </outline>
</glyph>
<glyph name="Scaron" format="1">
  <advance width="1233"/>
  <unicode hex="0160"/>
  <outline>
    <contour>
      <point x="327" y="1852" type="line" name="sh03"/>
      <point x="467" y="1852" type="line"/>
      <point x="632" y="1674" type="line"/>
      <point x="798" y="1852" type="line" name="sv02"/>
      <point x="938" y="1852" type="line" name="ih01"/>
      <point x="727" y="1586" type="line"/>
      <point x="538" y="1586" type="line"/>
    </contour>
    <contour>
      <point x="584" y="-29" type="curve" smooth="yes" name="dv01"/>
      <point x="508" y="-29"/>
      <point x="435" y="-22"/>
      <point x="371" y="-7" type="curve" name="ih02"/>
      <point x="300" y="8"/>
      <point x="226" y="33" name="dv02"/>
      <point x="158" y="61" type="curve"/>
      <point x="158" y="276" type="line" name="ah02"/>
      <point x="235" y="227"/>
      <point x="307" y="192"/>
      <point x="376" y="169" type="curve" smooth="yes"/>
      <point x="448" y="145"/>
      <point x="515" y="135" name="sh01"/>
      <point x="582" y="135" type="curve" smooth="yes"/>
      <point x="682" y="135" name="at01"/>
      <point x="763" y="158"/>
      <point x="820" y="203" type="curve" smooth="yes"/>
      <point x="873" y="246" name="ih03"/>
      <point x="905" y="307"/>
      <point x="905" y="399" type="curve" smooth="yes" name="sv01"/>
      <point x="905" y="475"/>
      <point x="883" y="529" name="sh02"/>
      <point x="847" y="566" type="curve" smooth="yes"/>
      <point x="806" y="609"/>
      <point x="736" y="636"/>
      <point x="643" y="657" type="curve" smooth="yes"/>
      <point x="535" y="682" type="line" smooth="yes" name="sh04"/>
      <point x="400" y="713"/>
      <point x="300" y="756"/>
      <point x="233" y="824" type="curve" smooth="yes" name="ah01"/>
      <point x="172" y="887" name="sh05"/>
      <point x="139" y="967"/>
      <point x="139" y="1079" type="curve" smooth="yes"/>
      <point x="139" y="1216"/>
      <point x="189" y="1325"/>
      <point x="274" y="1401" type="curve" smooth="yes"/>
      <point x="359" y="1477"/>
      <point x="479" y="1520"/>
      <point x="631" y="1520" type="curve" smooth="yes"/>
      <point x="688" y="1520"/>
      <point x="748" y="1514"/>
      <point x="812" y="1501" type="curve" smooth="yes"/>
      <point x="874" y="1488"/>
      <point x="941" y="1469"/>
      <point x="1012" y="1442" type="curve"/>
      <point x="1012" y="1237" type="line"/>
      <point x="945" y="1280"/>
      <point x="884" y="1307"/>
      <point x="828" y="1326" type="curve" smooth="yes"/>
      <point x="766" y="1346"/>
      <point x="704" y="1356"/>
      <point x="642" y="1356" type="curve" smooth="yes"/>
      <point x="542" y="1356"/>
      <point x="465" y="1331"/>
      <point x="414" y="1290" type="curve" smooth="yes"/>
      <point x="361" y="1247"/>
      <point x="332" y="1185"/>
      <point x="332" y="1105" type="curve" smooth="yes"/>
      <point x="332" y="1050"/>
      <point x="344" y="1000"/>
      <point x="387" y="960" type="curve" smooth="yes"/>
      <point x="426" y="923"/>
      <point x="489" y="895"/>
      <point x="590" y="872" type="curve" smooth="yes"/>
      <point x="696" y="848" type="line" smooth="yes"/>
      <point x="825" y="819"/>
      <point x="930" y="770"/>
      <point x="1001" y="694" type="curve" smooth="yes"/>
      <point x="1066" y="625"/>
      <point x="1098" y="530"/>
      <point x="1098" y="410" type="curve" smooth="yes"/>
      <point x="1098" y="258"/>
      <point x="1048" y="152"/>
      <point x="967" y="83" type="curve" smooth="yes"/>
      <point x="879" y="7"/>
      <point x="747" y="-29"/>
    </contour>
  </outline>
</glyph>
<glyph name="Utilde" format="1">
  <advance width="1233"/>
  <unicode hex="0168"/>
  <outline>
    <contour>
      <point x="287" y="1633" type="line" name="sv01"/>
      <point x="287" y="1769" name="dv04"/>
      <point x="357" y="1852"/>
      <point x="482" y="1852" type="curve" smooth="yes"/>
      <point x="535" y="1852" name="dv06"/>
      <point x="570" y="1836"/>
      <point x="621" y="1809" type="curve" smooth="yes" name="sv02"/>
      <point x="678" y="1779" type="line"/>
      <point x="707" y="1762" name="dv05"/>
      <point x="731" y="1754"/>
      <point x="750" y="1754" type="curve" smooth="yes"/>
      <point x="791" y="1754" name="dv03"/>
      <point x="821" y="1790"/>
      <point x="821" y="1846" type="curve" smooth="yes"/>
      <point x="821" y="1852" type="line" name="dv01"/>
      <point x="946" y="1852" type="line"/>
      <point x="941" y="1721"/>
      <point x="877" y="1633" name="sh01"/>
      <point x="753" y="1633" type="curve" smooth="yes" name="at01"/>
      <point x="710" y="1633"/>
      <point x="673" y="1644" name="sh02"/>
      <point x="612" y="1676" type="curve" name="sh03"/>
      <point x="555" y="1709" type="line" smooth="yes"/>
      <point x="522" y="1728" name="dv02"/>
      <point x="505" y="1734"/>
      <point x="486" y="1734" type="curve" smooth="yes" name="sh04"/>
      <point x="441" y="1734" name="ah02"/>
      <point x="412" y="1699" name="at02"/>
      <point x="412" y="1639" type="curve" smooth="yes"/>
      <point x="412" y="1633" type="line" name="sh05"/>
    </contour>
    <contour>
      <point x="618" y="-29" type="curve" smooth="yes"/>
      <point x="473" y="-29"/>
      <point x="354" y="15"/>
      <point x="274" y="87" type="curve" smooth="yes" name="ah01"/>
      <point x="226" y="131" name="sh06"/>
      <point x="195" y="186"/>
      <point x="176" y="250" type="curve" smooth="yes"/>
      <point x="157" y="313"/>
      <point x="147" y="409"/>
      <point x="147" y="573" type="curve" smooth="yes"/>
      <point x="147" y="1493" type="line"/>
      <point x="350" y="1493" type="line"/>
      <point x="350" y="481" type="line" smooth="yes"/>
      <point x="350" y="408"/>
      <point x="352" y="357"/>
      <point x="356" y="326" type="curve" smooth="yes"/>
      <point x="364" y="269"/>
      <point x="391" y="201"/>
      <point x="470" y="164" type="curve" smooth="yes"/>
      <point x="509" y="145"/>
      <point x="560" y="135"/>
      <point x="616" y="135" type="curve" smooth="yes"/>
      <point x="729" y="135"/>
      <point x="820" y="178"/>
      <point x="857" y="254" type="curve" smooth="yes"/>
      <point x="865" y="270"/>
      <point x="873" y="294"/>
      <point x="877" y="325" type="curve" smooth="yes"/>
      <point x="881" y="356"/>
      <point x="883" y="407"/>
      <point x="883" y="479" type="curve" smooth="yes"/>
      <point x="883" y="1493" type="line"/>
      <point x="1085" y="1493" type="line"/>
      <point x="1085" y="573" type="line" smooth="yes"/>
      <point x="1085" y="405"/>
      <point x="1075" y="316"/>
      <point x="1056" y="248" type="curve"/>
      <point x="1014" y="108"/>
      <point x="912" y="35"/>
      <point x="807" y="0" type="curve" smooth="yes"/>
      <point x="749" y="-19"/>
      <point x="686" y="-29"/>
    </contour>
  </outline>
</glyph>
<glyph name="utilde" format="1">
  <advance width="1233"/>
  <unicode hex="0169"/>
  <outline>
    <contour>
      <point x="287" y="1257" type="line" name="hr00"/>
      <point x="287" y="1431" name="dv02"/>
      <point x="357" y="1539"/>
      <point x="482" y="1539" type="curve" smooth="yes"/>
      <point x="533" y="1539"/>
      <point x="572" y="1522"/>
      <point x="621" y="1478" type="curve" name="sv01"/>
      <point x="678" y="1423" type="line" smooth="yes"/>
      <point x="710" y="1392" name="sv02"/>
      <point x="729" y="1384"/>
      <point x="748" y="1384" type="curve" smooth="yes"/>
      <point x="771" y="1384"/>
      <point x="790" y="1396"/>
      <point x="802" y="1421" type="curve" smooth="yes" name="dv01"/>
      <point x="813" y="1445" name="sv04"/>
      <point x="820" y="1484" name="sh01"/>
      <point x="821" y="1539" type="curve"/>
      <point x="946" y="1539" type="line"/>
      <point x="946" y="1365" name="sh02"/>
      <point x="876" y="1257" name="sv03"/>
      <point x="751" y="1257" type="curve" smooth="yes" name="sh03"/>
      <point x="700" y="1257"/>
      <point x="661" y="1274"/>
      <point x="612" y="1318" type="curve" name="sh04"/>
      <point x="555" y="1373" type="line" smooth="yes"/>
      <point x="527" y="1400" name="ah02"/>
      <point x="508" y="1412"/>
      <point x="485" y="1412" type="curve" smooth="yes" name="ah01"/>
      <point x="462" y="1412" name="sh05"/>
      <point x="443" y="1400"/>
      <point x="431" y="1375" type="curve" smooth="yes"/>
      <point x="418" y="1349"/>
      <point x="412" y="1310"/>
      <point x="411" y="1257" type="curve"/>
    </contour>
    <contour>
      <point x="534" y="-29" type="curve" smooth="yes"/>
      <point x="305" y="-29"/>
      <point x="195" y="119"/>
      <point x="195" y="424" type="curve" smooth="yes"/>
      <point x="195" y="1118" type="line"/>
      <point x="379" y="1118" type="line"/>
      <point x="379" y="424" type="line" smooth="yes"/>
      <point x="379" y="223"/>
      <point x="449" y="131"/>
      <point x="598" y="131" type="curve" smooth="yes"/>
      <point x="773" y="131"/>
      <point x="866" y="256"/>
      <point x="866" y="485" type="curve" smooth="yes"/>
      <point x="866" y="1118" type="line"/>
      <point x="1051" y="1118" type="line"/>
      <point x="1051" y="0" type="line"/>
      <point x="884" y="0" type="line"/>
      <point x="866" y="168" type="line"/>
      <point x="801" y="39"/>
      <point x="687" y="-29"/>
    </contour>
  </outline>
</glyph>
<glyph name="Uhungarumlaut" format="1">
  <advance width="1233"/>
  <unicode hex="0170"/>
  <outline>
    <contour>
      <point x="541" y="1852" type="line" name="dv04"/>
      <point x="727" y="1852" type="line" name="ih01"/>
      <point x="498" y="1588" type="line" name="dv03"/>
      <point x="344" y="1588" type="line" name="sh04"/>
    </contour>
    <contour>
      <point x="860" y="1852" type="line" name="sv01"/>
      <point x="1046" y="1852" type="line" name="ih02"/>
      <point x="817" y="1588" type="line" name="sv02"/>
      <point x="663" y="1588" type="line" name="ih03"/>
    </contour>
    <contour>
      <point x="618" y="-29" type="curve" smooth="yes" name="dv01"/>
      <point x="473" y="-29"/>
      <point x="354" y="15"/>
      <point x="274" y="87" type="curve" smooth="yes" name="sh01"/>
      <point x="226" y="131" name="at01"/>
      <point x="195" y="186"/>
      <point x="176" y="250" type="curve" smooth="yes" name="sh03"/>
      <point x="157" y="313" name="sh05"/>
      <point x="147" y="409"/>
      <point x="147" y="573" type="curve" smooth="yes" name="dv02"/>
      <point x="147" y="1493" type="line"/>
      <point x="350" y="1493" type="line" name="sh06"/>
      <point x="350" y="481" type="line" smooth="yes" name="ah02"/>
      <point x="350" y="408" name="at02"/>
      <point x="352" y="357"/>
      <point x="356" y="326" type="curve" smooth="yes" name="sh02"/>
      <point x="364" y="269"/>
      <point x="391" y="201"/>
      <point x="470" y="164" type="curve" smooth="yes"/>
      <point x="509" y="145" name="ah01"/>
      <point x="560" y="135" name="sh07"/>
      <point x="616" y="135" type="curve" smooth="yes"/>
      <point x="729" y="135"/>
      <point x="820" y="178"/>
      <point x="857" y="254" type="curve" smooth="yes"/>
      <point x="865" y="270"/>
      <point x="873" y="294"/>
      <point x="877" y="325" type="curve" smooth="yes"/>
      <point x="881" y="356"/>
      <point x="883" y="407"/>
      <point x="883" y="479" type="curve" smooth="yes"/>
      <point x="883" y="1493" type="line"/>
      <point x="1085" y="1493" type="line"/>
      <point x="1085" y="573" type="line" smooth="yes"/>
      <point x="1085" y="405"/>
      <point x="1075" y="316"/>
      <point x="1056" y="248" type="curve"/>
      <point x="1014" y="108"/>
      <point x="912" y="35"/>
      <point x="807" y="0" type="curve" smooth="yes"/>
      <point x="749" y="-19"/>
      <point x="686" y="-29"/>
    </contour>
  </outline>
</glyph>
<glyph name="Uogonek" format="1">
  <advance width="1233"/>
  <unicode hex="0172"/>
  <outline>
    <contour>
      <point x="1085" y="1493" type="line" name="at01"/>
      <point x="1085" y="573" type="line" smooth="yes" name="dh06"/>
      <point x="1085" y="405"/>
      <point x="1075" y="316"/>
      <point x="1056" y="248" type="curve"/>
      <point x="1014" y="108" name="dh04"/>
      <point x="912" y="35" name="dv02"/>
      <point x="807" y="0" type="curve" smooth="yes" name="sh01"/>
      <point x="764" y="-15"/>
      <point x="718" y="-24" name="dv01"/>
      <point x="667" y="-27" type="curve" name="dh03"/>
      <point x="608" y="-108" name="ih01"/>
      <point x="587" y="-157"/>
      <point x="587" y="-200" type="curve" smooth="yes"/>
      <point x="587" y="-256" name="dh01"/>
      <point x="625" y="-288" name="at02"/>
      <point x="697" y="-288" type="curve" smooth="yes"/>
      <point x="738" y="-288" name="dh02"/>
      <point x="780" y="-278" name="sh02"/>
      <point x="821" y="-258" type="curve"/>
      <point x="821" y="-391" type="line"/>
      <point x="765" y="-406"/>
      <point x="727" y="-411" name="sh03"/>
      <point x="678" y="-411" type="curve" smooth="yes" name="dh05"/>
      <point x="529" y="-411"/>
      <point x="448" y="-356"/>
      <point x="448" y="-237" type="curve" smooth="yes" name="sh04"/>
      <point x="448" y="-174"/>
      <point x="471" y="-112"/>
      <point x="548" y="-25" type="curve"/>
      <point x="433" y="-14"/>
      <point x="341" y="27"/>
      <point x="274" y="87" type="curve" smooth="yes"/>
      <point x="226" y="131"/>
      <point x="195" y="186"/>
      <point x="176" y="250" type="curve" smooth="yes"/>
      <point x="157" y="313"/>
      <point x="147" y="409"/>
      <point x="147" y="573" type="curve" smooth="yes"/>
      <point x="147" y="1493" type="line"/>
      <point x="350" y="1493" type="line"/>
      <point x="350" y="481" type="line" smooth="yes"/>
      <point x="350" y="408"/>
      <point x="352" y="357"/>
      <point x="356" y="326" type="curve" smooth="yes"/>
      <point x="364" y="269"/>
      <point x="391" y="201"/>
      <point x="470" y="164" type="curve" smooth="yes"/>
      <point x="509" y="145"/>
      <point x="560" y="135"/>
      <point x="616" y="135" type="curve" smooth="yes"/>
      <point x="729" y="135"/>
      <point x="820" y="178"/>
      <point x="857" y="254" type="curve" smooth="yes"/>
      <point x="865" y="270"/>
      <point x="873" y="294"/>
      <point x="877" y="325" type="curve" smooth="yes"/>
      <point x="881" y="356"/>
      <point x="883" y="407"/>
      <point x="883" y="479" type="curve" smooth="yes"/>
      <point x="883" y="1493" type="line"/>
    </contour>
  </outline>
</glyph>
<glyph name="Uhorn" format="1">
  <advance width="1233"/>
  <unicode hex="01AF"/>
  <outline>
    <contour>
      <point x="1204" y="1561" type="line" name="at03"/>
      <point x="1219" y="1505" name="dh06"/>
      <point x="1224" y="1467" name="sv01"/>
      <point x="1224" y="1418" type="curve" smooth="yes" name="iv01"/>
      <point x="1224" y="1269" name="dh04"/>
      <point x="1169" y="1188"/>
      <point x="1050" y="1188" type="curve" smooth="yes"/>
      <point x="1015" y="1188" name="dv01"/>
      <point x="983" y="1194"/>
      <point x="947" y="1213" type="curve"/>
      <point x="947" y="573" type="line" smooth="yes" name="dh01"/>
      <point x="947" y="405" name="at01"/>
      <point x="937" y="316"/>
      <point x="918" y="248" type="curve" name="dh02"/>
      <point x="876" y="108" name="sh01"/>
      <point x="774" y="35"/>
      <point x="669" y="0" type="curve" smooth="yes" name="dv02"/>
      <point x="611" y="-19"/>
      <point x="548" y="-29" name="sh02"/>
      <point x="480" y="-29" type="curve" smooth="yes" name="dh03"/>
      <point x="335" y="-29" name="at02"/>
      <point x="216" y="15" name="sh03"/>
      <point x="136" y="87" type="curve" smooth="yes"/>
      <point x="88" y="131" name="sv02"/>
      <point x="57" y="186" name="dh05"/>
      <point x="38" y="250" type="curve" smooth="yes" name="ih01"/>
      <point x="19" y="313"/>
      <point x="9" y="409"/>
      <point x="9" y="573" type="curve" smooth="yes" name="sh04"/>
      <point x="9" y="1493" type="line"/>
      <point x="212" y="1493" type="line"/>
      <point x="212" y="481" type="line" smooth="yes"/>
      <point x="212" y="408"/>
      <point x="214" y="357"/>
      <point x="218" y="326" type="curve" smooth="yes"/>
      <point x="226" y="269"/>
      <point x="253" y="201"/>
      <point x="332" y="164" type="curve" smooth="yes"/>
      <point x="371" y="145"/>
      <point x="422" y="135"/>
      <point x="478" y="135" type="curve" smooth="yes"/>
      <point x="591" y="135"/>
      <point x="682" y="178"/>
      <point x="719" y="254" type="curve" smooth="yes"/>
      <point x="727" y="270"/>
      <point x="735" y="294"/>
      <point x="739" y="325" type="curve" smooth="yes"/>
      <point x="743" y="356"/>
      <point x="745" y="407"/>
      <point x="745" y="479" type="curve" smooth="yes"/>
      <point x="745" y="1493" type="line"/>
      <point x="947" y="1493" type="line"/>
      <point x="947" y="1342" type="line"/>
      <point x="972" y="1332"/>
      <point x="994" y="1327"/>
      <point x="1013" y="1327" type="curve" smooth="yes"/>
      <point x="1069" y="1327"/>
      <point x="1101" y="1365"/>
      <point x="1101" y="1437" type="curve" smooth="yes"/>
      <point x="1101" y="1478"/>
      <point x="1091" y="1520"/>
      <point x="1071" y="1561" type="curve"/>
    </contour>
  </outline>
</glyph>
<glyph name="ogonek" format="1">
  <advance width="1233"/>
  <unicode hex="02DB"/>
  <outline>
    <contour>
      <point x="647" y="0" type="line" name="ab01"/>
      <point x="617" y="-41"/>
      <point x="595" y="-76"/>
      <point x="581" y="-105" type="curve" smooth="yes"/>
      <point x="566" y="-134" name="dv02"/>
      <point x="559" y="-159"/>
      <point x="559" y="-180" type="curve" smooth="yes" name="dh02"/>
      <point x="559" y="-211"/>
      <point x="568" y="-234" name="sv01"/>
      <point x="587" y="-249" type="curve" smooth="yes" name="dv01"/>
      <point x="606" y="-264"/>
      <point x="633" y="-272" name="dh01"/>
      <point x="668" y="-272" type="curve" smooth="yes"/>
      <point x="691" y="-272" name="ab02"/>
      <point x="712" y="-270"/>
      <point x="731" y="-265" type="curve" smooth="yes"/>
      <point x="752" y="-260"/>
      <point x="772" y="-253"/>
      <point x="793" y="-242" type="curve"/>
      <point x="793" y="-375" type="line"/>
      <point x="768" y="-382"/>
      <point x="744" y="-387"/>
      <point x="721" y="-390" type="curve" smooth="yes"/>
      <point x="698" y="-393"/>
      <point x="677" y="-395"/>
      <point x="657" y="-395" type="curve" smooth="yes"/>
      <point x="575" y="-395"/>
      <point x="515" y="-381"/>
      <point x="478" y="-352" type="curve" smooth="yes"/>
      <point x="439" y="-323"/>
      <point x="420" y="-278"/>
      <point x="420" y="-215" type="curve" smooth="yes"/>
      <point x="420" y="-184"/>
      <point x="429" y="-150"/>
      <point x="447" y="-115" type="curve" smooth="yes"/>
      <point x="464" y="-80"/>
      <point x="491" y="-41"/>
      <point x="528" y="0" type="curve"/>
    </contour>
  </outline>
</glyph>
<glyph name="Omegatonos" format="1">
  <advance width="1233"/>
  <unicode hex="038F"/>
  <outline>
    <contour>
      <point x="90" y="1460" type="line" name="sv01"/>
      <point x="288" y="1460" type="line" name="ih01"/>
      <point x="-37" y="1084" type="line" name="sv02"/>
      <point x="-191" y="1084" type="line"/>
    </contour>
    <contour>
      <point x="119" y="172" type="line" name="sh01"/>
      <point x="364" y="172" type="line"/>
      <point x="204" y="346" name="dh01"/>
      <point x="131" y="528" name="dv02"/>
      <point x="131" y="778" type="curve" smooth="yes" name="dh04"/>
      <point x="131" y="1200" name="ih02"/>
      <point x="339" y="1460" name="sh02"/>
      <point x="660" y="1460" type="curve" smooth="yes" name="ab01"/>
      <point x="983" y="1460"/>
      <point x="1190" y="1198" name="dh03"/>
      <point x="1190" y="778" type="curve" smooth="yes" name="sh03"/>
      <point x="1190" y="533" name="dv01"/>
      <point x="1119" y="349" name="dh02"/>
      <point x="956" y="172" type="curve" name="sh04"/>
      <point x="1204" y="172" type="line" name="ab02"/>
      <point x="1204" y="0" type="line"/>
      <point x="741" y="0" type="line"/>
      <point x="741" y="172" type="line" name="sh05"/>
      <point x="896" y="268"/>
      <point x="995" y="505"/>
      <point x="995" y="788" type="curve" smooth="yes"/>
      <point x="995" y="1112"/>
      <point x="865" y="1294"/>
      <point x="661" y="1294" type="curve" smooth="yes"/>
      <point x="456" y="1294"/>
      <point x="328" y="1112"/>
      <point x="328" y="789" type="curve" smooth="yes"/>
      <point x="328" y="519"/>
      <point x="418" y="273"/>
      <point x="582" y="172" type="curve"/>
      <point x="582" y="0" type="line"/>
      <point x="119" y="0" type="line"/>
    </contour>
  </outline>
</glyph>
<glyph name="iotadieresistonos" format="1">
  <advance width="1233"/>
  <unicode hex="0390"/>
  <outline>
    <contour>
      <point x="766" y="1892" type="line" name="av01"/>
      <point x="964" y="1892" type="line"/>
      <point x="639" y="1516" type="line" name="at01"/>
      <point x="485" y="1516" type="line" name="ih02"/>
    </contour>
    <contour>
      <point x="272" y="1321" type="line" smooth="yes" name="sv01"/>
      <point x="252" y="1321" name="dh01"/>
      <point x="242" y="1331"/>
      <point x="242" y="1351" type="curve" smooth="yes" name="at02"/>
      <point x="242" y="1493" type="line" smooth="yes"/>
      <point x="242" y="1513"/>
      <point x="252" y="1523" name="dh02"/>
      <point x="272" y="1523" type="curve" smooth="yes"/>
      <point x="415" y="1523" type="line" smooth="yes" name="sv02"/>
      <point x="435" y="1523" name="sh02"/>
      <point x="445" y="1513" name="sh04"/>
      <point x="445" y="1493" type="curve" smooth="yes" name="at03"/>
      <point x="445" y="1351" type="line" smooth="yes" name="sv03"/>
      <point x="445" y="1331"/>
      <point x="435" y="1321" name="sh05"/>
      <point x="415" y="1321" type="curve" smooth="yes"/>
    </contour>
    <contour>
      <point x="749" y="1321" type="line" smooth="yes" name="ab01"/>
      <point x="729" y="1321"/>
      <point x="719" y="1331" name="sh06"/>
      <point x="719" y="1351" type="curve" smooth="yes" name="sv04"/>
      <point x="719" y="1493" type="line" smooth="yes"/>
      <point x="719" y="1513" name="ih01"/>
      <point x="729" y="1523" name="sh01"/>
      <point x="749" y="1523" type="curve" smooth="yes" name="sh03"/>
      <point x="891" y="1523" type="line" smooth="yes" name="sv05"/>
      <point x="911" y="1523"/>
      <point x="921" y="1513"/>
      <point x="921" y="1493" type="curve" smooth="yes"/>
      <point x="921" y="1351" type="line" smooth="yes"/>
      <point x="921" y="1331"/>
      <point x="911" y="1321"/>
      <point x="891" y="1321" type="curve" smooth="yes"/>
    </contour>
    <contour>
      <point x="864" y="-8" type="line" smooth="yes"/>
      <point x="744" y="-8"/>
      <point x="657" y="24"/>
      <point x="602" y="88" type="curve" smooth="yes"/>
      <point x="547" y="154"/>
      <point x="520" y="257"/>
      <point x="520" y="398" type="curve" smooth="yes"/>
      <point x="520" y="977" type="line"/>
      <point x="310" y="977" type="line"/>
      <point x="310" y="1120" type="line"/>
      <point x="708" y="1120" type="line"/>
      <point x="708" y="387" type="line" smooth="yes"/>
      <point x="708" y="194"/>
      <point x="742" y="148"/>
      <point x="886" y="148" type="curve" smooth="yes"/>
      <point x="975" y="148" type="line"/>
      <point x="975" y="-8" type="line"/>
    </contour>
  </outline>
</glyph>
<glyph name="Phi" format="1">
  <advance width="1233"/>
  <unicode hex="03A6"/>
  <outline>
    <contour>
      <point x="368" y="170" type="line" name="dh03"/>
      <point x="515" y="170" type="line" name="ih01"/>
      <point x="515" y="286" type="line"/>
      <point x="279" y="310" name="dh01"/>
      <point x="118" y="433" name="sh01"/>
      <point x="118" y="745" type="curve" smooth="yes" name="sv01"/>
      <point x="118" y="1057" name="sh02"/>
      <point x="280" y="1181" name="at01"/>
      <point x="515" y="1205" type="curve" name="sh03"/>
      <point x="515" y="1323" type="line" name="sv02"/>
      <point x="368" y="1323" type="line" name="sh05"/>
      <point x="368" y="1493" type="line"/>
      <point x="865" y="1493" type="line" name="dh06"/>
      <point x="865" y="1323" type="line"/>
      <point x="718" y="1323" type="line" name="sh04"/>
      <point x="718" y="1205" type="line" name="dh04"/>
      <point x="953" y="1181" name="ab01"/>
      <point x="1115" y="1057"/>
      <point x="1115" y="745" type="curve" smooth="yes" name="sh06"/>
      <point x="1115" y="433"/>
      <point x="954" y="310" name="dh02"/>
      <point x="718" y="286" type="curve"/>
      <point x="718" y="170" type="line"/>
      <point x="865" y="170" type="line" name="sh07"/>
      <point x="865" y="0" type="line"/>
      <point x="368" y="0" type="line" name="dh05"/>
    </contour>
    <contour>
      <point x="515" y="1029" type="line"/>
      <point x="464" y="1018"/>
      <point x="424" y="998"/>
      <point x="397" y="971" type="curve" smooth="yes" name="sh08"/>
      <point x="352" y="926"/>
      <point x="329" y="850"/>
      <point x="329" y="745" type="curve" smooth="yes"/>
      <point x="329" y="640"/>
      <point x="352" y="565"/>
      <point x="397" y="520" type="curve" smooth="yes"/>
      <point x="424" y="492"/>
      <point x="464" y="473"/>
      <point x="515" y="462" type="curve"/>
    </contour>
    <contour>
      <point x="718" y="462" type="line"/>
      <point x="774" y="474"/>
      <point x="814" y="497"/>
      <point x="837" y="520" type="curve" smooth="yes"/>
      <point x="882" y="565"/>
      <point x="904" y="640"/>
      <point x="904" y="745" type="curve" smooth="yes"/>
      <point x="904" y="851"/>
      <point x="882" y="926"/>
      <point x="837" y="971" type="curve" smooth="yes"/>
      <point x="810" y="998"/>
      <point x="770" y="1018"/>
      <point x="718" y="1029" type="curve"/>
    </contour>
  </outline>
</glyph>
<glyph name="theta" format="1">
  <advance width="1233"/>
  <unicode hex="03B8"/>
  <outline>
    <contour>
      <point x="616" y="-29" type="curve" smooth="yes" name="dv01"/>
      <point x="305" y="-29" name="sh01"/>
      <point x="137" y="237" name="at01"/>
      <point x="137" y="735" type="curve" smooth="yes" name="sh02"/>
      <point x="137" y="1232"/>
      <point x="305" y="1500" name="sh03"/>
      <point x="616" y="1500" type="curve" smooth="yes" name="sv01"/>
      <point x="927" y="1500" name="sh05"/>
      <point x="1096" y="1233" name="dv02"/>
      <point x="1096" y="734" type="curve" smooth="yes" name="ah02"/>
      <point x="1096" y="238" name="sh04"/>
      <point x="928" y="-29"/>
    </contour>
    <contour>
      <point x="899" y="828" type="line" name="ah01"/>
      <point x="891" y="1129" name="sh06"/>
      <point x="803" y="1342"/>
      <point x="616" y="1342" type="curve" smooth="yes"/>
      <point x="430" y="1342"/>
      <point x="342" y="1129"/>
      <point x="334" y="828" type="curve"/>
    </contour>
    <contour>
      <point x="616" y="129" type="curve" smooth="yes"/>
      <point x="804" y="129"/>
      <point x="891" y="345"/>
      <point x="899" y="644" type="curve"/>
      <point x="334" y="644" type="line"/>
      <point x="342" y="345"/>
      <point x="428" y="129"/>
    </contour>
  </outline>
</glyph>
<glyph name="nu" format="1">
  <advance width="1233"/>
  <unicode hex="03BD"/>
  <outline>
    <contour>
      <point x="116" y="1120" type="line" name="at01"/>
      <point x="314" y="1120" type="line"/>
      <point x="603" y="180" type="line" name="iv01"/>
      <point x="770" y="350" name="dh01"/>
      <point x="903" y="582"/>
      <point x="903" y="721" type="curve" smooth="yes" name="at02"/>
      <point x="903" y="753"/>
      <point x="896" y="810" name="dh02"/>
      <point x="881" y="870" type="curve" name="ab01"/>
      <point x="860" y="947"/>
      <point x="828" y="1021"/>
      <point x="747" y="1120" type="curve" name="sh01"/>
      <point x="933" y="1120" type="line"/>
      <point x="1021" y="1002"/>
      <point x="1090" y="831"/>
      <point x="1090" y="707" type="curve" smooth="yes"/>
      <point x="1090" y="462"/>
      <point x="819" y="153"/>
      <point x="654" y="0" type="curve"/>
      <point x="458" y="0" type="line"/>
    </contour>
  </outline>
</glyph>
<glyph name="sigma1" format="1">
  <advance width="1233"/>
  <unicode hex="03C2"/>
  <outline>
    <contour>
      <point x="696" y="-279" type="line" name="dh03"/>
      <point x="778" y="-284" name="sh01"/>
      <point x="839" y="-235"/>
      <point x="839" y="-155" type="curve" smooth="yes" name="dh01"/>
      <point x="839" y="-96" name="dv02"/>
      <point x="807" y="-44"/>
      <point x="718" y="-29" type="curve"/>
      <point x="610" y="-13" name="dv01"/>
      <point x="165" y="-13" name="dh02"/>
      <point x="165" y="547" type="curve" smooth="yes"/>
      <point x="165" y="929" name="dh04"/>
      <point x="371" y="1147" name="ab01"/>
      <point x="711" y="1147" type="curve" smooth="yes"/>
      <point x="828" y="1147" name="sh02"/>
      <point x="924" y="1121"/>
      <point x="1031" y="1061" type="curve"/>
      <point x="1031" y="868" type="line"/>
      <point x="939" y="951"/>
      <point x="847" y="991"/>
      <point x="723" y="991" type="curve" smooth="yes"/>
      <point x="484" y="991"/>
      <point x="359" y="836"/>
      <point x="359" y="557" type="curve" smooth="yes"/>
      <point x="359" y="153"/>
      <point x="623" y="131"/>
      <point x="718" y="127" type="curve"/>
      <point x="915" y="114"/>
      <point x="1013" y="7"/>
      <point x="1013" y="-146" type="curve" smooth="yes"/>
      <point x="1013" y="-302"/>
      <point x="913" y="-430"/>
      <point x="696" y="-430" type="curve"/>
    </contour>
  </outline>
</glyph>
<glyph name="uni0402" format="1">
  <advance width="1233"/>
  <unicode hex="0402"/>
  <outline>
    <contour>
      <point x="658" y="-470" type="curve" smooth="yes" name="dv01"/>
      <point x="628" y="-470" name="sv01"/>
      <point x="586" y="-468"/>
      <point x="576" y="-468" type="curve"/>
      <point x="573" y="-287" type="line" name="dv02"/>
      <point x="651" y="-304" type="line" name="ah02"/>
      <point x="660" y="-305"/>
      <point x="667" y="-306" name="dv03"/>
      <point x="687" y="-306" type="curve" smooth="yes"/>
      <point x="867" y="-306"/>
      <point x="932" y="-224"/>
      <point x="932" y="46" type="curve" smooth="yes" name="sh02"/>
      <point x="932" y="462" type="line" smooth="yes" name="sh01"/>
      <point x="932" y="667" name="sv02"/>
      <point x="863" y="755"/>
      <point x="706" y="755" type="curve" smooth="yes" name="at01"/>
      <point x="639" y="755"/>
      <point x="579" y="740" name="sv03"/>
      <point x="520" y="713" type="curve" smooth="yes" name="sh03"/>
      <point x="489" y="698" name="ih01"/>
      <point x="471" y="687"/>
      <point x="452" y="664" type="curve" smooth="yes"/>
      <point x="408" y="611" name="sv04"/>
      <point x="383" y="513" name="dv04"/>
      <point x="383" y="401" type="curve" smooth="yes"/>
      <point x="383" y="0" type="line"/>
      <point x="180" y="0" type="line"/>
      <point x="180" y="1325" type="line" name="sh04"/>
      <point x="-46" y="1325" type="line"/>
      <point x="-46" y="1495" type="line" name="ah01"/>
      <point x="828" y="1495" type="line" name="sh05"/>
      <point x="828" y="1325" type="line"/>
      <point x="383" y="1325" type="line"/>
      <point x="383" y="800" type="line"/>
      <point x="412" y="833"/>
      <point x="433" y="847"/>
      <point x="468" y="866" type="curve" smooth="yes"/>
      <point x="487" y="877"/>
      <point x="488" y="874"/>
      <point x="516" y="892" type="curve"/>
      <point x="557" y="916"/>
      <point x="628" y="932"/>
      <point x="729" y="939" type="curve" smooth="yes"/>
      <point x="746" y="940"/>
      <point x="758" y="941"/>
      <point x="777" y="941" type="curve" smooth="yes"/>
      <point x="881" y="941"/>
      <point x="968" y="913"/>
      <point x="1025" y="857" type="curve" smooth="yes"/>
      <point x="1037" y="846"/>
      <point x="1047" y="833"/>
      <point x="1050" y="828" type="curve" smooth="yes"/>
      <point x="1107" y="753"/>
      <point x="1135" y="640"/>
      <point x="1135" y="488" type="curve" smooth="yes"/>
      <point x="1135" y="46" type="line" smooth="yes"/>
      <point x="1135" y="-334"/>
      <point x="1006" y="-470"/>
    </contour>
  </outline>
</glyph>
<glyph name="uni0411" format="1">
  <advance width="1233"/>
  <unicode hex="0411"/>
  <outline>
    <contour>
      <point x="166" y="1493" type="line" name="sh01"/>
      <point x="1068" y="1493" type="line"/>
      <point x="1068" y="1327" type="line" name="sv01"/>
      <point x="369" y="1327" type="line" name="sh02"/>
      <point x="369" y="877" type="line"/>
      <point x="604" y="877" type="line" name="dv02"/>
      <point x="857" y="867"/>
      <point x="1017" y="798" name="sh03"/>
      <point x="1084" y="671" type="curve" smooth="yes" name="ab01"/>
      <point x="1121" y="600"/>
      <point x="1137" y="506" name="sv02"/>
      <point x="1137" y="419" type="curve" smooth="yes" name="ah02"/>
      <point x="1137" y="138" name="dv01"/>
      <point x="967" y="0" name="sh04"/>
      <point x="608" y="0" type="curve" smooth="yes"/>
      <point x="166" y="0" type="line" name="ah01"/>
    </contour>
    <contour>
      <point x="608" y="166" type="line" smooth="yes" name="sh05"/>
      <point x="843" y="166"/>
      <point x="934" y="242"/>
      <point x="934" y="429" type="curve" smooth="yes"/>
      <point x="934" y="625"/>
      <point x="833" y="713"/>
      <point x="608" y="713" type="curve" smooth="yes"/>
      <point x="369" y="713" type="line"/>
      <point x="369" y="166" type="line"/>
    </contour>
  </outline>
</glyph>
<glyph name="uni0417" format="1">
  <advance width="1233"/>
  <unicode hex="0417"/>
  <outline>
    <contour>
      <point x="553" y="-29" type="curve" smooth="yes" name="dv01"/>
      <point x="421" y="-29"/>
      <point x="274" y="-3"/>
      <point x="137" y="45" type="curve" name="dv02"/>
      <point x="137" y="246" type="line" name="sh02"/>
      <point x="274" y="174" name="dv03"/>
      <point x="404" y="141"/>
      <point x="532" y="141" type="curve" smooth="yes"/>
      <point x="757" y="141" name="dv04"/>
      <point x="879" y="245" name="sh01"/>
      <point x="879" y="426" type="curve" smooth="yes" name="sv01"/>
      <point x="879" y="608"/>
      <point x="752" y="715"/>
      <point x="549" y="715" type="curve" smooth="yes" name="at01"/>
      <point x="395" y="715" type="line" name="sh03"/>
      <point x="395" y="881" type="line" name="iv01"/>
      <point x="549" y="881" type="line" smooth="yes" name="sh04"/>
      <point x="736" y="881"/>
      <point x="844" y="963" name="ah01"/>
      <point x="844" y="1118" type="curve" smooth="yes" name="sh05"/>
      <point x="844" y="1266"/>
      <point x="745" y="1350"/>
      <point x="557" y="1350" type="curve" smooth="yes"/>
      <point x="456" y="1350"/>
      <point x="326" y="1326"/>
      <point x="182" y="1270" type="curve"/>
      <point x="182" y="1456" type="line"/>
      <point x="343" y="1499"/>
      <point x="465" y="1520"/>
      <point x="569" y="1520" type="curve" smooth="yes"/>
      <point x="853" y="1520"/>
      <point x="1044" y="1361"/>
      <point x="1044" y="1122" type="curve" smooth="yes"/>
      <point x="1044" y="954"/>
      <point x="952" y="844"/>
      <point x="776" y="799" type="curve"/>
      <point x="973" y="747"/>
      <point x="1079" y="613"/>
      <point x="1079" y="410" type="curve" smooth="yes"/>
      <point x="1079" y="137"/>
      <point x="885" y="-29"/>
    </contour>
  </outline>
</glyph>
<glyph name="uni042C" format="1">
  <advance width="1233"/>
  <unicode hex="042C"/>
  <outline>
    <contour>
      <point x="197" y="1493" type="line" name="sh01"/>
      <point x="399" y="1493" type="line" name="sh02"/>
      <point x="399" y="893" type="line"/>
      <point x="633" y="893" type="line" smooth="yes" name="dv02"/>
      <point x="970" y="893" name="sh03"/>
      <point x="1141" y="742" name="ab01"/>
      <point x="1141" y="447" type="curve" smooth="yes"/>
      <point x="1141" y="151" name="sv01"/>
      <point x="968" y="0" name="ah02"/>
      <point x="633" y="0" type="curve" smooth="yes" name="dv01"/>
      <point x="197" y="0" type="line" name="sh04"/>
    </contour>
    <contour>
      <point x="633" y="166" type="line" smooth="yes"/>
      <point x="822" y="166" name="ah01"/>
      <point x="930" y="267" name="sh05"/>
      <point x="930" y="446" type="curve" smooth="yes"/>
      <point x="930" y="625"/>
      <point x="821" y="727"/>
      <point x="633" y="727" type="curve" smooth="yes"/>
      <point x="399" y="727" type="line"/>
      <point x="399" y="166" type="line"/>
    </contour>
  </outline>
</glyph>
<glyph name="uni0437" format="1">
  <advance width="1233"/>
  <unicode hex="0437"/>
  <outline>
    <contour>
      <point x="539" y="-22" type="curve" smooth="yes" name="ab01"/>
      <point x="419" y="-22"/>
      <point x="306" y="-5"/>
      <point x="169" y="34" type="curve" name="sv01"/>
      <point x="169" y="207" type="line" name="sh02"/>
      <point x="270" y="162" name="dv03"/>
      <point x="394" y="138"/>
      <point x="526" y="138" type="curve" smooth="yes"/>
      <point x="759" y="138" name="dv04"/>
      <point x="881" y="213" name="sh01"/>
      <point x="881" y="334" type="curve" smooth="yes" name="dv01"/>
      <point x="881" y="454"/>
      <point x="761" y="532"/>
      <point x="562" y="532" type="curve" smooth="yes" name="dv02"/>
      <point x="404" y="532" type="line" name="sh03"/>
      <point x="404" y="676" type="line" name="iv01"/>
      <point x="569" y="676" type="line" smooth="yes" name="sh04"/>
      <point x="752" y="676"/>
      <point x="849" y="739" name="ah01"/>
      <point x="849" y="830" type="curve" smooth="yes" name="sh05"/>
      <point x="849" y="922"/>
      <point x="747" y="984"/>
      <point x="558" y="984" type="curve" smooth="yes"/>
      <point x="463" y="984"/>
      <point x="350" y="968"/>
      <point x="210" y="932" type="curve"/>
      <point x="210" y="1099" type="line"/>
      <point x="350" y="1131"/>
      <point x="472" y="1147"/>
      <point x="577" y="1147" type="curve" smooth="yes"/>
      <point x="857" y="1147"/>
      <point x="1032" y="1034"/>
      <point x="1032" y="856" type="curve" smooth="yes"/>
      <point x="1032" y="728"/>
      <point x="943" y="640"/>
      <point x="783" y="607" type="curve"/>
      <point x="954" y="575"/>
      <point x="1064" y="480"/>
      <point x="1064" y="321" type="curve" smooth="yes"/>
      <point x="1064" y="110"/>
      <point x="871" y="-22"/>
    </contour>
  </outline>
</glyph>
<glyph name="uni0440" format="1">
  <advance width="1233"/>
  <unicode hex="0440"/>
  <outline>
    <contour>
      <point x="190" y="1120" type="line" name="sh01"/>
      <point x="357" y="1120" type="line"/>
      <point x="375" y="977" type="line" name="sh02"/>
      <point x="439" y="1092" name="sv02"/>
      <point x="542" y="1147" name="sh03"/>
      <point x="677" y="1147" type="curve" smooth="yes" name="dv01"/>
      <point x="943" y="1147" name="sh04"/>
      <point x="1108" y="925" name="ab01"/>
      <point x="1108" y="558" type="curve" smooth="yes"/>
      <point x="1108" y="191" name="dv02"/>
      <point x="943" y="-29" name="ah02"/>
      <point x="676" y="-29" type="curve" smooth="yes" name="sv01"/>
      <point x="536" y="-29" name="sh05"/>
      <point x="435" y="29"/>
      <point x="375" y="141" type="curve" name="ah01"/>
      <point x="375" y="-426" type="line" name="sh06"/>
      <point x="190" y="-426" type="line"/>
    </contour>
    <contour>
      <point x="647" y="127" type="curve" smooth="yes"/>
      <point x="826" y="127"/>
      <point x="915" y="272"/>
      <point x="915" y="559" type="curve" smooth="yes"/>
      <point x="915" y="846"/>
      <point x="826" y="991"/>
      <point x="647" y="991" type="curve" smooth="yes"/>
      <point x="467" y="991"/>
      <point x="375" y="844"/>
      <point x="375" y="559" type="curve" smooth="yes"/>
      <point x="375" y="274"/>
      <point x="467" y="127"/>
    </contour>
  </outline>
</glyph>
<glyph name="uni044D" format="1">
  <advance width="1233"/>
  <unicode hex="044D"/>
  <outline>
    <contour>
      <point x="545" y="-29" type="curve" smooth="yes" name="dv01"/>
      <point x="432" y="-29"/>
      <point x="333" y="-4"/>
      <point x="225" y="57" type="curve" name="dv02"/>
      <point x="225" y="248" type="line" name="dh01"/>
      <point x="308" y="168"/>
      <point x="408" y="127"/>
      <point x="533" y="127" type="curve" smooth="yes" name="sh01"/>
      <point x="773" y="127" name="dv03"/>
      <point x="883" y="283"/>
      <point x="896" y="516" type="curve"/>
      <point x="354" y="516" type="line" name="dv04"/>
      <point x="354" y="660" type="line" name="dh02"/>
      <point x="891" y="660" type="line"/>
      <point x="867" y="836"/>
      <point x="775" y="991" name="sh02"/>
      <point x="534" y="991" type="curve" smooth="yes"/>
      <point x="413" y="991"/>
      <point x="318" y="952"/>
      <point x="225" y="868" type="curve"/>
      <point x="225" y="1061" type="line"/>
      <point x="334" y="1122"/>
      <point x="432" y="1147"/>
      <point x="544" y="1147" type="curve" smooth="yes"/>
      <point x="882" y="1147"/>
      <point x="1091" y="927"/>
      <point x="1091" y="559" type="curve" smooth="yes"/>
      <point x="1091" y="191"/>
      <point x="881" y="-29"/>
    </contour>
  </outline>
</glyph>
<glyph name="uni0454" format="1">
  <advance width="1233"/>
  <unicode hex="0454"/>
  <outline>
    <contour>
      <point x="711" y="-29" type="curve" smooth="yes" name="dv01"/>
      <point x="375" y="-29" name="dh01"/>
      <point x="165" y="191" name="dv04"/>
      <point x="165" y="559" type="curve" smooth="yes"/>
      <point x="165" y="927"/>
      <point x="374" y="1147" name="dv03"/>
      <point x="712" y="1147" type="curve" smooth="yes" name="sh01"/>
      <point x="824" y="1147"/>
      <point x="920" y="1122"/>
      <point x="1031" y="1061" type="curve" name="dh02"/>
      <point x="1031" y="868" type="line" name="dv02"/>
      <point x="940" y="949"/>
      <point x="849" y="991"/>
      <point x="722" y="991" type="curve" smooth="yes"/>
      <point x="480" y="991"/>
      <point x="389" y="837"/>
      <point x="365" y="659" type="curve"/>
      <point x="902" y="660" type="line"/>
      <point x="902" y="516" type="line"/>
      <point x="360" y="516" type="line"/>
      <point x="373" y="283"/>
      <point x="483" y="127"/>
      <point x="723" y="127" type="curve" smooth="yes"/>
      <point x="848" y="127"/>
      <point x="948" y="168"/>
      <point x="1031" y="248" type="curve"/>
      <point x="1031" y="57" type="line"/>
      <point x="923" y="-4"/>
      <point x="824" y="-29"/>
    </contour>
  </outline>
</glyph>
<glyph name="uni0456" format="1">
  <advance width="1233"/>
  <unicode hex="0456"/>
  <outline>
    <contour>
      <point x="495" y="1323" type="line" smooth="yes" name="sv01"/>
      <point x="474" y="1323" name="sh02"/>
      <point x="463" y="1333"/>
      <point x="463" y="1353" type="curve" smooth="yes" name="at01"/>
      <point x="463" y="1526" type="line" smooth="yes"/>
      <point x="463" y="1546" name="sh03"/>
      <point x="474" y="1556" name="sh05"/>
      <point x="495" y="1556" type="curve" smooth="yes"/>
      <point x="625" y="1556" type="line" smooth="yes" name="sh04"/>
      <point x="646" y="1556"/>
      <point x="657" y="1546" name="sv02"/>
      <point x="657" y="1526" type="curve" smooth="yes"/>
      <point x="657" y="1353" type="line" smooth="yes" name="ab01"/>
      <point x="657" y="1333"/>
      <point x="646" y="1323"/>
      <point x="625" y="1323" type="curve" smooth="yes" name="sh01"/>
    </contour>
    <contour>
      <point x="657" y="398" type="line" smooth="yes" name="sv03"/>
      <point x="657" y="315"/>
      <point x="672" y="252" name="dh01"/>
      <point x="703" y="211" type="curve" smooth="yes" name="dh02"/>
      <point x="735" y="167"/>
      <point x="780" y="148"/>
      <point x="837" y="148" type="curve" smooth="yes"/>
      <point x="1052" y="148" type="line"/>
      <point x="1052" y="-8" type="line"/>
      <point x="819" y="-8" type="line" smooth="yes"/>
      <point x="712" y="-8"/>
      <point x="628" y="23"/>
      <point x="564" y="98" type="curve" smooth="yes"/>
      <point x="503" y="169"/>
      <point x="473" y="269"/>
      <point x="473" y="398" type="curve" smooth="yes"/>
      <point x="473" y="976" type="line"/>
      <point x="228" y="976" type="line"/>
      <point x="228" y="1120" type="line"/>
      <point x="657" y="1120" type="line"/>
    </contour>
  </outline>
</glyph>
<glyph name="uni0462" format="1">
  <advance width="1233"/>
  <unicode hex="0462"/>
  <outline>
    <contour>
      <point x="293" y="1105" type="line" name="sh01"/>
      <point x="32" y="1105" type="line"/>
      <point x="32" y="1269" type="line"/>
      <point x="293" y="1269" type="line" name="sh02"/>
      <point x="293" y="1493" type="line" name="at01"/>
      <point x="495" y="1493" type="line" name="sh04"/>
      <point x="495" y="1269" type="line" name="sv01"/>
      <point x="864" y="1269" type="line"/>
      <point x="864" y="1105" type="line" name="sv02"/>
      <point x="495" y="1105" type="line" name="sh03"/>
      <point x="495" y="893" type="line"/>
      <point x="633" y="893" type="line" smooth="yes" name="dv02"/>
      <point x="970" y="893" name="sh05"/>
      <point x="1141" y="742" name="ab01"/>
      <point x="1141" y="447" type="curve" smooth="yes"/>
      <point x="1141" y="151" name="sv03"/>
      <point x="968" y="0" name="ah02"/>
      <point x="633" y="0" type="curve" smooth="yes" name="dv01"/>
      <point x="293" y="0" type="line" name="sh06"/>
    </contour>
    <contour>
      <point x="633" y="166" type="line" smooth="yes"/>
      <point x="822" y="166" name="ah01"/>
      <point x="930" y="267" name="sh07"/>
      <point x="930" y="446" type="curve" smooth="yes"/>
      <point x="930" y="625"/>
      <point x="821" y="727"/>
      <point x="633" y="727" type="curve" smooth="yes"/>
      <point x="495" y="727" type="line"/>
      <point x="495" y="166" type="line"/>
    </contour>
  </outline>
</glyph>
<glyph name="uni04C7" format="1">
  <advance width="1233"/>
  <unicode hex="04C7"/>
  <outline>
    <contour>
      <point x="586" y="-240" type="line" name="dh03"/>
      <point x="648" y="-240" type="line" smooth="yes" name="dv02"/>
      <point x="827" y="-240" name="sh01"/>
      <point x="893" y="-155" name="dv03"/>
      <point x="893" y="104" type="curve" smooth="yes"/>
      <point x="893" y="711" type="line" name="dh02"/>
      <point x="340" y="711" type="line" name="dh01"/>
      <point x="340" y="0" type="line" name="at01"/>
      <point x="137" y="0" type="line" name="sh02"/>
      <point x="137" y="1493" type="line"/>
      <point x="340" y="1493" type="line" name="sh03"/>
      <point x="340" y="881" type="line" name="at02"/>
      <point x="893" y="881" type="line"/>
      <point x="893" y="1493" type="line" name="dh04"/>
      <point x="1096" y="1493" type="line" name="dv01"/>
      <point x="1096" y="104" type="line" smooth="yes"/>
      <point x="1096" y="-256"/>
      <point x="966" y="-410" name="sh04"/>
      <point x="662" y="-410" type="curve" smooth="yes"/>
      <point x="586" y="-410" type="line"/>
    </contour>
  </outline>
</glyph>
<glyph name="uni04CB" format="1">
  <advance width="1233"/>
  <unicode hex="04CB"/>
  <outline>
    <contour>
      <point x="669" y="170" type="line" name="dh03"/>
      <point x="882" y="170" type="line" name="dh04"/>
      <point x="882" y="718" type="line"/>
      <point x="859" y="691"/>
      <point x="835" y="673"/>
      <point x="796" y="652" type="curve" smooth="yes"/>
      <point x="749" y="626" type="line" smooth="yes" name="dv02"/>
      <point x="700" y="599"/>
      <point x="609" y="582"/>
      <point x="536" y="579" type="curve" smooth="yes" name="dh01"/>
      <point x="488" y="577" type="line" name="at01"/>
      <point x="381" y="577"/>
      <point x="299" y="605" name="dh02"/>
      <point x="240" y="661" type="curve" smooth="yes" name="dv03"/>
      <point x="229" y="672"/>
      <point x="219" y="683"/>
      <point x="214" y="690" type="curve" smooth="yes" name="sh01"/>
      <point x="161" y="762" name="sh03"/>
      <point x="130" y="869"/>
      <point x="130" y="1030" type="curve" smooth="yes" name="sh04"/>
      <point x="130" y="1495" type="line" name="sh02"/>
      <point x="333" y="1495" type="line" name="dv01"/>
      <point x="333" y="1056" type="line" smooth="yes"/>
      <point x="333" y="852"/>
      <point x="401" y="763"/>
      <point x="554" y="763" type="curve" smooth="yes"/>
      <point x="613" y="763"/>
      <point x="685" y="776"/>
      <point x="745" y="804" type="curve" smooth="yes"/>
      <point x="778" y="820"/>
      <point x="797" y="835"/>
      <point x="812" y="854" type="curve" smooth="yes"/>
      <point x="853" y="903"/>
      <point x="882" y="994"/>
      <point x="882" y="1117" type="curve" smooth="yes"/>
      <point x="882" y="1495" type="line"/>
      <point x="1085" y="1495" type="line"/>
      <point x="1085" y="0" type="line"/>
      <point x="882" y="0" type="line"/>
      <point x="882" y="-322" type="line"/>
      <point x="669" y="-322" type="line"/>
    </contour>
  </outline>
</glyph>
<glyph name="uni04D1" format="1">
  <advance width="1233"/>
  <unicode hex="04D1"/>
  <outline>
    <contour>
      <point x="616" y="1298" type="curve" smooth="yes" name="dv03"/>
      <point x="423" y="1298"/>
      <point x="318" y="1394" name="dv04"/>
      <point x="303" y="1585" type="curve" name="sv01"/>
      <point x="422" y="1585" type="line" name="sv02"/>
      <point x="437" y="1489"/>
      <point x="494" y="1435"/>
      <point x="615" y="1435" type="curve" smooth="yes" name="dv01"/>
      <point x="730" y="1435"/>
      <point x="792" y="1484" name="sh01"/>
      <point x="811" y="1585" type="curve"/>
      <point x="930" y="1585" type="line"/>
      <point x="915" y="1394" name="ah02"/>
      <point x="810" y="1298"/>
    </contour>
    <contour>
      <point x="520" y="-29" type="curve" smooth="yes"/>
      <point x="404" y="-29" name="dv06"/>
      <point x="312" y="3"/>
      <point x="245" y="68" type="curve" smooth="yes" name="ih01"/>
      <point x="181" y="129"/>
      <point x="143" y="210"/>
      <point x="143" y="327" type="curve" smooth="yes" name="dv07"/>
      <point x="143" y="450"/>
      <point x="185" y="545"/>
      <point x="269" y="610" type="curve" smooth="yes"/>
      <point x="352" y="675" name="sh03"/>
      <point x="474" y="707"/>
      <point x="637" y="707" type="curve" smooth="yes" name="sh04"/>
      <point x="884" y="707" type="line"/>
      <point x="884" y="736" type="line" smooth="yes" name="ab01"/>
      <point x="884" y="821"/>
      <point x="861" y="890"/>
      <point x="816" y="931" type="curve" smooth="yes" name="ih02"/>
      <point x="772" y="971"/>
      <point x="699" y="991"/>
      <point x="603" y="991" type="curve" smooth="yes" name="dv02"/>
      <point x="540" y="991"/>
      <point x="476" y="982" name="sh05"/>
      <point x="412" y="964" type="curve" smooth="yes" name="dv05"/>
      <point x="347" y="946"/>
      <point x="285" y="920"/>
      <point x="225" y="885" type="curve" name="sh02"/>
      <point x="225" y="1069" type="line"/>
      <point x="281" y="1090"/>
      <point x="352" y="1113" name="ah01"/>
      <point x="421" y="1128" type="curve" smooth="yes" name="sh06"/>
      <point x="482" y="1141"/>
      <point x="543" y="1147"/>
      <point x="604" y="1147" type="curve" smooth="yes"/>
      <point x="699" y="1147"/>
      <point x="774" y="1133"/>
      <point x="841" y="1105" type="curve"/>
      <point x="902" y="1078"/>
      <point x="960" y="1037"/>
      <point x="999" y="984" type="curve" smooth="yes"/>
      <point x="1027" y="945"/>
      <point x="1044" y="901"/>
      <point x="1053" y="860" type="curve" smooth="yes"/>
      <point x="1064" y="811"/>
      <point x="1069" y="738"/>
      <point x="1069" y="639" type="curve" smooth="yes"/>
      <point x="1069" y="410" type="line"/>
      <point x="1072" y="333"/>
      <point x="1071" y="277"/>
      <point x="1078" y="226" type="curve" smooth="yes"/>
      <point x="1085" y="170"/>
      <point x="1094" y="116"/>
      <point x="1101" y="91" type="curve"/>
      <point x="1110" y="50"/>
      <point x="1125" y="7"/>
      <point x="1128" y="0" type="curve"/>
      <point x="943" y="0" type="line"/>
      <point x="936" y="16"/>
      <point x="925" y="50"/>
      <point x="916" y="87" type="curve" smooth="yes"/>
      <point x="909" y="116"/>
      <point x="903" y="149"/>
      <point x="900" y="170" type="curve"/>
      <point x="861" y="103"/>
      <point x="795" y="50"/>
      <point x="736" y="19" type="curve" smooth="yes"/>
      <point x="672" y="-14"/>
      <point x="601" y="-29"/>
    </contour>
    <contour>
      <point x="558" y="125" type="curve" smooth="yes"/>
      <point x="659" y="125"/>
      <point x="738" y="160"/>
      <point x="796" y="231" type="curve" smooth="yes"/>
      <point x="855" y="303"/>
      <point x="884" y="400"/>
      <point x="884" y="522" type="curve" smooth="yes"/>
      <point x="884" y="563" type="line"/>
      <point x="651" y="563" type="line" smooth="yes"/>
      <point x="544" y="563"/>
      <point x="464" y="544"/>
      <point x="409" y="507" type="curve" smooth="yes"/>
      <point x="352" y="468"/>
      <point x="327" y="412"/>
      <point x="327" y="337" type="curve" smooth="yes"/>
      <point x="327" y="268"/>
      <point x="349" y="217"/>
      <point x="388" y="181" type="curve" smooth="yes"/>
      <point x="427" y="146"/>
      <point x="481" y="125"/>
    </contour>
  </outline>
</glyph>
<glyph name="uni04D8" format="1">
  <advance width="1233"/>
  <unicode hex="04D8"/>
  <outline>
    <contour>
      <point x="615" y="-29" type="curve" smooth="yes" name="dv01"/>
      <point x="279" y="-29" name="sh01"/>
      <point x="117" y="222"/>
      <point x="117" y="745" type="curve" smooth="yes" name="ah02"/>
      <point x="117" y="828" type="line"/>
      <point x="904" y="828" type="line" name="sv01"/>
      <point x="904" y="836" type="line" smooth="yes" name="ih01"/>
      <point x="904" y="1158"/>
      <point x="820" y="1356" name="at01"/>
      <point x="607" y="1356" type="curve" smooth="yes" name="sh03"/>
      <point x="506" y="1356"/>
      <point x="381" y="1310" name="dv02"/>
      <point x="286" y="1231" type="curve" name="sh04"/>
      <point x="286" y="1438" type="line" name="sh02"/>
      <point x="390" y="1494"/>
      <point x="500" y="1520" name="ah01"/>
      <point x="611" y="1520" type="curve" smooth="yes" name="sh05"/>
      <point x="952" y="1520"/>
      <point x="1116" y="1269"/>
      <point x="1116" y="746" type="curve" smooth="yes"/>
      <point x="1116" y="225"/>
      <point x="954" y="-29"/>
    </contour>
    <contour>
      <point x="621" y="135" type="curve" smooth="yes"/>
      <point x="817" y="135"/>
      <point x="890" y="305"/>
      <point x="903" y="644" type="curve"/>
      <point x="332" y="644" type="line"/>
      <point x="332" y="312"/>
      <point x="422" y="135"/>
    </contour>
  </outline>
</glyph>
<glyph name="uni04E0" format="1">
  <advance width="1233"/>
  <unicode hex="04E0"/>
  <outline>
    <contour>
      <point x="615" y="-28" type="curve" smooth="yes" name="dv01"/>
      <point x="235" y="-28" name="sh01"/>
      <point x="26" y="140" name="sh02"/>
      <point x="26" y="435" type="curve" name="dv02"/>
      <point x="228" y="435" type="line" name="ah02"/>
      <point x="228" y="243" name="dv03"/>
      <point x="363" y="142"/>
      <point x="616" y="142" type="curve" smooth="yes"/>
      <point x="871" y="142" name="ih01"/>
      <point x="1006" y="244"/>
      <point x="1006" y="432" type="curve" smooth="yes" name="at01"/>
      <point x="1006" y="616"/>
      <point x="875" y="716"/>
      <point x="656" y="716" type="curve" smooth="yes" name="ih02"/>
      <point x="482" y="716" type="line"/>
      <point x="482" y="882" type="line" name="sh03"/>
      <point x="852" y="1323" type="line"/>
      <point x="114" y="1323" type="line" name="ah01"/>
      <point x="114" y="1493" type="line" name="sh04"/>
      <point x="1084" y="1493" type="line"/>
      <point x="1084" y="1325" type="line"/>
      <point x="708" y="884" type="line"/>
      <point x="848" y="884"/>
      <point x="1021" y="814"/>
      <point x="1126" y="677" type="curve" smooth="yes"/>
      <point x="1183" y="601"/>
      <point x="1206" y="525"/>
      <point x="1206" y="429" type="curve" smooth="yes"/>
      <point x="1206" y="141"/>
      <point x="995" y="-28"/>
    </contour>
  </outline>
</glyph>
<glyph name="uni04F6" format="1">
  <advance width="1233"/>
  <unicode hex="04F6"/>
  <outline>
    <contour>
      <point x="418" y="0" type="line" name="dh02"/>
      <point x="215" y="0" type="line" name="dh01"/>
      <point x="215" y="1493" type="line" name="at01"/>
      <point x="1139" y="1493" type="line"/>
      <point x="1139" y="1323" type="line" name="sv01"/>
      <point x="418" y="1323" type="line" name="sh01"/>
      <point x="418" y="170" type="line"/>
      <point x="631" y="170" type="line" name="sh02"/>
      <point x="631" y="-322" type="line" name="dv01"/>
      <point x="418" y="-322" type="line"/>
    </contour>
  </outline>
</glyph>
<glyph name="uni04F8" format="1">
  <advance width="1233"/>
  <unicode hex="04F8"/>
  <outline>
    <contour>
      <point x="366" y="1649" type="line" smooth="yes" name="dv01"/>
      <point x="346" y="1649" name="dh03"/>
      <point x="336" y="1659"/>
      <point x="336" y="1679" type="curve" smooth="yes" name="dv02"/>
      <point x="336" y="1822" type="line" smooth="yes"/>
      <point x="336" y="1842"/>
      <point x="346" y="1852" name="dh04"/>
      <point x="366" y="1852" type="curve" smooth="yes"/>
      <point x="509" y="1852" type="line" smooth="yes" name="sv01"/>
      <point x="529" y="1852" name="ih01"/>
      <point x="539" y="1842"/>
      <point x="539" y="1822" type="curve" smooth="yes" name="sv02"/>
      <point x="539" y="1679" type="line" smooth="yes"/>
      <point x="539" y="1659"/>
      <point x="529" y="1649" name="sh01"/>
      <point x="509" y="1649" type="curve" smooth="yes"/>
    </contour>
    <contour>
      <point x="758" y="1649" type="line" smooth="yes" name="dh01"/>
      <point x="738" y="1649" name="dh02"/>
      <point x="728" y="1659"/>
      <point x="728" y="1679" type="curve" smooth="yes" name="dv04"/>
      <point x="728" y="1822" type="line" smooth="yes" name="dh06"/>
      <point x="728" y="1842" name="ab01"/>
      <point x="738" y="1852"/>
      <point x="758" y="1852" type="curve" smooth="yes" name="dh07"/>
      <point x="900" y="1852" type="line" smooth="yes" name="dh08"/>
      <point x="920" y="1852" name="ab02"/>
      <point x="930" y="1842"/>
      <point x="930" y="1822" type="curve" smooth="yes" name="sv03"/>
      <point x="930" y="1679" type="line" smooth="yes" name="dh05"/>
      <point x="930" y="1659" name="dv03"/>
      <point x="920" y="1649" name="sh02"/>
      <point x="900" y="1649" type="curve" smooth="yes"/>
    </contour>
    <contour>
      <point x="82" y="1493" type="line"/>
      <point x="284" y="1493" type="line" name="sh03"/>
      <point x="284" y="893" type="line"/>
      <point x="375" y="893" type="line" smooth="yes"/>
      <point x="634" y="893"/>
      <point x="826" y="740"/>
      <point x="826" y="447" type="curve" smooth="yes"/>
      <point x="826" y="153"/>
      <point x="631" y="0"/>
      <point x="375" y="0" type="curve" smooth="yes"/>
      <point x="82" y="0" type="line"/>
    </contour>
    <contour>
      <point x="948" y="1493" type="line"/>
      <point x="1151" y="1493" type="line"/>
      <point x="1151" y="0" type="line"/>
      <point x="948" y="0" type="line"/>
    </contour>
    <contour>
      <point x="375" y="166" type="line" smooth="yes"/>
      <point x="511" y="166"/>
      <point x="615" y="246"/>
      <point x="615" y="446" type="curve" smooth="yes"/>
      <point x="615" y="625"/>
      <point x="535" y="727"/>
      <point x="375" y="727" type="curve" smooth="yes"/>
      <point x="284" y="727" type="line"/>
      <point x="284" y="166" type="line"/>
    </contour>
  </outline>
</glyph>
<glyph name="uni051A" format="1">
  <advance width="1233"/>
  <unicode hex="051A"/>
  <outline>
    <contour>
      <point x="655" y="-27" type="line" name="ab01"/>
      <point x="650" y="-27" name="ab02"/>
      <point x="644" y="-27" name="ab03"/>
      <point x="635" y="-28" type="curve" smooth="yes" name="sh01"/>
      <point x="626" y="-29" name="at01"/>
      <point x="623" y="-29" name="sh02"/>
      <point x="620" y="-29" type="curve" smooth="yes" name="ih01"/>
      <point x="281" y="-29"/>
      <point x="117" y="227" name="av01"/>
      <point x="117" y="747" type="curve" smooth="yes" name="sv01"/>
      <point x="117" y="1264"/>
      <point x="280" y="1520" name="ah02"/>
      <point x="617" y="1520" type="curve" smooth="yes"/>
      <point x="953" y="1520" name="sv02"/>
      <point x="1116" y="1265"/>
      <point x="1116" y="744" type="curve" smooth="yes" name="sh03"/>
      <point x="1116" y="353"/>
      <point x="1025" y="116"/>
      <point x="840" y="20" type="curve" name="ah01"/>
      <point x="1040" y="-170" type="line" name="sh04"/>
      <point x="889" y="-270" type="line"/>
    </contour>
    <contour>
      <point x="616" y="135" type="curve" smooth="yes"/>
      <point x="727" y="135"/>
      <point x="795" y="186"/>
      <point x="838" y="277" type="curve" smooth="yes"/>
      <point x="880" y="365"/>
      <point x="905" y="506"/>
      <point x="905" y="747" type="curve" smooth="yes"/>
      <point x="905" y="987"/>
      <point x="879" y="1125"/>
      <point x="837" y="1215" type="curve"/>
      <point x="790" y="1311"/>
      <point x="721" y="1356"/>
      <point x="617" y="1356" type="curve" smooth="yes"/>
      <point x="512" y="1356"/>
      <point x="441" y="1310"/>
      <point x="396" y="1214" type="curve" smooth="yes"/>
      <point x="351" y="1119"/>
      <point x="328" y="962"/>
      <point x="328" y="745" type="curve" smooth="yes"/>
      <point x="328" y="525"/>
      <point x="349" y="374"/>
      <point x="396" y="277" type="curve" smooth="yes"/>
      <point x="440" y="184"/>
      <point x="509" y="135"/>
    </contour>
  </outline>
</glyph>
<glyph name="uni0532" format="1">
  <advance width="1233"/>
  <unicode hex="0532"/>
  <outline>
    <contour>
      <point x="128" y="1036" type="line" smooth="yes" name="sh01"/>
      <point x="128" y="1203"/>
      <point x="172" y="1322" name="at01"/>
      <point x="253" y="1402" type="curve" smooth="yes"/>
      <point x="333" y="1481"/>
      <point x="444" y="1520" name="sh02"/>
      <point x="596" y="1520" type="curve" smooth="yes" name="ah02"/>
      <point x="745" y="1520"/>
      <point x="861" y="1482"/>
      <point x="942" y="1402" type="curve" smooth="yes" name="sv01"/>
      <point x="1022" y="1322"/>
      <point x="1066" y="1203" name="sh03"/>
      <point x="1066" y="1036" type="curve" smooth="yes"/>
      <point x="1066" y="875" type="line" name="dv02"/>
      <point x="864" y="875" type="line" name="dv01"/>
      <point x="864" y="1098" type="line" smooth="yes" name="sh04"/>
      <point x="864" y="1158" name="ab01"/>
      <point x="855" y="1220"/>
      <point x="816" y="1271" type="curve" smooth="yes" name="ah01"/>
      <point x="777" y="1322" name="sh05"/>
      <point x="711" y="1356"/>
      <point x="596" y="1356" type="curve" smooth="yes"/>
      <point x="481" y="1356"/>
      <point x="417" y="1322"/>
      <point x="378" y="1271" type="curve" smooth="yes"/>
      <point x="339" y="1220"/>
      <point x="330" y="1158"/>
      <point x="330" y="1098" type="curve" smooth="yes"/>
      <point x="330" y="621" type="line"/>
      <point x="1104" y="621" type="line"/>
      <point x="1104" y="451" type="line"/>
      <point x="330" y="451" type="line"/>
      <point x="330" y="0" type="line"/>
      <point x="128" y="0" type="line"/>
    </contour>
  </outline>
</glyph>
<glyph name="uni0544" format="1">
  <advance width="1233"/>
  <unicode hex="0544"/>
  <outline>
    <contour>
      <point x="554" y="-29" type="curve" smooth="yes" name="dv01"/>
      <point x="407" y="-29"/>
      <point x="291" y="10" name="dh01"/>
      <point x="211" y="90" type="curve" smooth="yes" name="at01"/>
      <point x="130" y="170"/>
      <point x="86" y="290" name="dh02"/>
      <point x="86" y="457" type="curve" smooth="yes"/>
      <point x="86" y="1493" type="line" name="dv02"/>
      <point x="288" y="1493" type="line"/>
      <point x="288" y="395" type="line" smooth="yes" name="dh03"/>
      <point x="288" y="335" name="at02"/>
      <point x="297" y="272"/>
      <point x="336" y="221" type="curve" smooth="yes" name="sh01"/>
      <point x="375" y="170"/>
      <point x="439" y="135" name="dh04"/>
      <point x="554" y="135" type="curve" smooth="yes"/>
      <point x="669" y="135"/>
      <point x="735" y="170"/>
      <point x="774" y="221" type="curve" smooth="yes" name="sh02"/>
      <point x="813" y="272"/>
      <point x="822" y="335"/>
      <point x="822" y="395" type="curve" smooth="yes"/>
      <point x="822" y="1493" type="line"/>
      <point x="1211" y="1493" type="line"/>
      <point x="1211" y="1323" type="line"/>
      <point x="1024" y="1323" type="line"/>
      <point x="1024" y="457" type="line" smooth="yes"/>
      <point x="1024" y="290"/>
      <point x="980" y="170"/>
      <point x="900" y="90" type="curve" smooth="yes"/>
      <point x="819" y="9"/>
      <point x="699" y="-29"/>
    </contour>
  </outline>
</glyph>
<glyph name="uni054A" format="1">
  <advance width="1233"/>
  <unicode hex="054A"/>
  <outline>
    <contour>
      <point x="958" y="917" type="line" smooth="yes" name="dh05"/>
      <point x="958" y="1022"/>
      <point x="951" y="1124"/>
      <point x="912" y="1204" type="curve" smooth="yes" name="dh04"/>
      <point x="873" y="1283" name="dh03"/>
      <point x="807" y="1339"/>
      <point x="691" y="1351" type="curve"/>
      <point x="691" y="475" type="line"/>
      <point x="501" y="475" type="line" name="dh02"/>
      <point x="501" y="1351" type="line" name="dh01"/>
      <point x="385" y="1335"/>
      <point x="321" y="1286"/>
      <point x="282" y="1210" type="curve" smooth="yes" name="at01"/>
      <point x="243" y="1134"/>
      <point x="235" y="1034" name="dh06"/>
      <point x="235" y="917" type="curve" smooth="yes" name="ab01"/>
      <point x="235" y="875" type="line"/>
      <point x="45" y="875" type="line"/>
      <point x="45" y="932" type="line" smooth="yes" name="sh01"/>
      <point x="45" y="1107"/>
      <point x="85" y="1252"/>
      <point x="174" y="1356" type="curve" smooth="yes"/>
      <point x="263" y="1460"/>
      <point x="397" y="1520"/>
      <point x="601" y="1520" type="curve" smooth="yes"/>
      <point x="804" y="1520"/>
      <point x="942" y="1460"/>
      <point x="1029" y="1356" type="curve" smooth="yes"/>
      <point x="1116" y="1252"/>
      <point x="1148" y="1107"/>
      <point x="1148" y="932" type="curve" smooth="yes"/>
      <point x="1148" y="0" type="line"/>
      <point x="958" y="0" type="line"/>
    </contour>
  </outline>
</glyph>
<glyph name="uni0568" format="1">
  <advance width="1233"/>
  <unicode hex="0568"/>
  <outline>
    <contour>
      <point x="183" y="1120" type="line" name="sh01"/>
      <point x="349" y="1120" type="line"/>
      <point x="367" y="952" type="line" name="sh02"/>
      <point x="432" y="1081" name="sv02"/>
      <point x="546" y="1147"/>
      <point x="699" y="1147" type="curve" smooth="yes" name="sh03"/>
      <point x="930" y="1147" name="ah02"/>
      <point x="1039" y="1001"/>
      <point x="1039" y="694" type="curve" smooth="yes" name="sv01"/>
      <point x="1039" y="0" type="line" name="sh04"/>
      <point x="854" y="0" type="line" name="sv03"/>
      <point x="854" y="694" type="line" smooth="yes" name="sh05"/>
      <point x="854" y="895" name="ab01"/>
      <point x="787" y="987"/>
      <point x="636" y="987" type="curve" smooth="yes" name="ah01"/>
      <point x="461" y="987" name="sh06"/>
      <point x="367" y="865"/>
      <point x="367" y="633" type="curve" smooth="yes"/>
      <point x="367" y="-283" type="line"/>
      <point x="1049" y="-283" type="line"/>
      <point x="1049" y="-426" type="line"/>
      <point x="183" y="-426" type="line"/>
    </contour>
  </outline>
</glyph>
<glyph name="uni0575" format="1">
  <advance width="1233"/>
  <unicode hex="0575"/>
  <outline>
    <contour>
      <point x="217" y="-270" type="line" name="sv01"/>
      <point x="451" y="-270" type="line" smooth="yes"/>
      <point x="571" y="-270" name="dh01"/>
      <point x="631" y="-187" name="at01"/>
      <point x="631" y="-20" type="curve" smooth="yes"/>
      <point x="631" y="1120" type="line" name="dh02"/>
      <point x="815" y="1120" type="line" name="ab01"/>
      <point x="815" y="-20" type="line" smooth="yes"/>
      <point x="815" y="-283"/>
      <point x="694" y="-426"/>
      <point x="471" y="-426" type="curve" smooth="yes"/>
      <point x="217" y="-426" type="line"/>
    </contour>
  </outline>
</glyph>
<glyph name="uni0581" format="1">
  <advance width="1233"/>
  <unicode hex="0581"/>
  <outline>
    <contour>
      <point x="597" y="-440" type="curve" smooth="yes" name="dv01"/>
      <point x="496" y="-440"/>
      <point x="384" y="-421" name="ih01"/>
      <point x="272" y="-385" type="curve" name="dv02"/>
      <point x="272" y="-203" type="line" name="ah02"/>
      <point x="406" y="-265" name="iv01"/>
      <point x="505" y="-293" name="ab01"/>
      <point x="603" y="-293" type="curve" smooth="yes" name="sh01"/>
      <point x="796" y="-293" name="sv02"/>
      <point x="882" y="-186" name="sh03"/>
      <point x="882" y="45" type="curve" smooth="yes" name="at01"/>
      <point x="882" y="178" type="line"/>
      <point x="826" y="57" name="sh04"/>
      <point x="726" y="-8"/>
      <point x="581" y="-8" type="curve" smooth="yes" name="sv03"/>
      <point x="314" y="-8" name="sh05"/>
      <point x="147" y="218" name="sv01"/>
      <point x="147" y="570" type="curve" smooth="yes" name="sh02"/>
      <point x="147" y="921"/>
      <point x="313" y="1147" name="ah01"/>
      <point x="582" y="1147" type="curve" smooth="yes" name="sh06"/>
      <point x="719" y="1147"/>
      <point x="821" y="1090"/>
      <point x="882" y="971" type="curve"/>
      <point x="900" y="1116" type="line"/>
      <point x="1066" y="1116" type="line"/>
      <point x="1066" y="72" type="line" smooth="yes"/>
      <point x="1066" y="-267"/>
      <point x="906" y="-440"/>
    </contour>
    <contour>
      <point x="616" y="145" type="curve" smooth="yes"/>
      <point x="792" y="145"/>
      <point x="882" y="292"/>
      <point x="882" y="569" type="curve" smooth="yes"/>
      <point x="882" y="846"/>
      <point x="792" y="991"/>
      <point x="615" y="991" type="curve" smooth="yes"/>
      <point x="439" y="991"/>
      <point x="341" y="847"/>
      <point x="341" y="570" type="curve" smooth="yes"/>
      <point x="341" y="291"/>
      <point x="440" y="145"/>
    </contour>
  </outline>
</glyph>
<glyph name="uni0583" format="1">
  <advance width="1233"/>
  <unicode hex="0583"/>
  <outline>
    <contour>
      <point x="533" y="96" type="line" name="iv01"/>
      <point x="484" y="8" name="ab01"/>
      <point x="420" y="-27"/>
      <point x="333" y="-27" type="curve" smooth="yes" name="sh01"/>
      <point x="246" y="-27" name="at02"/>
      <point x="185" y="9"/>
      <point x="150" y="80" type="curve" smooth="yes" name="sh02"/>
      <point x="115" y="152"/>
      <point x="104" y="256" name="sv01"/>
      <point x="104" y="393" type="curve" smooth="yes"/>
      <point x="104" y="1120" type="line" name="sh04"/>
      <point x="272" y="1120" type="line" name="at01"/>
      <point x="272" y="479" type="line" smooth="yes" name="sh06"/>
      <point x="272" y="281" name="ih01"/>
      <point x="285" y="218" name="dv02"/>
      <point x="301" y="183" type="curve" smooth="yes"/>
      <point x="318" y="148"/>
      <point x="350" y="127" name="sh08"/>
      <point x="403" y="127" type="curve" smooth="yes" name="sh07"/>
      <point x="460" y="127"/>
      <point x="487" y="152"/>
      <point x="503" y="188" type="curve" smooth="yes" name="dv01"/>
      <point x="526" y="237" name="sh09"/>
      <point x="533" y="330"/>
      <point x="533" y="479" type="curve" smooth="yes" name="sh05"/>
      <point x="533" y="1556" type="line" name="sh03"/>
      <point x="700" y="1556" type="line" name="ah01"/>
      <point x="700" y="1024" type="line" name="sh10"/>
      <point x="749" y="1112"/>
      <point x="813" y="1147"/>
      <point x="901" y="1147" type="curve" smooth="yes"/>
      <point x="987" y="1147"/>
      <point x="1048" y="1111"/>
      <point x="1083" y="1040" type="curve" smooth="yes"/>
      <point x="1118" y="968"/>
      <point x="1129" y="864"/>
      <point x="1129" y="727" type="curve" smooth="yes"/>
      <point x="1129" y="0" type="line"/>
      <point x="961" y="0" type="line"/>
      <point x="961" y="641" type="line" smooth="yes"/>
      <point x="961" y="831"/>
      <point x="949" y="903"/>
      <point x="933" y="937" type="curve" smooth="yes"/>
      <point x="914" y="976"/>
      <point x="876" y="993"/>
      <point x="828" y="993" type="curve" smooth="yes"/>
      <point x="737" y="993"/>
      <point x="719" y="927"/>
      <point x="708" y="839" type="curve" smooth="yes"/>
      <point x="703" y="796"/>
      <point x="700" y="742"/>
      <point x="700" y="674" type="curve" smooth="yes"/>
      <point x="700" y="-426" type="line"/>
      <point x="533" y="-426" type="line"/>
    </contour>
  </outline>
</glyph>
<glyph name="uni058A" format="1">
  <advance width="1233"/>
  <unicode hex="058A"/>
  <outline>
    <contour>
      <point x="356" y="643" type="line" name="av01"/>
      <point x="441" y="602" name="dv02"/>
      <point x="525" y="583" name="av02"/>
      <point x="610" y="583" type="curve" smooth="yes"/>
      <point x="698" y="583" name="dv01"/>
      <point x="786" y="604"/>
      <point x="877" y="643" type="curve"/>
      <point x="877" y="479" type="line"/>
      <point x="786" y="440"/>
      <point x="698" y="420"/>
      <point x="609" y="420" type="curve" smooth="yes"/>
      <point x="525" y="420"/>
      <point x="440" y="439"/>
      <point x="356" y="479" type="curve"/>
    </contour>
  </outline>
</glyph>
<glyph name="uni10D0" format="1">
  <advance width="1233"/>
  <unicode hex="10D0"/>
  <outline>
    <contour>
      <point x="609" y="0" type="curve" smooth="yes" name="ab01"/>
      <point x="310" y="0" name="dh01"/>
      <point x="160" y="164"/>
      <point x="160" y="438" type="curve" smooth="yes" name="ih01"/>
      <point x="160" y="522" name="dh02"/>
      <point x="174" y="575" name="sv01"/>
      <point x="240" y="660" type="curve" name="dh05"/>
      <point x="430" y="660" type="line"/>
      <point x="362" y="579" name="dh03"/>
      <point x="345" y="534" name="dh04"/>
      <point x="345" y="453" type="curve" smooth="yes"/>
      <point x="345" y="265" name="dh06"/>
      <point x="436" y="145"/>
      <point x="617" y="145" type="curve" smooth="yes"/>
      <point x="798" y="145" name="sh01"/>
      <point x="889" y="263"/>
      <point x="889" y="466" type="curve" smooth="yes"/>
      <point x="889" y="621"/>
      <point x="836" y="713"/>
      <point x="700" y="768" type="curve"/>
      <point x="505" y="836"/>
      <point x="407" y="962"/>
      <point x="406" y="1146" type="curve"/>
      <point x="587" y="1146" type="line"/>
      <point x="588" y="1039"/>
      <point x="631" y="968"/>
      <point x="714" y="934" type="curve"/>
      <point x="974" y="835"/>
      <point x="1075" y="704"/>
      <point x="1075" y="469" type="curve" smooth="yes"/>
      <point x="1075" y="178"/>
      <point x="920" y="0"/>
    </contour>
  </outline>
</glyph>
<glyph name="uni10D7" format="1">
  <advance width="1233"/>
  <unicode hex="10D7"/>
  <outline>
    <contour>
      <point x="409" y="0" type="curve" smooth="yes" name="ab01"/>
      <point x="177" y="0" name="dh01"/>
      <point x="45" y="174"/>
      <point x="45" y="519" type="curve" smooth="yes" name="sv01"/>
      <point x="45" y="549" type="line" smooth="yes"/>
      <point x="45" y="872"/>
      <point x="171" y="1035" name="dv02"/>
      <point x="419" y="1035" type="curve" smooth="yes"/>
      <point x="518" y="1035" name="dh06"/>
      <point x="590" y="1009" name="ab02"/>
      <point x="643" y="936" type="curve" name="ih01"/>
      <point x="657" y="936" type="line" name="dh05"/>
      <point x="714" y="1011"/>
      <point x="775" y="1035" name="dv01"/>
      <point x="855" y="1035" type="curve" smooth="yes"/>
      <point x="1056" y="1035"/>
      <point x="1168" y="885" name="dh04"/>
      <point x="1168" y="584" type="curve" smooth="yes"/>
      <point x="1168" y="517" type="line" smooth="yes" name="sv02"/>
      <point x="1168" y="284" name="dh03"/>
      <point x="1088" y="111"/>
      <point x="929" y="0" type="curve" name="sv03"/>
      <point x="767" y="0" type="line"/>
      <point x="908" y="116"/>
      <point x="979" y="281" name="dh02"/>
      <point x="979" y="496" type="curve" smooth="yes"/>
      <point x="979" y="613" type="line" smooth="yes"/>
      <point x="979" y="800" name="sh01"/>
      <point x="935" y="894"/>
      <point x="847" y="894" type="curve" smooth="yes"/>
      <point x="814" y="894" type="line" smooth="yes"/>
      <point x="759" y="894"/>
      <point x="731" y="833"/>
      <point x="731" y="712" type="curve" smooth="yes"/>
      <point x="731" y="492" type="line" smooth="yes"/>
      <point x="731" y="153"/>
      <point x="628" y="0"/>
    </contour>
    <contour>
      <point x="405" y="145" type="curve" smooth="yes"/>
      <point x="515" y="145"/>
      <point x="570" y="226"/>
      <point x="570" y="388" type="curve" smooth="yes"/>
      <point x="570" y="749" type="line" smooth="yes"/>
      <point x="570" y="849"/>
      <point x="549" y="894"/>
      <point x="502" y="894" type="curve"/>
      <point x="415" y="893" type="line" smooth="yes"/>
      <point x="294" y="892"/>
      <point x="235" y="808"/>
      <point x="235" y="621" type="curve" smooth="yes"/>
      <point x="235" y="432" type="line" smooth="yes"/>
      <point x="235" y="235"/>
      <point x="289" y="145"/>
    </contour>
  </outline>
</glyph>
<glyph name="uni10D8" format="1">
  <advance width="1233"/>
  <unicode hex="10D8"/>
  <outline>
    <contour>
      <point x="396" y="0" type="line" name="ab01"/>
      <point x="231" y="144" name="sh01"/>
      <point x="160" y="324" name="dv02"/>
      <point x="160" y="551" type="curve" smooth="yes" name="sh02"/>
      <point x="160" y="880" name="ab02"/>
      <point x="313" y="1045" name="ih01"/>
      <point x="619" y="1045" type="curve" smooth="yes" name="ah02"/>
      <point x="922" y="1045" name="dv01"/>
      <point x="1074" y="881" name="sh03"/>
      <point x="1074" y="554" type="curve" smooth="yes" name="ih02"/>
      <point x="1074" y="322"/>
      <point x="999" y="137" name="ah01"/>
      <point x="834" y="0" type="curve" name="sh04"/>
      <point x="688" y="0" type="line"/>
      <point x="819" y="168"/>
      <point x="889" y="383"/>
      <point x="889" y="565" type="curve" smooth="yes"/>
      <point x="889" y="754"/>
      <point x="813" y="902"/>
      <point x="618" y="902" type="curve" smooth="yes"/>
      <point x="446" y="902"/>
      <point x="346" y="785"/>
      <point x="346" y="552" type="curve" smooth="yes"/>
      <point x="346" y="363"/>
      <point x="412" y="179"/>
      <point x="544" y="0" type="curve"/>
    </contour>
  </outline>
</glyph>
<glyph name="uni10DC" format="1">
  <advance width="1233"/>
  <unicode hex="10DC"/>
  <outline>
    <contour>
      <point x="607" y="0" type="curve" smooth="yes" name="ab01"/>
      <point x="312" y="0" name="sh01"/>
      <point x="159" y="163"/>
      <point x="159" y="490" type="curve" smooth="yes"/>
      <point x="159" y="1184" type="line" name="dv02"/>
      <point x="158" y="1415" name="dv01"/>
      <point x="268" y="1531"/>
      <point x="491" y="1531" type="curve" smooth="yes" name="sh03"/>
      <point x="953" y="1531" type="line" name="sv01"/>
      <point x="953" y="1388" type="line"/>
      <point x="471" y="1388" type="line" smooth="yes" name="dv04"/>
      <point x="377" y="1388" name="sh04"/>
      <point x="330" y="1329"/>
      <point x="330" y="1212" type="curve" smooth="yes" name="sv02"/>
      <point x="330" y="918" type="line" name="ah02"/>
      <point x="365" y="918" type="line" name="dv03"/>
      <point x="412" y="1006" name="sh02"/>
      <point x="484" y="1046"/>
      <point x="627" y="1046" type="curve" smooth="yes" name="ah01"/>
      <point x="919" y="1046" name="sh05"/>
      <point x="1074" y="879"/>
      <point x="1074" y="531" type="curve" smooth="yes"/>
      <point x="1074" y="186"/>
      <point x="920" y="0"/>
    </contour>
    <contour>
      <point x="609" y="146" type="curve" smooth="yes"/>
      <point x="797" y="146"/>
      <point x="889" y="279"/>
      <point x="889" y="534" type="curve" smooth="yes"/>
      <point x="889" y="783"/>
      <point x="798" y="904"/>
      <point x="615" y="904" type="curve" smooth="yes"/>
      <point x="428" y="904"/>
      <point x="338" y="782"/>
      <point x="338" y="526" type="curve" smooth="yes"/>
      <point x="338" y="273"/>
      <point x="428" y="146"/>
    </contour>
  </outline>
</glyph>
<glyph name="uni10DD" format="1">
  <advance width="1233"/>
  <unicode hex="10DD"/>
  <outline>
    <contour>
      <point x="254" y="0" type="line" name="ab01"/>
      <point x="121" y="149" name="dh01"/>
      <point x="55" y="303"/>
      <point x="55" y="461" type="curve" smooth="yes" name="sv01"/>
      <point x="55" y="563" type="line" smooth="yes"/>
      <point x="55" y="878"/>
      <point x="190" y="1035" name="dv02"/>
      <point x="414" y="1035" type="curve" smooth="yes"/>
      <point x="509" y="1035" name="dh06"/>
      <point x="554" y="1007" name="ab02"/>
      <point x="611" y="931" type="curve" name="ih01"/>
      <point x="628" y="931" type="line" name="dh05"/>
      <point x="687" y="1015"/>
      <point x="732" y="1035" name="dv01"/>
      <point x="813" y="1035" type="curve" smooth="yes"/>
      <point x="1040" y="1035"/>
      <point x="1178" y="878" name="dh04"/>
      <point x="1178" y="561" type="curve" smooth="yes" name="dh03"/>
      <point x="1178" y="454" type="line" smooth="yes"/>
      <point x="1178" y="297" name="sv02"/>
      <point x="1115" y="145"/>
      <point x="990" y="0" type="curve"/>
      <point x="811" y="0" type="line" name="dh02"/>
      <point x="930" y="129" name="ih02"/>
      <point x="990" y="262"/>
      <point x="990" y="399" type="curve" smooth="yes"/>
      <point x="990" y="680" type="line" smooth="yes" name="sh01"/>
      <point x="990" y="823"/>
      <point x="939" y="895"/>
      <point x="837" y="894" type="curve"/>
      <point x="762" y="894" type="line" smooth="yes"/>
      <point x="719" y="894"/>
      <point x="698" y="825"/>
      <point x="698" y="687" type="curve" smooth="yes"/>
      <point x="698" y="410" type="line"/>
      <point x="538" y="410" type="line"/>
      <point x="538" y="687" type="line" smooth="yes"/>
      <point x="538" y="825"/>
      <point x="516" y="894"/>
      <point x="472" y="894" type="curve" smooth="yes"/>
      <point x="395" y="894" type="line" smooth="yes"/>
      <point x="296" y="894"/>
      <point x="247" y="818"/>
      <point x="247" y="666" type="curve" smooth="yes"/>
      <point x="247" y="406" type="line" smooth="yes"/>
      <point x="247" y="259"/>
      <point x="312" y="129"/>
      <point x="448" y="0" type="curve"/>
    </contour>
  </outline>
</glyph>
<glyph name="uni10DE" format="1">
  <advance width="1233"/>
  <unicode hex="10DE"/>
  <outline>
    <contour>
      <point x="619" y="0" type="curve" smooth="yes" name="ab01"/>
      <point x="326" y="0" name="dh01"/>
      <point x="160" y="144"/>
      <point x="160" y="429" type="curve" smooth="yes" name="ih01"/>
      <point x="160" y="555" name="dh02"/>
      <point x="194" y="648" name="sv01"/>
      <point x="261" y="707" type="curve" name="sh01"/>
      <point x="436" y="707" type="line" name="dv01"/>
      <point x="375" y="624"/>
      <point x="345" y="532" name="dh03"/>
      <point x="345" y="431" type="curve" smooth="yes" name="dv02"/>
      <point x="345" y="240" name="sh03"/>
      <point x="446" y="145"/>
      <point x="621" y="145" type="curve" smooth="yes" name="av01"/>
      <point x="804" y="145"/>
      <point x="888" y="249"/>
      <point x="888" y="469" type="curve" smooth="yes" name="dh04"/>
      <point x="888" y="696" name="sh04"/>
      <point x="799" y="804"/>
      <point x="612" y="804" type="curve" smooth="yes" name="sh02"/>
      <point x="549" y="804" type="line"/>
      <point x="549" y="939" type="line"/>
      <point x="631" y="939" type="line" smooth="yes" name="sh05"/>
      <point x="771" y="939"/>
      <point x="847" y="1017"/>
      <point x="847" y="1105" type="curve" smooth="yes"/>
      <point x="847" y="1197"/>
      <point x="760" y="1297"/>
      <point x="568" y="1321" type="curve"/>
      <point x="373" y="1357"/>
      <point x="276" y="1434"/>
      <point x="276" y="1551" type="curve"/>
      <point x="448" y="1551" type="line"/>
      <point x="448" y="1504"/>
      <point x="528" y="1466"/>
      <point x="687" y="1439" type="curve"/>
      <point x="915" y="1412"/>
      <point x="1030" y="1316"/>
      <point x="1030" y="1135" type="curve" smooth="yes"/>
      <point x="1030" y="1007"/>
      <point x="973" y="916"/>
      <point x="844" y="873" type="curve"/>
      <point x="844" y="853" type="line"/>
      <point x="1005" y="776"/>
      <point x="1076" y="661"/>
      <point x="1076" y="457" type="curve" smooth="yes"/>
      <point x="1076" y="160"/>
      <point x="928" y="0"/>
    </contour>
  </outline>
</glyph>
<glyph name="uni10E0" format="1">
  <advance width="1233"/>
  <unicode hex="10E0"/>
  <outline>
    <contour>
      <point x="265" y="0" type="line" name="ab01"/>
      <point x="125" y="140" name="dh01"/>
      <point x="55" y="303"/>
      <point x="55" y="490" type="curve" smooth="yes" name="at01"/>
      <point x="55" y="593" type="line" smooth="yes"/>
      <point x="55" y="928" name="ih01"/>
      <point x="260" y="1393"/>
      <point x="824" y="1557" type="curve" name="sv01"/>
      <point x="849" y="1409" type="line"/>
      <point x="607" y="1354"/>
      <point x="414" y="1209" name="dv02"/>
      <point x="269" y="974" type="curve"/>
      <point x="293" y="974" type="line" name="dh06"/>
      <point x="379" y="1035" type="line" name="ab02"/>
      <point x="489" y="1035" name="ih02"/>
      <point x="568" y="1002" name="dh05"/>
      <point x="616" y="937" type="curve"/>
      <point x="631" y="937" type="line" name="dv01"/>
      <point x="678" y="1001"/>
      <point x="756" y="1035"/>
      <point x="861" y="1035" type="curve" smooth="yes" name="dh04"/>
      <point x="1073" y="1035" name="dh03"/>
      <point x="1178" y="891"/>
      <point x="1178" y="596" type="curve" smooth="yes" name="sv02"/>
      <point x="1178" y="454" type="line" smooth="yes"/>
      <point x="1178" y="291"/>
      <point x="1109" y="139" name="dh02"/>
      <point x="970" y="0" type="curve" name="ih03"/>
      <point x="773" y="0" type="line"/>
      <point x="917" y="123"/>
      <point x="989" y="257" name="sh01"/>
      <point x="989" y="403" type="curve" smooth="yes"/>
      <point x="989" y="596" type="line" smooth="yes"/>
      <point x="989" y="795"/>
      <point x="945" y="894"/>
      <point x="857" y="894" type="curve" smooth="yes"/>
      <point x="769" y="894" type="line" smooth="yes"/>
      <point x="726" y="894"/>
      <point x="704" y="838"/>
      <point x="704" y="727" type="curve" smooth="yes"/>
      <point x="704" y="410" type="line"/>
      <point x="544" y="410" type="line"/>
      <point x="545" y="727" type="line" smooth="yes"/>
      <point x="546" y="838"/>
      <point x="522" y="894"/>
      <point x="472" y="894" type="curve" smooth="yes"/>
      <point x="348" y="894" type="line" smooth="yes"/>
      <point x="279" y="894"/>
      <point x="245" y="796"/>
      <point x="245" y="601" type="curve" smooth="yes"/>
      <point x="245" y="436" type="line" smooth="yes"/>
      <point x="245" y="269"/>
      <point x="322" y="123"/>
      <point x="475" y="0" type="curve"/>
    </contour>
  </outline>
</glyph>
<glyph name="uni10E3" format="1">
  <advance width="1233"/>
  <unicode hex="10E3"/>
  <outline>
    <contour>
      <point x="658" y="-423" type="curve" smooth="yes" name="dv01"/>
      <point x="341" y="-423" name="dh01"/>
      <point x="180" y="-272"/>
      <point x="180" y="-19" type="curve" smooth="yes" name="ih01"/>
      <point x="180" y="99" name="dh02"/>
      <point x="214" y="175" name="dv02"/>
      <point x="325" y="246" type="curve" name="dh05"/>
      <point x="504" y="246" type="line"/>
      <point x="400" y="150" name="sv01"/>
      <point x="366" y="81" name="dh04"/>
      <point x="366" y="-17" type="curve" smooth="yes"/>
      <point x="366" y="-182"/>
      <point x="464" y="-283" name="dh03"/>
      <point x="660" y="-283" type="curve" smooth="yes" name="sv02"/>
      <point x="833" y="-283"/>
      <point x="920" y="-203" name="dv03"/>
      <point x="920" y="-43" type="curve" smooth="yes"/>
      <point x="920" y="703" type="line" smooth="yes" name="av01"/>
      <point x="920" y="826" name="dv04"/>
      <point x="859" y="894"/>
      <point x="798" y="894" type="curve" smooth="yes" name="av02"/>
      <point x="730" y="894"/>
      <point x="658" y="811"/>
      <point x="658" y="623" type="curve" name="av03"/>
      <point x="648" y="430" type="line"/>
      <point x="515" y="430" type="line" name="dh06"/>
      <point x="506" y="623" type="line"/>
      <point x="506" y="802"/>
      <point x="469" y="893" name="sh01"/>
      <point x="396" y="894" type="curve"/>
      <point x="347" y="891"/>
      <point x="328" y="871"/>
      <point x="303" y="826" type="curve" smooth="yes"/>
      <point x="287" y="796"/>
      <point x="266" y="759"/>
      <point x="211" y="759" type="curve" smooth="yes"/>
      <point x="162" y="759"/>
      <point x="110" y="791"/>
      <point x="55" y="854" type="curve"/>
      <point x="105" y="1035" type="line"/>
      <point x="150" y="964"/>
      <point x="179" y="937"/>
      <point x="216" y="937" type="curve" smooth="yes"/>
      <point x="253" y="937"/>
      <point x="272" y="963"/>
      <point x="291" y="987" type="curve" smooth="yes"/>
      <point x="315" y="1019"/>
      <point x="341" y="1036"/>
      <point x="388" y="1036" type="curve" smooth="yes"/>
      <point x="462" y="1036"/>
      <point x="515" y="992"/>
      <point x="569" y="852" type="curve"/>
      <point x="589" y="852" type="line"/>
      <point x="648" y="997"/>
      <point x="711" y="1035"/>
      <point x="814" y="1035" type="curve" smooth="yes"/>
      <point x="987" y="1035"/>
      <point x="1098" y="925"/>
      <point x="1098" y="703" type="curve" smooth="yes"/>
      <point x="1098" y="-43" type="line" smooth="yes"/>
      <point x="1098" y="-296"/>
      <point x="951" y="-423"/>
    </contour>
  </outline>
</glyph>
<glyph name="uni10E4" format="1">
  <advance width="1233"/>
  <unicode hex="10E4"/>
  <outline>
    <contour>
      <point x="655" y="-425" type="line" smooth="yes" name="ab01"/>
      <point x="368" y="-425" name="sh01"/>
      <point x="225" y="-295" name="sh02"/>
      <point x="225" y="-36" type="curve" name="sv01"/>
      <point x="408" y="-36" type="line"/>
      <point x="408" y="-201" name="sh04"/>
      <point x="491" y="-283"/>
      <point x="657" y="-283" type="curve" smooth="yes" name="sv02"/>
      <point x="704" y="-283" type="line" smooth="yes" name="dh05"/>
      <point x="889" y="-283"/>
      <point x="982" y="-209" name="sv03"/>
      <point x="982" y="-61" type="curve" smooth="yes" name="sh03"/>
      <point x="982" y="40" type="line" smooth="yes"/>
      <point x="982" y="151" name="dv01"/>
      <point x="963" y="207"/>
      <point x="925" y="208" type="curve"/>
      <point x="845" y="208" type="line" name="dh04"/>
      <point x="845" y="359" type="line" name="dv03"/>
      <point x="925" y="359" type="line" name="dh01"/>
      <point x="961" y="360"/>
      <point x="979" y="409" name="sv04"/>
      <point x="979" y="508" type="curve" smooth="yes"/>
      <point x="979" y="690" type="line" smooth="yes"/>
      <point x="979" y="826" name="dv02"/>
      <point x="946" y="894" name="sh05"/>
      <point x="879" y="894" type="curve" smooth="yes"/>
      <point x="796" y="894" type="line" smooth="yes"/>
      <point x="757" y="894" name="dh06"/>
      <point x="737" y="853"/>
      <point x="737" y="771" type="curve" smooth="yes"/>
      <point x="737" y="569" type="line" smooth="yes" name="dv04"/>
      <point x="737" y="241" name="dh03"/>
      <point x="557" y="88"/>
      <point x="380" y="88" type="curve" smooth="yes" name="sv05"/>
      <point x="211" y="88"/>
      <point x="45" y="230"/>
      <point x="45" y="497" type="curve" smooth="yes" name="dh02"/>
      <point x="45" y="625" type="line" smooth="yes"/>
      <point x="45" y="898"/>
      <point x="176" y="1035" name="sh06"/>
      <point x="409" y="1035" type="curve" smooth="yes"/>
      <point x="509" y="1035"/>
      <point x="573" y="1011"/>
      <point x="625" y="936" type="curve"/>
      <point x="642" y="936" type="line"/>
      <point x="706" y="1002"/>
      <point x="785" y="1035"/>
      <point x="878" y="1035" type="curve" smooth="yes"/>
      <point x="1071" y="1035"/>
      <point x="1168" y="895"/>
      <point x="1168" y="643" type="curve" smooth="yes"/>
      <point x="1168" y="460"/>
      <point x="1117" y="356"/>
      <point x="1010" y="297" type="curve"/>
      <point x="1010" y="277" type="line"/>
      <point x="1117" y="216"/>
      <point x="1171" y="138"/>
      <point x="1171" y="44" type="curve" smooth="yes"/>
      <point x="1171" y="-61" type="line" smooth="yes"/>
      <point x="1171" y="-304"/>
      <point x="1018" y="-425"/>
      <point x="711" y="-425" type="curve" smooth="yes"/>
    </contour>
    <contour>
      <point x="409" y="215" type="curve" smooth="yes"/>
      <point x="515" y="215"/>
      <point x="568" y="302"/>
      <point x="568" y="476" type="curve" smooth="yes"/>
      <point x="568" y="727" type="line" smooth="yes"/>
      <point x="568" y="838"/>
      <point x="537" y="894"/>
      <point x="474" y="894" type="curve" smooth="yes"/>
      <point x="397" y="894" type="line" smooth="yes"/>
      <point x="289" y="894"/>
      <point x="235" y="807"/>
      <point x="235" y="632" type="curve" smooth="yes"/>
      <point x="235" y="512" type="line" smooth="yes"/>
      <point x="235" y="313"/>
      <point x="294" y="215"/>
    </contour>
  </outline>
</glyph>
<glyph name="uni10E5" format="1">
  <advance width="1233"/>
  <unicode hex="10E5"/>
  <outline>
    <contour>
      <point x="598" y="-425" type="curve" smooth="yes" name="ab01"/>
      <point x="291" y="-425" name="dh01"/>
      <point x="130" y="-264"/>
      <point x="130" y="-20" type="curve" smooth="yes" name="ih01"/>
      <point x="130" y="89" name="dh02"/>
      <point x="162" y="151" name="sv01"/>
      <point x="264" y="232" type="curve"/>
      <point x="440" y="231" type="line" name="dh03"/>
      <point x="346" y="137" name="dv01"/>
      <point x="315" y="74" name="sh01"/>
      <point x="315" y="-17" type="curve" smooth="yes" name="ih03"/>
      <point x="315" y="-177"/>
      <point x="414" y="-283" name="ih02"/>
      <point x="598" y="-283" type="curve" smooth="yes" name="dv02"/>
      <point x="789" y="-283"/>
      <point x="868" y="-169" name="sh02"/>
      <point x="869" y="67" type="curve" smooth="yes" name="av01"/>
      <point x="870" y="363" type="line" smooth="yes"/>
      <point x="871" y="728" name="dh04"/>
      <point x="777" y="903"/>
      <point x="564" y="903" type="curve" smooth="yes"/>
      <point x="447" y="903" name="sh03"/>
      <point x="384" y="851"/>
      <point x="384" y="720" type="curve" smooth="yes"/>
      <point x="384" y="634"/>
      <point x="412" y="524"/>
      <point x="466" y="470" type="curve"/>
      <point x="287" y="470" type="line"/>
      <point x="238" y="546"/>
      <point x="217" y="643"/>
      <point x="217" y="734" type="curve" smooth="yes"/>
      <point x="217" y="959"/>
      <point x="348" y="1046"/>
      <point x="496" y="1046" type="curve" smooth="yes"/>
      <point x="634" y="1046"/>
      <point x="777" y="971"/>
      <point x="852" y="856" type="curve"/>
      <point x="869" y="856" type="line"/>
      <point x="870" y="1521" type="line"/>
      <point x="1043" y="1521" type="line"/>
      <point x="1043" y="67" type="line" smooth="yes"/>
      <point x="1043" y="-270"/>
      <point x="899" y="-425"/>
    </contour>
  </outline>
</glyph>
<glyph name="uni10E7" format="1">
  <advance width="1233"/>
  <unicode hex="10E7"/>
  <outline>
    <contour>
      <point x="628" y="-423" type="curve" smooth="yes" name="dv01"/>
      <point x="316" y="-423" name="sh02"/>
      <point x="158" y="-291" name="sh04"/>
      <point x="158" y="-23" type="curve" name="dv02"/>
      <point x="346" y="-23" type="line" name="ah02"/>
      <point x="346" y="-198"/>
      <point x="442" y="-284"/>
      <point x="629" y="-284" type="curve" smooth="yes" name="dv03"/>
      <point x="806" y="-284" name="sh01"/>
      <point x="895" y="-204" name="av01"/>
      <point x="895" y="-43" type="curve" smooth="yes" name="ih01"/>
      <point x="895" y="201" type="line" name="sh03"/>
      <point x="875" y="201" type="line" name="dv04"/>
      <point x="814" y="134" name="sh06"/>
      <point x="733" y="103" name="av02"/>
      <point x="606" y="103" type="curve" smooth="yes"/>
      <point x="309" y="103" name="sh05"/>
      <point x="158" y="281"/>
      <point x="158" y="562" type="curve" smooth="yes" name="ah01"/>
      <point x="158" y="766" name="sh07"/>
      <point x="238" y="893"/>
      <point x="437" y="1015" type="curve"/>
      <point x="653" y="1015" type="line"/>
      <point x="427" y="858"/>
      <point x="345" y="742"/>
      <point x="345" y="558" type="curve" smooth="yes"/>
      <point x="345" y="367"/>
      <point x="434" y="251"/>
      <point x="631" y="251" type="curve" smooth="yes"/>
      <point x="792" y="251"/>
      <point x="895" y="329"/>
      <point x="895" y="486" type="curve" smooth="yes"/>
      <point x="895" y="1007" type="line"/>
      <point x="1074" y="1007" type="line"/>
      <point x="1074" y="-47" type="line" smooth="yes"/>
      <point x="1074" y="-300"/>
      <point x="927" y="-423"/>
    </contour>
  </outline>
</glyph>
<glyph name="uni10E8" format="1">
  <advance width="1233"/>
  <unicode hex="10E8"/>
  <outline>
    <contour>
      <point x="662" y="0" type="curve" smooth="yes" name="ab01"/>
      <point x="315" y="0" name="ih01"/>
      <point x="158" y="267" name="dv02"/>
      <point x="158" y="530" type="curve" smooth="yes" name="sv01"/>
      <point x="158" y="791" name="sh01"/>
      <point x="313" y="1046"/>
      <point x="613" y="1046" type="curve" smooth="yes" name="sv02"/>
      <point x="737" y="1046"/>
      <point x="828" y="1004" name="dh04"/>
      <point x="875" y="916" type="curve" name="dh03"/>
      <point x="895" y="916" type="line"/>
      <point x="895" y="1205" type="line" smooth="yes" name="sv03"/>
      <point x="895" y="1347" name="dh02"/>
      <point x="848" y="1418" name="dh01"/>
      <point x="753" y="1418" type="curve" smooth="yes" name="at01"/>
      <point x="659" y="1418"/>
      <point x="612" y="1348"/>
      <point x="612" y="1208" type="curve" smooth="yes" name="at02"/>
      <point x="612" y="1175" type="line"/>
      <point x="455" y="1175" type="line" name="dh06"/>
      <point x="455" y="1210" type="line" smooth="yes"/>
      <point x="455" y="1349" name="sv04"/>
      <point x="394" y="1418" name="dh05"/>
      <point x="312" y="1418" type="curve" smooth="yes" name="dv01"/>
      <point x="237" y="1418" name="sh02"/>
      <point x="210" y="1362"/>
      <point x="210" y="1192" type="curve"/>
      <point x="55" y="1192" type="line" name="sh03"/>
      <point x="55" y="1441"/>
      <point x="128" y="1556"/>
      <point x="281" y="1556" type="curve" smooth="yes"/>
      <point x="394" y="1556"/>
      <point x="481" y="1495"/>
      <point x="524" y="1363" type="curve"/>
      <point x="544" y="1363" type="line"/>
      <point x="587" y="1496"/>
      <point x="653" y="1556"/>
      <point x="788" y="1556" type="curve" smooth="yes"/>
      <point x="977" y="1556"/>
      <point x="1074" y="1443"/>
      <point x="1074" y="1236" type="curve"/>
      <point x="1076" y="477" type="line" smooth="yes"/>
      <point x="1077" y="166"/>
      <point x="935" y="0"/>
    </contour>
    <contour>
      <point x="637" y="145" type="curve" smooth="yes"/>
      <point x="812" y="145"/>
      <point x="890" y="260"/>
      <point x="890" y="505" type="curve" smooth="yes"/>
      <point x="890" y="776"/>
      <point x="797" y="904"/>
      <point x="613" y="904" type="curve" smooth="yes"/>
      <point x="432" y="904"/>
      <point x="346" y="778"/>
      <point x="346" y="538" type="curve" smooth="yes"/>
      <point x="346" y="271"/>
      <point x="453" y="145"/>
    </contour>
  </outline>
</glyph>
<glyph name="uni10EC" format="1">
  <advance width="1233"/>
  <unicode hex="10EC"/>
  <outline>
    <contour>
      <point x="589" y="0" type="curve" smooth="yes" name="ab01"/>
      <point x="316" y="0" name="dh01"/>
      <point x="161" y="176"/>
      <point x="161" y="527" type="curve" smooth="yes" name="at01"/>
      <point x="161" y="1236" type="line" smooth="yes"/>
      <point x="161" y="1451"/>
      <point x="265" y="1556" name="at02"/>
      <point x="449" y="1556" type="curve" smooth="yes" name="sh01"/>
      <point x="580" y="1556" name="ih01"/>
      <point x="649" y="1500" name="sv01"/>
      <point x="693" y="1363" type="curve"/>
      <point x="713" y="1363" type="line" name="dh04"/>
      <point x="753" y="1490" name="dh03"/>
      <point x="839" y="1556"/>
      <point x="955" y="1556" type="curve" smooth="yes" name="sv02"/>
      <point x="1108" y="1556" name="sh02"/>
      <point x="1180" y="1441" name="sv03"/>
      <point x="1180" y="1192" type="curve"/>
      <point x="1027" y="1192" type="line" name="dv02"/>
      <point x="1027" y="1362" name="dh06"/>
      <point x="1000" y="1418"/>
      <point x="925" y="1418" type="curve" smooth="yes" name="dh05"/>
      <point x="842" y="1418" name="dv01"/>
      <point x="782" y="1349" name="dh02"/>
      <point x="782" y="1210" type="curve" smooth="yes" name="sv04"/>
      <point x="782" y="1175" type="line"/>
      <point x="625" y="1175" type="line"/>
      <point x="625" y="1208" type="line" smooth="yes" name="sh03"/>
      <point x="625" y="1348"/>
      <point x="578" y="1418"/>
      <point x="484" y="1418" type="curve" smooth="yes"/>
      <point x="389" y="1418"/>
      <point x="342" y="1347"/>
      <point x="342" y="1205" type="curve" smooth="yes"/>
      <point x="342" y="916" type="line"/>
      <point x="362" y="916" type="line"/>
      <point x="409" y="1004"/>
      <point x="504" y="1046"/>
      <point x="625" y="1046" type="curve" smooth="yes"/>
      <point x="923" y="1046"/>
      <point x="1074" y="790"/>
      <point x="1074" y="527" type="curve" smooth="yes"/>
      <point x="1074" y="265"/>
      <point x="925" y="0"/>
    </contour>
    <contour>
      <point x="889" y="522" type="curve" smooth="yes"/>
      <point x="889" y="781"/>
      <point x="750" y="905"/>
      <point x="610" y="905" type="curve" smooth="yes"/>
      <point x="482" y="905"/>
      <point x="347" y="799"/>
      <point x="347" y="549" type="curve" smooth="yes"/>
      <point x="347" y="297"/>
      <point x="483" y="146"/>
      <point x="627" y="146" type="curve" smooth="yes"/>
      <point x="758" y="146"/>
      <point x="889" y="271"/>
    </contour>
  </outline>
</glyph>
<glyph name="uni10F0" format="1">
  <advance width="1233"/>
  <unicode hex="10F0"/>
  <outline>
    <contour>
      <point x="604" y="0" type="curve" smooth="yes" name="ab01"/>
      <point x="295" y="0" name="dh01"/>
      <point x="140" y="139" name="sv01"/>
      <point x="140" y="416" type="curve" smooth="yes"/>
      <point x="140" y="517" type="line" name="dh02"/>
      <point x="328" y="517" type="line" name="sv02"/>
      <point x="328" y="416" type="line"/>
      <point x="327" y="232" name="dv01"/>
      <point x="416" y="140"/>
      <point x="595" y="140" type="curve" smooth="yes"/>
      <point x="800" y="140" name="dv02"/>
      <point x="873" y="258" name="sh01"/>
      <point x="873" y="365" type="curve" smooth="yes" name="dv03"/>
      <point x="873" y="449"/>
      <point x="826" y="527"/>
      <point x="762" y="527" type="curve" smooth="yes" name="dv04"/>
      <point x="511" y="527" type="line" name="dh05"/>
      <point x="511" y="677" type="line"/>
      <point x="762" y="677" type="line" smooth="yes" name="dh03"/>
      <point x="829" y="677" name="dh04"/>
      <point x="863" y="737"/>
      <point x="863" y="796" type="curve" smooth="yes"/>
      <point x="863" y="856"/>
      <point x="829" y="914"/>
      <point x="762" y="914" type="curve" smooth="yes" name="sh02"/>
      <point x="511" y="914" type="line"/>
      <point x="511" y="1066" type="line"/>
      <point x="760" y="1066" type="line" smooth="yes" name="dh06"/>
      <point x="820" y="1066"/>
      <point x="852" y="1121"/>
      <point x="852" y="1182" type="curve" smooth="yes" name="sh03"/>
      <point x="852" y="1260"/>
      <point x="802" y="1281"/>
      <point x="596" y="1316" type="curve"/>
      <point x="523" y="1327"/>
      <point x="363" y="1356"/>
      <point x="363" y="1556" type="curve"/>
      <point x="529" y="1556" type="line"/>
      <point x="529" y="1454"/>
      <point x="666" y="1428"/>
      <point x="805" y="1409" type="curve"/>
      <point x="875" y="1401"/>
      <point x="1038" y="1377"/>
      <point x="1038" y="1198" type="curve" smooth="yes"/>
      <point x="1038" y="1101"/>
      <point x="990" y="1038"/>
      <point x="894" y="1007" type="curve"/>
      <point x="894" y="987" type="line"/>
      <point x="998" y="951"/>
      <point x="1048" y="886"/>
      <point x="1048" y="798" type="curve" smooth="yes"/>
      <point x="1048" y="713"/>
      <point x="999" y="651"/>
      <point x="900" y="612" type="curve"/>
      <point x="900" y="592" type="line"/>
      <point x="1015" y="520"/>
      <point x="1058" y="455"/>
      <point x="1058" y="342" type="curve" smooth="yes"/>
      <point x="1058" y="130"/>
      <point x="905" y="0"/>
    </contour>
  </outline>
</glyph>
<glyph name="uni10F1" format="1">
  <advance width="1233"/>
  <unicode hex="10F1"/>
  <outline>
    <contour>
      <point x="660" y="-423" type="curve" smooth="yes" name="dv01"/>
      <point x="279" y="-423" name="dh01"/>
      <point x="138" y="-254"/>
      <point x="138" y="102" type="curve" smooth="yes" name="ih01"/>
      <point x="138" y="229" name="ih02"/>
      <point x="156" y="432"/>
      <point x="193" y="617" type="curve" smooth="yes" name="sh01"/>
      <point x="204" y="670" name="sh02"/>
      <point x="211" y="710" name="dh02"/>
      <point x="211" y="777" type="curve" smooth="yes" name="dv02"/>
      <point x="211" y="898" name="sh03"/>
      <point x="188" y="1022" name="dv03"/>
      <point x="143" y="1163" type="curve" name="sh04"/>
      <point x="328" y="1163" type="line"/>
      <point x="367" y="1043" name="dv04"/>
      <point x="386" y="917" name="sh05"/>
      <point x="386" y="786" type="curve" smooth="yes" name="dv07"/>
      <point x="386" y="733" name="sh06"/>
      <point x="383" y="676"/>
      <point x="375" y="617" type="curve" name="dv08"/>
      <point x="338" y="463" name="sh07"/>
      <point x="325" y="206" name="dv05"/>
      <point x="325" y="90" type="curve" smooth="yes" name="sh08"/>
      <point x="325" y="-113"/>
      <point x="367" y="-284" name="dv06"/>
      <point x="674" y="-284" type="curve" smooth="yes" name="sh09"/>
      <point x="843" y="-284"/>
      <point x="915" y="-232" name="dh03"/>
      <point x="915" y="-105" type="curve" smooth="yes"/>
      <point x="915" y="-5"/>
      <point x="871" y="76" name="dh04"/>
      <point x="781" y="76" type="curve" smooth="yes" name="sh10"/>
      <point x="645" y="76" type="line"/>
      <point x="645" y="218" type="line" name="sh11"/>
      <point x="781" y="218" type="line" smooth="yes" name="sh12"/>
      <point x="870" y="218"/>
      <point x="915" y="265" name="sh13"/>
      <point x="915" y="360" type="curve" smooth="yes" name="sh14"/>
      <point x="915" y="459"/>
      <point x="871" y="517" name="sh15"/>
      <point x="783" y="517" type="curve" smooth="yes"/>
      <point x="645" y="517" type="line"/>
      <point x="645" y="655" type="line" name="sh16"/>
      <point x="783" y="655" type="line" smooth="yes"/>
      <point x="871" y="655"/>
      <point x="915" y="707"/>
      <point x="915" y="806" type="curve" smooth="yes"/>
      <point x="915" y="899"/>
      <point x="874" y="942"/>
      <point x="781" y="942" type="curve" smooth="yes"/>
      <point x="645" y="942" type="line"/>
      <point x="645" y="1087" type="line"/>
      <point x="781" y="1087" type="line" smooth="yes"/>
      <point x="868" y="1087"/>
      <point x="915" y="1136"/>
      <point x="915" y="1192" type="curve" smooth="yes"/>
      <point x="915" y="1253"/>
      <point x="858" y="1320"/>
      <point x="729" y="1344" type="curve"/>
      <point x="632" y="1367"/>
      <point x="584" y="1437"/>
      <point x="583" y="1556" type="curve"/>
      <point x="749" y="1556" type="line"/>
      <point x="749" y="1495"/>
      <point x="836" y="1464"/>
      <point x="938" y="1429" type="curve" smooth="yes"/>
      <point x="983" y="1413"/>
      <point x="1095" y="1376"/>
      <point x="1095" y="1229" type="curve" smooth="yes"/>
      <point x="1095" y="1122"/>
      <point x="1037" y="1053"/>
      <point x="916" y="1030" type="curve"/>
      <point x="916" y="1010" type="line"/>
      <point x="1037" y="982"/>
      <point x="1095" y="918"/>
      <point x="1095" y="806" type="curve" smooth="yes"/>
      <point x="1095" y="697"/>
      <point x="1038" y="613"/>
      <point x="916" y="594" type="curve"/>
      <point x="916" y="574" type="line"/>
      <point x="1035" y="551"/>
      <point x="1095" y="468"/>
      <point x="1095" y="360" type="curve" smooth="yes"/>
      <point x="1095" y="256"/>
      <point x="1040" y="194"/>
      <point x="916" y="159" type="curve"/>
      <point x="916" y="139" type="line"/>
      <point x="1033" y="102"/>
      <point x="1095" y="13"/>
      <point x="1095" y="-122" type="curve" smooth="yes"/>
      <point x="1095" y="-326"/>
      <point x="953" y="-423"/>
    </contour>
  </outline>
</glyph>
<glyph name="uni10FA" format="1">
  <advance width="1233"/>
  <unicode hex="10FA"/>
  <outline>
    <contour>
      <point x="751" y="-134" type="line" name="hr00"/>
      <point x="751" y="-131"/>
      <point x="714" y="-89" name="ab01"/>
      <point x="693" y="-68" type="curve" smooth="yes" name="sh03"/>
      <point x="656" y="-32"/>
      <point x="612" y="-8"/>
      <point x="541" y="-8" type="curve" smooth="yes"/>
      <point x="449" y="-8" name="sh01"/>
      <point x="387" y="-48" name="dv02"/>
      <point x="343" y="-124" type="curve" name="sh04"/>
      <point x="213" y="-50" type="line"/>
      <point x="258" y="18"/>
      <point x="319" y="60" name="ah02"/>
      <point x="396" y="76" type="curve" name="dv01"/>
      <point x="396" y="106" type="line" name="sh02"/>
      <point x="237" y="222"/>
      <point x="160" y="392"/>
      <point x="160" y="603" type="curve" smooth="yes" name="av01"/>
      <point x="160" y="903" name="ah01"/>
      <point x="321" y="1043" name="sh05"/>
      <point x="644" y="1046" type="curve"/>
      <point x="931" y="1023"/>
      <point x="1075" y="904"/>
      <point x="1075" y="691" type="curve" smooth="yes"/>
      <point x="1075" y="568"/>
      <point x="1027" y="414"/>
      <point x="932" y="227" type="curve"/>
      <point x="787" y="288" type="line"/>
      <point x="859" y="448"/>
      <point x="895" y="576"/>
      <point x="895" y="673" type="curve" smooth="yes"/>
      <point x="895" y="822"/>
      <point x="811" y="903"/>
      <point x="635" y="903" type="curve" smooth="yes"/>
      <point x="440" y="903"/>
      <point x="352" y="806"/>
      <point x="352" y="589" type="curve" smooth="yes"/>
      <point x="352" y="408"/>
      <point x="414" y="270"/>
      <point x="561" y="147" type="curve"/>
      <point x="679" y="119"/>
      <point x="780" y="56"/>
      <point x="863" y="-42" type="curve"/>
      <point x="751" y="-135" type="line"/>
    </contour>
  </outline>
</glyph>
<glyph name="quotesinglbase" format="1">
  <advance width="1233"/>
  <unicode hex="201A"/>
  <outline>
    <contour>
      <point x="502" y="96" type="line" name="dh01"/>
      <point x="502" y="303" type="line" name="av02"/>
      <point x="754" y="303" type="line"/>
      <point x="754" y="96" type="line" name="dh02"/>
      <point x="557" y="-287" type="line" name="av01"/>
      <point x="403" y="-287" type="line"/>
    </contour>
  </outline>
</glyph>
<glyph name="quotedblbase" format="1">
  <advance width="1233"/>
  <unicode hex="201E"/>
  <outline>
    <contour>
      <point x="309" y="96" type="line" name="sh01"/>
      <point x="309" y="303" type="line" name="av03"/>
      <point x="561" y="303" type="line"/>
      <point x="561" y="96" type="line" name="sh02"/>
      <point x="365" y="-287" type="line" name="av01"/>
      <point x="211" y="-287" type="line"/>
    </contour>
    <contour>
      <point x="768" y="96" type="line" name="ah01"/>
      <point x="768" y="303" type="line" name="av04"/>
      <point x="1020" y="303" type="line"/>
      <point x="1020" y="96" type="line" name="sh03"/>
      <point x="823" y="-287" type="line" name="av02"/>
      <point x="670" y="-287" type="line"/>
    </contour>
  </outline>
</glyph>
<glyph name="bullet" format="1">
  <advance width="1233"/>
  <unicode hex="2022"/>
  <outline>
    <contour>
      <point x="614" y="465" type="curve" smooth="yes" name="av01"/>
      <point x="533" y="465"/>
      <point x="460" y="495"/>
      <point x="404" y="551" type="curve" smooth="yes"/>
      <point x="348" y="608" name="av02"/>
      <point x="319" y="681"/>
      <point x="319" y="761" type="curve" smooth="yes"/>
      <point x="319" y="845"/>
      <point x="349" y="917"/>
      <point x="404" y="972" type="curve" smooth="yes"/>
      <point x="456" y="1024"/>
      <point x="530" y="1057"/>
      <point x="615" y="1057" type="curve" smooth="yes"/>
      <point x="699" y="1057"/>
      <point x="771" y="1027"/>
      <point x="827" y="972" type="curve" smooth="yes"/>
      <point x="878" y="921"/>
      <point x="913" y="849"/>
      <point x="913" y="761" type="curve" smooth="yes"/>
      <point x="913" y="681"/>
      <point x="885" y="610"/>
      <point x="826" y="551" type="curve"/>
      <point x="767" y="494"/>
      <point x="694" y="465"/>
    </contour>
  </outline>
</glyph>
<glyph name="uni2047" format="1">
  <advance width="1233"/>
  <unicode hex="2047"/>
  <outline>
    <contour>
      <point x="168" y="555" type="line" smooth="yes" name="ih01"/>
      <point x="168" y="689"/>
      <point x="190" y="763"/>
      <point x="262" y="872" type="curve" smooth="yes" name="ih02"/>
      <point x="321" y="961" type="line" smooth="yes" name="dv03"/>
      <point x="373" y="1040"/>
      <point x="391" y="1092"/>
      <point x="391" y="1151" type="curve" smooth="yes" name="dv04"/>
      <point x="391" y="1260" name="sv01"/>
      <point x="330" y="1313" name="sh01"/>
      <point x="242" y="1313" type="curve" smooth="yes"/>
      <point x="171" y="1313"/>
      <point x="115" y="1277" name="sh02"/>
      <point x="34" y="1190" type="curve"/>
      <point x="34" y="1407" type="line"/>
      <point x="120" y="1488" name="ih03"/>
      <point x="194" y="1521"/>
      <point x="307" y="1521" type="curve" smooth="yes"/>
      <point x="310" y="1521" name="ih04"/>
      <point x="318" y="1521" name="sv02"/>
      <point x="329" y="1520" type="curve" smooth="yes" name="ih05"/>
      <point x="500" y="1505"/>
      <point x="593" y="1387" name="sv03"/>
      <point x="593" y="1170" type="curve" smooth="yes" name="sv04"/>
      <point x="593" y="1068" name="sh03"/>
      <point x="572" y="994"/>
      <point x="489" y="868" type="curve" smooth="yes"/>
      <point x="432" y="782" type="line" smooth="yes" name="sh04"/>
      <point x="372" y="690"/>
      <point x="362" y="652"/>
      <point x="362" y="571" type="curve" smooth="yes" name="dv01"/>
      <point x="362" y="401" type="line"/>
      <point x="168" y="401" type="line" name="dh01"/>
    </contour>
    <contour>
      <point x="776" y="555" type="line" smooth="yes"/>
      <point x="776" y="689" name="dv02"/>
      <point x="798" y="763"/>
      <point x="870" y="872" type="curve" smooth="yes" name="dh02"/>
      <point x="929" y="961" type="line" smooth="yes"/>
      <point x="981" y="1040"/>
      <point x="999" y="1092" name="sv05"/>
      <point x="999" y="1151" type="curve" smooth="yes"/>
      <point x="999" y="1260" name="dh03"/>
      <point x="938" y="1313"/>
      <point x="850" y="1313" type="curve" smooth="yes" name="sv06"/>
      <point x="779" y="1313"/>
      <point x="723" y="1277" name="dh04"/>
      <point x="642" y="1190" type="curve"/>
      <point x="642" y="1407" type="line"/>
      <point x="728" y="1488"/>
      <point x="802" y="1521" name="sh05"/>
      <point x="915" y="1521" type="curve" smooth="yes"/>
      <point x="918" y="1521"/>
      <point x="926" y="1521"/>
      <point x="937" y="1520" type="curve" smooth="yes"/>
      <point x="1108" y="1505"/>
      <point x="1201" y="1387"/>
      <point x="1201" y="1170" type="curve" smooth="yes"/>
      <point x="1201" y="1068"/>
      <point x="1180" y="994"/>
      <point x="1097" y="868" type="curve" smooth="yes"/>
      <point x="1040" y="782" type="line" smooth="yes"/>
      <point x="980" y="690"/>
      <point x="970" y="652"/>
      <point x="970" y="571" type="curve" smooth="yes"/>
      <point x="970" y="401" type="line"/>
      <point x="776" y="401" type="line"/>
    </contour>
    <contour>
      <point x="269" y="-40" type="curve" smooth="yes"/>
      <point x="228" y="-40"/>
      <point x="193" y="-26"/>
      <point x="165" y="2" type="curve" smooth="yes"/>
      <point x="136" y="31"/>
      <point x="122" y="70"/>
      <point x="122" y="113" type="curve" smooth="yes"/>
      <point x="122" y="156"/>
      <point x="136" y="194"/>
      <point x="164" y="222" type="curve" smooth="yes"/>
      <point x="187" y="245"/>
      <point x="223" y="264"/>
      <point x="268" y="264" type="curve" smooth="yes"/>
      <point x="311" y="264"/>
      <point x="345" y="249"/>
      <point x="372" y="222" type="curve" smooth="yes"/>
      <point x="400" y="194"/>
      <point x="414" y="158"/>
      <point x="414" y="113" type="curve" smooth="yes"/>
      <point x="414" y="68"/>
      <point x="400" y="31"/>
      <point x="372" y="3" type="curve" smooth="yes"/>
      <point x="343" y="-26"/>
      <point x="309" y="-40"/>
    </contour>
    <contour>
      <point x="881" y="-40" type="curve" smooth="yes"/>
      <point x="840" y="-40"/>
      <point x="805" y="-26"/>
      <point x="777" y="2" type="curve" smooth="yes"/>
      <point x="748" y="31"/>
      <point x="734" y="70"/>
      <point x="734" y="113" type="curve" smooth="yes"/>
      <point x="734" y="156"/>
      <point x="748" y="194"/>
      <point x="776" y="222" type="curve" smooth="yes"/>
      <point x="799" y="245"/>
      <point x="835" y="264"/>
      <point x="880" y="264" type="curve" smooth="yes"/>
      <point x="923" y="264"/>
      <point x="957" y="249"/>
      <point x="984" y="222" type="curve" smooth="yes"/>
      <point x="1012" y="194"/>
      <point x="1026" y="158"/>
      <point x="1026" y="113" type="curve" smooth="yes"/>
      <point x="1026" y="68"/>
      <point x="1012" y="31"/>
      <point x="984" y="3" type="curve" smooth="yes"/>
      <point x="955" y="-26"/>
      <point x="921" y="-40"/>
    </contour>
  </outline>
</glyph>
<glyph name="uni2048" format="1">
  <advance width="1233"/>
  <unicode hex="2048"/>
  <outline>
    <contour>
      <point x="168" y="555" type="line" smooth="yes" name="ih01"/>
      <point x="168" y="689"/>
      <point x="190" y="763"/>
      <point x="262" y="872" type="curve" smooth="yes" name="ih02"/>
      <point x="321" y="961" type="line" smooth="yes" name="sv01"/>
      <point x="373" y="1040"/>
      <point x="391" y="1092"/>
      <point x="391" y="1151" type="curve" smooth="yes" name="av01"/>
      <point x="391" y="1260" name="av02"/>
      <point x="330" y="1313" name="sh01"/>
      <point x="242" y="1313" type="curve" smooth="yes"/>
      <point x="171" y="1313"/>
      <point x="115" y="1277" name="sh02"/>
      <point x="34" y="1190" type="curve"/>
      <point x="34" y="1407" type="line"/>
      <point x="120" y="1488" name="dh03"/>
      <point x="194" y="1521" name="at01"/>
      <point x="307" y="1521" type="curve" smooth="yes"/>
      <point x="310" y="1521" name="dh04"/>
      <point x="318" y="1521"/>
      <point x="329" y="1520" type="curve" smooth="yes"/>
      <point x="500" y="1505" name="dv01"/>
      <point x="593" y="1387"/>
      <point x="593" y="1170" type="curve" smooth="yes" name="dh01"/>
      <point x="593" y="1068"/>
      <point x="572" y="994" name="dv02"/>
      <point x="489" y="868" type="curve" smooth="yes"/>
      <point x="432" y="782" type="line" smooth="yes" name="dh02"/>
      <point x="372" y="690"/>
      <point x="362" y="652"/>
      <point x="362" y="571" type="curve" smooth="yes" name="sv02"/>
      <point x="362" y="401" type="line"/>
      <point x="168" y="401" type="line" name="sh03"/>
    </contour>
    <contour>
      <point x="781" y="1053" type="line"/>
      <point x="781" y="1498" type="line" name="sv03"/>
      <point x="1046" y="1498" type="line"/>
      <point x="1046" y="1053" type="line" name="sh04"/>
      <point x="979" y="486" type="line"/>
      <point x="858" y="486" type="line"/>
    </contour>
    <contour>
      <point x="273" y="-40" type="curve" smooth="yes"/>
      <point x="232" y="-40" name="sh05"/>
      <point x="197" y="-26"/>
      <point x="169" y="2" type="curve" smooth="yes"/>
      <point x="140" y="31"/>
      <point x="126" y="70"/>
      <point x="126" y="113" type="curve" smooth="yes"/>
      <point x="126" y="156"/>
      <point x="140" y="194"/>
      <point x="168" y="222" type="curve" smooth="yes"/>
      <point x="191" y="245"/>
      <point x="227" y="264"/>
      <point x="272" y="264" type="curve" smooth="yes"/>
      <point x="315" y="264"/>
      <point x="349" y="249"/>
      <point x="376" y="222" type="curve" smooth="yes"/>
      <point x="404" y="194"/>
      <point x="418" y="158"/>
      <point x="418" y="113" type="curve" smooth="yes"/>
      <point x="418" y="68"/>
      <point x="404" y="31"/>
      <point x="376" y="3" type="curve" smooth="yes"/>
      <point x="347" y="-26"/>
      <point x="313" y="-40"/>
    </contour>
    <contour>
      <point x="915" y="-40" type="curve" smooth="yes"/>
      <point x="874" y="-40"/>
      <point x="839" y="-26"/>
      <point x="811" y="2" type="curve" smooth="yes"/>
      <point x="782" y="31"/>
      <point x="768" y="70"/>
      <point x="768" y="113" type="curve" smooth="yes"/>
      <point x="768" y="156"/>
      <point x="782" y="194"/>
      <point x="810" y="222" type="curve" smooth="yes"/>
      <point x="833" y="245"/>
      <point x="869" y="264"/>
      <point x="914" y="264" type="curve" smooth="yes"/>
      <point x="957" y="264"/>
      <point x="991" y="249"/>
      <point x="1018" y="222" type="curve" smooth="yes"/>
      <point x="1046" y="194"/>
      <point x="1060" y="158"/>
      <point x="1060" y="113" type="curve" smooth="yes"/>
      <point x="1060" y="68"/>
      <point x="1046" y="31"/>
      <point x="1018" y="3" type="curve" smooth="yes"/>
      <point x="989" y="-26"/>
      <point x="955" y="-40"/>
    </contour>
  </outline>
</glyph>
<glyph name="uni2078" format="1">
  <advance width="1233"/>
  <unicode hex="2078"/>
  <outline>
    <contour>
      <point x="616" y="1108" type="curve" smooth="yes" name="dv01"/>
      <point x="428" y="1108"/>
      <point x="315" y="1198" name="ih01"/>
      <point x="315" y="1347" type="curve" smooth="yes" name="sh01"/>
      <point x="315" y="1468" name="dv04"/>
      <point x="382" y="1543"/>
      <point x="507" y="1568" type="curve" name="ih02"/>
      <point x="399" y="1592" name="sh02"/>
      <point x="337" y="1662"/>
      <point x="337" y="1758" type="curve" smooth="yes" name="dv06"/>
      <point x="337" y="1890" name="ah02"/>
      <point x="444" y="1974" name="dv03"/>
      <point x="616" y="1974" type="curve" smooth="yes" name="sh03"/>
      <point x="789" y="1974"/>
      <point x="896" y="1890" name="dv02"/>
      <point x="896" y="1758" type="curve" smooth="yes"/>
      <point x="896" y="1662" name="dv05"/>
      <point x="834" y="1592"/>
      <point x="726" y="1568" type="curve"/>
      <point x="851" y="1543" name="ah01"/>
      <point x="918" y="1468"/>
      <point x="918" y="1348" type="curve" smooth="yes"/>
      <point x="918" y="1197"/>
      <point x="805" y="1108"/>
    </contour>
    <contour>
      <point x="616" y="1609" type="curve" smooth="yes"/>
      <point x="717" y="1609"/>
      <point x="771" y="1658"/>
      <point x="771" y="1747" type="curve" smooth="yes"/>
      <point x="771" y="1839"/>
      <point x="720" y="1887"/>
      <point x="616" y="1887" type="curve" smooth="yes"/>
      <point x="516" y="1887"/>
      <point x="462" y="1839"/>
      <point x="462" y="1747" type="curve" smooth="yes"/>
      <point x="462" y="1658"/>
      <point x="516" y="1609"/>
    </contour>
    <contour>
      <point x="616" y="1196" type="curve" smooth="yes"/>
      <point x="729" y="1196"/>
      <point x="792" y="1255"/>
      <point x="792" y="1359" type="curve" smooth="yes"/>
      <point x="792" y="1463"/>
      <point x="728" y="1521"/>
      <point x="616" y="1521" type="curve" smooth="yes"/>
      <point x="503" y="1521"/>
      <point x="441" y="1463"/>
      <point x="441" y="1359" type="curve" smooth="yes"/>
      <point x="441" y="1255"/>
      <point x="507" y="1196"/>
    </contour>
  </outline>
</glyph>
<glyph name="uni2079" format="1">
  <advance width="1233"/>
  <unicode hex="2079"/>
  <outline>
    <contour>
      <point x="551" y="1113" type="curve" smooth="yes" name="dv01"/>
      <point x="491" y="1113"/>
      <point x="428" y="1125" name="ih01"/>
      <point x="371" y="1146" type="curve" name="dv02"/>
      <point x="371" y="1250" type="line" name="ih02"/>
      <point x="424" y="1223" name="sv01"/>
      <point x="482" y="1208" name="sh01"/>
      <point x="546" y="1208" type="curve" smooth="yes" name="dv04"/>
      <point x="707" y="1208" name="sh03"/>
      <point x="788" y="1314"/>
      <point x="788" y="1527" type="curve" name="at01"/>
      <point x="749" y="1451" name="ah02"/>
      <point x="677" y="1411" name="dv03"/>
      <point x="585" y="1411" type="curve" smooth="yes" name="sh02"/>
      <point x="402" y="1411"/>
      <point x="304" y="1513" name="ah01"/>
      <point x="304" y="1697" type="curve" smooth="yes"/>
      <point x="304" y="1878"/>
      <point x="408" y="1980"/>
      <point x="592" y="1980" type="curve" smooth="yes"/>
      <point x="808" y="1980"/>
      <point x="904" y="1846"/>
      <point x="904" y="1546" type="curve" smooth="yes"/>
      <point x="904" y="1263"/>
      <point x="782" y="1113"/>
    </contour>
    <contour>
      <point x="595" y="1499" type="curve" smooth="yes"/>
      <point x="703" y="1499"/>
      <point x="766" y="1571"/>
      <point x="766" y="1696" type="curve" smooth="yes"/>
      <point x="766" y="1820"/>
      <point x="703" y="1892"/>
      <point x="595" y="1892" type="curve" smooth="yes"/>
      <point x="483" y="1892"/>
      <point x="427" y="1827"/>
      <point x="427" y="1696" type="curve" smooth="yes"/>
      <point x="427" y="1565"/>
      <point x="483" y="1499"/>
    </contour>
  </outline>
</glyph>
<glyph name="uni208E" format="1">
  <advance width="1233"/>
  <unicode hex="208E"/>
  <outline>
    <contour>
      <point x="472" y="-151" type="line" name="av02"/>
      <point x="583" y="21" name="dh01"/>
      <point x="639" y="192" name="av01"/>
      <point x="639" y="361" type="curve" smooth="yes"/>
      <point x="639" y="530" name="dh02"/>
      <point x="583" y="700" name="av03"/>
      <point x="472" y="870" type="curve"/>
      <point x="573" y="870" type="line"/>
      <point x="701" y="693"/>
      <point x="761" y="528"/>
      <point x="761" y="360" type="curve" smooth="yes"/>
      <point x="761" y="191"/>
      <point x="701" y="26"/>
      <point x="573" y="-151" type="curve"/>
    </contour>
  </outline>
</glyph>
<glyph name="lira" format="1">
  <advance width="1233"/>
  <unicode hex="20A4"/>
  <outline>
    <contour>
      <point x="139" y="170" type="line" name="sv01"/>
      <point x="375" y="170" type="line" name="dh01"/>
      <point x="375" y="492" type="line" name="dv01"/>
      <point x="184" y="492" type="line"/>
      <point x="184" y="635" type="line"/>
      <point x="375" y="635" type="line" name="sh01"/>
      <point x="375" y="778" type="line" name="dv02"/>
      <point x="176" y="778" type="line"/>
      <point x="176" y="921" type="line"/>
      <point x="375" y="921" type="line" name="sh02"/>
      <point x="375" y="1016" type="line" smooth="yes"/>
      <point x="375" y="1356" name="at01"/>
      <point x="512" y="1520"/>
      <point x="807" y="1520" type="curve" smooth="yes" name="iv01"/>
      <point x="915" y="1520" name="sv02"/>
      <point x="1007" y="1499" name="sh03"/>
      <point x="1112" y="1460" type="curve" name="sv03"/>
      <point x="1112" y="1278" type="line"/>
      <point x="1008" y="1334" name="sv04"/>
      <point x="927" y="1360" name="sh04"/>
      <point x="828" y="1360" type="curve" smooth="yes" name="sv05"/>
      <point x="642" y="1360"/>
      <point x="575" y="1269" name="sv06"/>
      <point x="575" y="993" type="curve" smooth="yes"/>
      <point x="575" y="921" type="line" name="dh02"/>
      <point x="966" y="921" type="line" name="sv07"/>
      <point x="966" y="778" type="line" name="ab01"/>
      <point x="575" y="778" type="line"/>
      <point x="575" y="635" type="line"/>
      <point x="974" y="635" type="line"/>
      <point x="974" y="492" type="line"/>
      <point x="575" y="492" type="line"/>
      <point x="575" y="170" type="line"/>
      <point x="1132" y="170" type="line"/>
      <point x="1132" y="0" type="line"/>
      <point x="139" y="0" type="line"/>
    </contour>
  </outline>
</glyph>
<glyph name="uni20A5" format="1">
  <advance width="1233"/>
  <unicode hex="20A5"/>
  <outline>
    <contour>
      <point x="537" y="647" type="line" name="dh03"/>
      <point x="537" y="823"/>
      <point x="525" y="898" name="dv01"/>
      <point x="507" y="937" type="curve" smooth="yes"/>
      <point x="490" y="972"/>
      <point x="462" y="993" name="dh02"/>
      <point x="406" y="993" type="curve" smooth="yes" name="dh01"/>
      <point x="347" y="993" name="at01"/>
      <point x="322" y="967"/>
      <point x="306" y="932" type="curve" smooth="yes" name="sh01"/>
      <point x="288" y="893" name="dv02"/>
      <point x="276" y="819" name="ih01"/>
      <point x="276" y="641" type="curve" smooth="yes" name="av02"/>
      <point x="276" y="0" type="line"/>
      <point x="109" y="0" type="line" name="ih02"/>
      <point x="109" y="1120" type="line" name="sv01"/>
      <point x="258" y="1120" type="line"/>
      <point x="276" y="1024" type="line"/>
      <point x="323" y="1108" name="dh06"/>
      <point x="387" y="1147" name="dh05"/>
      <point x="475" y="1147" type="curve" smooth="yes"/>
      <point x="574" y="1147"/>
      <point x="625" y="1098" name="sv02"/>
      <point x="654" y="1050" type="curve"/>
      <point x="720" y="1310" type="line" name="dh04"/>
      <point x="826" y="1310" type="line" name="ab01"/>
      <point x="778" y="1122" type="line" name="sh02"/>
      <point x="809" y="1139" name="ih03"/>
      <point x="846" y="1147" name="av01"/>
      <point x="889" y="1147" type="curve" smooth="yes"/>
      <point x="974" y="1147"/>
      <point x="1041" y="1115" name="sh03"/>
      <point x="1080" y="1043" type="curve" smooth="yes"/>
      <point x="1117" y="974"/>
      <point x="1135" y="842"/>
      <point x="1135" y="649" type="curve" smooth="yes"/>
      <point x="1135" y="0" type="line"/>
      <point x="967" y="0" type="line"/>
      <point x="967" y="641" type="line" smooth="yes"/>
      <point x="967" y="810"/>
      <point x="959" y="895"/>
      <point x="940" y="936" type="curve" smooth="yes"/>
      <point x="925" y="971"/>
      <point x="897" y="993"/>
      <point x="841" y="993" type="curve" smooth="yes"/>
      <point x="790" y="993"/>
      <point x="756" y="975"/>
      <point x="736" y="932" type="curve" smooth="yes"/>
      <point x="713" y="885"/>
      <point x="705" y="800"/>
      <point x="705" y="641" type="curve" smooth="yes"/>
      <point x="705" y="0" type="line"/>
      <point x="537" y="0" type="line"/>
      <point x="537" y="176" type="line"/>
      <point x="444" y="-190" type="line"/>
      <point x="339" y="-190" type="line"/>
    </contour>
  </outline>
</glyph>
<glyph name="peseta" format="1">
  <advance width="1233"/>
  <unicode hex="20A7"/>
  <outline>
    <contour>
      <point x="999" y="-29" type="curve" smooth="yes" name="dv01"/>
      <point x="940" y="-29"/>
      <point x="874" y="-6" name="dv03"/>
      <point x="803" y="41" type="curve"/>
      <point x="803" y="42" type="line"/>
      <point x="713" y="42" type="line" smooth="yes" name="dh05"/>
      <point x="643" y="42" name="sv01"/>
      <point x="594" y="69" name="dh04"/>
      <point x="567" y="122" type="curve" smooth="yes" name="dv05"/>
      <point x="540" y="175"/>
      <point x="526" y="272" name="dh02"/>
      <point x="526" y="411" type="curve" smooth="yes" name="dh01"/>
      <point x="526" y="1019" type="line" name="at01"/>
      <point x="488" y="1019" type="line"/>
      <point x="484" y="752" name="sh01"/>
      <point x="403" y="600" name="sh02"/>
      <point x="236" y="600" type="curve" smooth="yes" name="at02"/>
      <point x="110" y="600" type="line" name="sh03"/>
      <point x="110" y="0" type="line"/>
      <point x="10" y="0" type="line" name="sh04"/>
      <point x="10" y="1493" type="line" name="sh05"/>
      <point x="236" y="1493" type="line" smooth="yes"/>
      <point x="402" y="1493" name="dh06"/>
      <point x="468" y="1342"/>
      <point x="484" y="1162" type="curve"/>
      <point x="526" y="1162" type="line" name="sh06"/>
      <point x="526" y="1480" type="line" name="sh07"/>
      <point x="618" y="1480" type="line" name="dv02"/>
      <point x="618" y="1162" type="line" name="dh09"/>
      <point x="807" y="1162" type="line"/>
      <point x="807" y="1019" type="line"/>
      <point x="618" y="1019" type="line" name="dh07"/>
      <point x="618" y="411" type="line" smooth="yes" name="dv04"/>
      <point x="618" y="319" name="sh08"/>
      <point x="624" y="260" name="ih01"/>
      <point x="637" y="235" type="curve" smooth="yes" name="sv02"/>
      <point x="650" y="209" name="dh08"/>
      <point x="675" y="196"/>
      <point x="713" y="196" type="curve" smooth="yes"/>
      <point x="803" y="196" type="line" name="dh10"/>
      <point x="803" y="231" type="line"/>
      <point x="875" y="155" name="dv06"/>
      <point x="938" y="125" name="dh03"/>
      <point x="1001" y="125" type="curve" smooth="yes" name="sv03"/>
      <point x="1085" y="125" name="sh09"/>
      <point x="1134" y="182"/>
      <point x="1134" y="305" type="curve" smooth="yes"/>
      <point x="1134" y="409" name="sh10"/>
      <point x="1099" y="439"/>
      <point x="999" y="487" type="curve" smooth="yes"/>
      <point x="967" y="502" type="line"/>
      <point x="854" y="550"/>
      <point x="807" y="644"/>
      <point x="807" y="815" type="curve" smooth="yes"/>
      <point x="807" y="1030"/>
      <point x="881" y="1147"/>
      <point x="1026" y="1147" type="curve" smooth="yes"/>
      <point x="1086" y="1147"/>
      <point x="1147" y="1127"/>
      <point x="1198" y="1087" type="curve"/>
      <point x="1198" y="913" type="line"/>
      <point x="1146" y="966"/>
      <point x="1093" y="993"/>
      <point x="1030" y="993" type="curve" smooth="yes"/>
      <point x="940" y="993"/>
      <point x="895" y="936"/>
      <point x="895" y="823" type="curve" smooth="yes"/>
      <point x="895" y="742"/>
      <point x="918" y="700"/>
      <point x="1018" y="655" type="curve" smooth="yes"/>
      <point x="1049" y="641" type="line" smooth="yes"/>
      <point x="1173" y="585"/>
      <point x="1228" y="497"/>
      <point x="1228" y="319" type="curve" smooth="yes"/>
      <point x="1228" y="95"/>
      <point x="1142" y="-29"/>
    </contour>
    <contour>
      <point x="236" y="766" type="line" smooth="yes"/>
      <point x="329" y="766"/>
      <point x="383" y="866"/>
      <point x="383" y="1047" type="curve" smooth="yes"/>
      <point x="383" y="1227"/>
      <point x="329" y="1327"/>
      <point x="236" y="1327" type="curve" smooth="yes"/>
      <point x="110" y="1327" type="line"/>
      <point x="110" y="766" type="line"/>
    </contour>
  </outline>
</glyph>
<glyph name="uni20B5" format="1">
  <advance width="1233"/>
  <unicode hex="20B5"/>
  <outline>
    <contour>
      <point x="642" y="-24" type="line" name="sh01"/>
      <point x="395" y="8"/>
      <point x="130" y="225" name="dh01"/>
      <point x="130" y="643" type="curve" smooth="yes" name="dh03"/>
      <point x="130" y="660" type="line" smooth="yes"/>
      <point x="130" y="1090" name="at01"/>
      <point x="404" y="1292" name="dh04"/>
      <point x="641" y="1324" type="curve" name="sh02"/>
      <point x="641" y="1554" type="line" name="iv01"/>
      <point x="742" y="1556" type="line" name="sh03"/>
      <point x="742" y="1330" type="line" name="dv01"/>
      <point x="867" y="1327" name="sh04"/>
      <point x="986" y="1284"/>
      <point x="1103" y="1188" type="curve" name="sh05"/>
      <point x="1103" y="975" type="line" name="av01"/>
      <point x="982" y="1115" name="sh07"/>
      <point x="877" y="1170" name="sh06"/>
      <point x="742" y="1170" type="curve"/>
      <point x="742" y="131" type="line" name="dh02"/>
      <point x="876" y="131" name="sh08"/>
      <point x="983" y="185"/>
      <point x="1103" y="326" type="curve"/>
      <point x="1103" y="115" type="line"/>
      <point x="983" y="19"/>
      <point x="863" y="-26"/>
      <point x="742" y="-29" type="curve"/>
      <point x="742" y="-301" type="line"/>
      <point x="642" y="-301" type="line"/>
    </contour>
    <contour>
      <point x="641" y="1159" type="line"/>
      <point x="582" y="1144"/>
      <point x="529" y="1115"/>
      <point x="483" y="1070" type="curve" smooth="yes"/>
      <point x="371" y="961"/>
      <point x="341" y="793"/>
      <point x="341" y="656" type="curve" smooth="yes"/>
      <point x="341" y="605"/>
      <point x="345" y="556"/>
      <point x="350" y="520" type="curve" smooth="yes"/>
      <point x="367" y="397"/>
      <point x="417" y="296"/>
      <point x="482" y="232" type="curve" smooth="yes"/>
      <point x="523" y="192"/>
      <point x="581" y="157"/>
      <point x="642" y="142" type="curve"/>
    </contour>
  </outline>
</glyph>
<glyph name="uni20B9" format="1">
  <advance width="1233"/>
  <unicode hex="20B9"/>
  <outline>
    <contour>
      <point x="626" y="377" type="line" smooth="yes" name="hr00"/>
      <point x="522" y="596" name="dv03"/>
      <point x="455" y="631"/>
      <point x="327" y="631" type="curve" smooth="yes"/>
      <point x="134" y="631" type="line" name="dv04"/>
      <point x="134" y="797" type="line" name="dv01"/>
      <point x="355" y="797" type="line" smooth="yes"/>
      <point x="548" y="797"/>
      <point x="627" y="904" name="dv02"/>
      <point x="640" y="1040" type="curve" name="sv01"/>
      <point x="104" y="1040" type="line"/>
      <point x="159" y="1163" type="line" name="at01"/>
      <point x="634" y="1163" type="line"/>
      <point x="613" y="1264" name="sv02"/>
      <point x="539" y="1370" name="sv03"/>
      <point x="347" y="1370" type="curve" smooth="yes" name="sv04"/>
      <point x="104" y="1370" type="line" name="iv01"/>
      <point x="159" y="1493" type="line" name="sv05"/>
      <point x="1137" y="1493" type="line"/>
      <point x="1082" y="1370" type="line" name="iv02"/>
      <point x="737" y="1370" type="line"/>
      <point x="795" y="1316" name="ab01"/>
      <point x="831" y="1247"/>
      <point x="846" y="1163" type="curve"/>
      <point x="1137" y="1163" type="line"/>
      <point x="1082" y="1040" type="line"/>
      <point x="855" y="1040" type="line"/>
      <point x="847" y="861"/>
      <point x="743" y="732"/>
      <point x="548" y="705" type="curve"/>
      <point x="653" y="678"/>
      <point x="706" y="631"/>
      <point x="818" y="408" type="curve" smooth="yes"/>
      <point x="1021" y="0" type="line"/>
      <point x="804" y="0" type="line"/>
    </contour>
  </outline>
</glyph>
